<svg xmlns="http://www.w3.org/2000/svg" viewBox="0 0 1064.7 1738.92"><defs><style>.cls-1{fill:none;stroke:#fff;stroke-miterlimit:10;stroke-width:6px;}</style></defs><g id="Слой_2" data-name="Слой 2"><g id="Слой_1-2" data-name="Слой 1"><rect class="cls-1" x="3" y="665.16" width="1058.7" height="49.87"/><rect class="cls-1" x="3" y="1351" width="1058.7" height="49.87"/><path class="cls-1" d="M1004.78,601.93v63.23H59.93V601.93l84.51-198.21V245.64H90.93V192.08a85,85,0,0,1,54.41-79.32L336.57,38.91V147.13H728.13V38.91l191.24,73.85a85,85,0,0,1,54.4,79.32v53.56H920.26V403.72Z"/><rect class="cls-1" x="59.93" y="715.02" width="944.85" height="635.97"/><path class="cls-1" d="M1004.78,1400.86v95.91a79.5,79.5,0,0,1-79.5,79.51H139.42a79.5,79.5,0,0,1-79.49-79.51v-95.91Z"/><path class="cls-1" d="M566.59,472.78V529a142.3,142.3,0,0,1-34.16,4.24h-.37A142.57,142.57,0,0,1,498.11,529V472.78Z"/><rect class="cls-1" x="457.64" y="422.33" width="149.42" height="50.42"/><rect class="cls-1" x="498.11" y="406.15" width="68.48" height="16.18"/><rect class="cls-1" x="482.16" y="354.29" width="100.39" height="51.86"/><rect class="cls-1" x="508.67" y="290.42" width="47.36" height="63.87"/><rect class="cls-1" x="428.46" y="256.73" width="207.79" height="33.69"/><path class="cls-1" d="M362.9,147.13l28.16,259.16A142.26,142.26,0,0,0,532.17,533.23h.37A142.25,142.25,0,0,0,673.65,406.29l28.16-259.16"/><line class="cls-1" x1="532.35" x2="532.35" y2="431.69"/><line class="cls-1" x1="532.35" y1="508.3" x2="532.35" y2="584.91"/><line class="cls-1" x1="532.35" y1="651.79" x2="532.35" y2="1095.64"/><line class="cls-1" x1="532.35" y1="1161.31" x2="532.35" y2="1237.92"/><line class="cls-1" x1="532.35" y1="1313.31" x2="532.35" y2="1738.92"/></g></g></svg>