<svg xmlns="http://www.w3.org/2000/svg" viewBox="0 0 473.72 1643.48"><defs><style>.cls-1{fill:none;stroke:#fff;stroke-miterlimit:10;stroke-width:6px;}.cls-2{fill:#fff;}</style></defs><g id="Слой_2" data-name="Слой 2"><g id="Слой_1-2" data-name="Слой 1"><rect class="cls-1" x="3" y="348.83" width="467.72" height="1173.98"/><path class="cls-1" d="M40.29,348.83A135.24,135.24,0,0,1,175.48,216.91H298.24A135.24,135.24,0,0,1,433.43,348.83"/><line class="cls-1" x1="158.57" y1="197.37" x2="158.57" y2="217.93"/><line class="cls-1" x1="315.15" y1="197.37" x2="315.15" y2="217.93"/><path class="cls-2" d="M354.46,188.93v8.44H119.26v-8.44h235.2m6-6H113.26v20.44h247.2V182.93Z"/><polyline class="cls-1" points="332.47 188.93 332.47 111.19 315.41 73.44 236.86 73.44 158.32 73.44 141.25 111.19 141.25 188.93"/><line class="cls-1" x1="236.86" x2="236.86" y2="455.44"/><line class="cls-1" x1="236.86" y1="684.86" x2="236.86" y2="1140.3"/><line class="cls-1" x1="236.86" y1="1366.31" x2="236.86" y2="1643.48"/><line class="cls-1" x1="236.86" y1="515.34" x2="236.86" y2="615.66"/><line class="cls-1" x1="236.86" y1="1203.02" x2="236.86" y2="1303.35"/></g></g></svg>