<svg xmlns="http://www.w3.org/2000/svg" viewBox="0 0 453.63 2005.02"><defs><style>.cls-1{fill:none;stroke:#fff;stroke-miterlimit:10;stroke-width:6px;}</style></defs><g id="Слой_2" data-name="Слой 2"><g id="Слой_1-2" data-name="Слой 1"><path class="cls-1" d="M416.88,335.72V470.61h-394V335.72A99.32,99.32,0,0,1,122.2,236.4H317.56A99.31,99.31,0,0,1,416.88,335.72Z"/><rect class="cls-1" x="22.88" y="491.41" width="394" height="1137.49"/><path class="cls-1" d="M416.88,1649.7V1787a99.31,99.31,0,0,1-99.32,99.32H122.2A99.32,99.32,0,0,1,22.88,1787V1649.7Z"/><rect class="cls-1" x="3" y="1628.9" width="433.76" height="20.8"/><rect class="cls-1" x="3" y="470.61" width="433.76" height="20.8"/><rect class="cls-1" x="239.58" y="148.71" width="100.14" height="20.79"/><rect class="cls-1" x="179.93" y="198.09" width="79.89" height="38.31"/><rect class="cls-1" x="200.18" y="120.12" width="39.4" height="77.98"/><rect class="cls-1" x="159.41" y="88.65" width="120.94" height="31.47"/><circle class="cls-1" cx="395.17" cy="159.1" r="55.45"/><line class="cls-1" x1="219.88" x2="219.88" y2="369.44"/><line class="cls-1" x1="219.88" y1="425.74" x2="219.88" y2="489.22"/><line class="cls-1" x1="219.88" y1="546.13" x2="219.88" y2="916.05"/><line class="cls-1" x1="219.88" y1="973.35" x2="219.88" y2="1030.97"/><line class="cls-1" x1="219.88" y1="1093.35" x2="219.88" y2="1461.08"/><line class="cls-1" x1="219.88" y1="1519.09" x2="219.88" y2="1579.28"/><line class="cls-1" x1="219.88" y1="2005.02" x2="219.88" y2="1639.3"/></g></g></svg>