<svg xmlns="http://www.w3.org/2000/svg" viewBox="0 0 791.56 1922.54"><defs><style>.cls-1{fill:none;stroke:#fff;stroke-miterlimit:10;stroke-width:6px;}</style></defs><g id="Слой_2" data-name="Слой 2"><g id="Слой_1-2" data-name="Слой 1"><rect class="cls-1" x="3" y="511.95" width="785.55" height="41.34"/><rect class="cls-1" x="3.01" y="1667.17" width="785.55" height="41.35"/><line class="cls-1" x1="751.47" y1="1667.17" x2="751.47" y2="553.29"/><path class="cls-1" d="M751.47,1708.52v62.53a67.59,67.59,0,0,1-67.59,67.58H107.68a67.58,67.58,0,0,1-67.58-67.58v-62.53"/><line class="cls-1" x1="40.1" y1="1667.17" x2="40.1" y2="553.29"/><path class="cls-1" d="M40.1,512V463.31l67.69-147.14V198H63.91V176a89,89,0,0,1,59.26-83.87L251.79,46.51V125h288V46.51L668.39,92.09A89,89,0,0,1,727.65,176v22H683.77V316.17l67.7,147.14V512"/><line class="cls-1" x1="395.77" x2="395.77" y2="246.85"/><line class="cls-1" x1="395.77" y1="301.57" x2="395.77" y2="363.59"/><line class="cls-1" x1="395.77" y1="413.45" x2="395.77" y2="663.95"/><line class="cls-1" x1="395.77" y1="719.89" x2="395.77" y2="777.04"/><line class="cls-1" x1="395.78" y1="830.55" x2="395.78" y2="1088.34"/><line class="cls-1" x1="395.78" y1="1139.42" x2="395.78" y2="1197.79"/><line class="cls-1" x1="395.78" y1="1253.72" x2="395.78" y2="1501.79"/><line class="cls-1" x1="395.78" y1="1560.16" x2="395.78" y2="1613.67"/><line class="cls-1" x1="395.78" y1="1667.17" x2="395.78" y2="1922.54"/></g></g></svg>