<svg xmlns="http://www.w3.org/2000/svg" viewBox="0 0 3561.39 957.25"><defs><style>.cls-1{fill:none;stroke:#fff;stroke-miterlimit:10;stroke-width:6px;}</style></defs><g id="Слой_2" data-name="Слой 2"><g id="Слой_1-2" data-name="Слой 1"><path class="cls-1" d="M3040.3,635.77V487.48A181.77,181.77,0,0,0,2869.74,368.6H738.85a181.77,181.77,0,0,0-170,117.32h.49V637.34h-.49a181.75,181.75,0,0,0,170,117.3H2869.74A181.76,181.76,0,0,0,3040.3,635.77Z"/><rect class="cls-1" x="1224.66" y="88.84" width="29.51" height="279.76"/><rect class="cls-1" x="2354.43" y="88.84" width="29.51" height="279.76"/><rect class="cls-1" x="1168.9" y="3" width="1270.8" height="85.84"/><path class="cls-1" d="M3127.31,561.63a91.51,91.51,0,0,1,9.16-40h-10.94V485.92H3040.3V637.34h85.23V601.68h10.95A91.62,91.62,0,0,1,3127.31,561.63Z"/><rect class="cls-1" x="3357.13" y="485.92" width="85.23" height="151.42"/><path class="cls-1" d="M3357.13,601.68v-80.1h-55.28a92.13,92.13,0,0,1,0,80.1Z"/><path class="cls-1" d="M3311,561.63a91.79,91.79,0,1,0-9.17,40A91.5,91.5,0,0,0,3311,561.63Z"/><path class="cls-1" d="M3257.12,478V368.6H3181.2V478a92.17,92.17,0,0,1,75.92,0Z"/><rect class="cls-1" x="3159.12" y="307.03" width="120.08" height="61.57"/><polygon class="cls-1" points="3358.47 254.41 3358.47 195.64 3079.85 195.64 3079.85 254.41 3197.69 254.41 3197.69 307.03 3240.62 307.03 3240.62 254.41 3358.47 254.41"/><path class="cls-1" d="M569.39,637.34V485.92H484.16v35.66H473.22a92.09,92.09,0,0,1,0,80.1h11v35.66Z"/><rect class="cls-1" x="167.34" y="485.92" width="85.23" height="151.42"/><path class="cls-1" d="M252.56,601.68v-80.1h55.28a92.13,92.13,0,0,0,0,80.1Z"/><path class="cls-1" d="M482.38,561.63a91.79,91.79,0,1,0-9.17,40A91.51,91.51,0,0,0,482.38,561.63Z"/><path class="cls-1" d="M352.57,478V368.6h75.92V478a92.17,92.17,0,0,0-75.92,0Z"/><rect class="cls-1" x="330.49" y="307.03" width="120.08" height="61.57"/><polygon class="cls-1" points="251.23 254.41 251.23 195.64 529.84 195.64 529.84 254.41 412 254.41 412 307.03 369.07 307.03 369.07 254.41 251.23 254.41"/><line class="cls-1" x1="390.53" y1="957.25" x2="390.53" y2="45.92"/><line class="cls-1" x1="3219.16" y1="957.25" x2="3219.16" y2="45.92"/><line class="cls-1" y1="561.63" x2="668.75" y2="561.63"/><line class="cls-1" x1="742.33" y1="561.63" x2="825.11" y2="561.63"/><line class="cls-1" x1="903.29" y1="561.62" x2="1627.6" y2="561.62"/><line class="cls-1" x1="1714.97" y1="561.63" x2="1791.91" y2="561.63"/><line class="cls-1" x1="1866.73" y1="561.62" x2="2595.64" y2="561.62"/><line class="cls-1" x1="2673.82" y1="561.62" x2="2749.7" y2="561.62"/><line class="cls-1" x1="2834.78" y1="561.62" x2="3561.39" y2="561.62"/></g></g></svg>