<svg xmlns="http://www.w3.org/2000/svg" viewBox="0 0 3561.39 957.25"><defs><style>.cls-1{fill:none;stroke:#fff;stroke-miterlimit:10;stroke-width:6px;}</style></defs><g id="Слой_2" data-name="Слой 2"><g id="Слой_1-2" data-name="Слой 1"><path class="cls-1" d="M3040.3,321.48V469.77a181.77,181.77,0,0,1-170.56,118.88H738.85a181.77,181.77,0,0,1-170-117.32h.49V319.91h-.49a181.76,181.76,0,0,1,170-117.31H2869.74A181.77,181.77,0,0,1,3040.3,321.48Z"/><rect class="cls-1" x="1224.66" y="588.65" width="29.51" height="279.76"/><rect class="cls-1" x="2354.43" y="588.65" width="29.51" height="279.76"/><rect class="cls-1" x="1168.9" y="868.41" width="1270.8" height="85.84"/><path class="cls-1" d="M3127.31,395.62a91.51,91.51,0,0,0,9.16,40.05h-10.94v35.66H3040.3V319.91h85.23v35.66h10.95A91.62,91.62,0,0,0,3127.31,395.62Z"/><rect class="cls-1" x="3357.13" y="319.91" width="85.23" height="151.42"/><path class="cls-1" d="M3357.13,355.57v80.1h-55.28a92.13,92.13,0,0,0,0-80.1Z"/><path class="cls-1" d="M3311,395.62a91.79,91.79,0,1,1-9.17-40.05A91.5,91.5,0,0,1,3311,395.62Z"/><path class="cls-1" d="M3257.12,479.29V588.65H3181.2V479.29a92.17,92.17,0,0,0,75.92,0Z"/><rect class="cls-1" x="3159.12" y="588.65" width="120.08" height="61.57"/><polygon class="cls-1" points="3358.47 702.84 3358.47 761.61 3079.85 761.61 3079.85 702.84 3197.69 702.84 3197.69 650.22 3240.62 650.22 3240.62 702.84 3358.47 702.84"/><path class="cls-1" d="M569.39,319.91V471.33H484.16V435.67H473.22a92.09,92.09,0,0,0,0-80.1h11V319.91Z"/><rect class="cls-1" x="167.34" y="319.91" width="85.23" height="151.42"/><path class="cls-1" d="M252.56,355.57v80.1h55.28a92.13,92.13,0,0,1,0-80.1Z"/><path class="cls-1" d="M482.38,395.62a91.79,91.79,0,1,1-9.17-40.05A91.51,91.51,0,0,1,482.38,395.62Z"/><path class="cls-1" d="M352.57,479.29V588.65h75.92V479.29a92.17,92.17,0,0,1-75.92,0Z"/><rect class="cls-1" x="330.49" y="588.65" width="120.08" height="61.57"/><polygon class="cls-1" points="251.23 702.84 251.23 761.61 529.84 761.61 529.84 702.84 412 702.84 412 650.22 369.07 650.22 369.07 702.84 251.23 702.84"/><line class="cls-1" x1="390.53" x2="390.53" y2="911.33"/><line class="cls-1" x1="3219.16" x2="3219.16" y2="911.33"/><line class="cls-1" y1="395.62" x2="668.75" y2="395.62"/><line class="cls-1" x1="742.33" y1="395.62" x2="825.11" y2="395.62"/><line class="cls-1" x1="903.29" y1="395.63" x2="1627.6" y2="395.63"/><line class="cls-1" x1="1714.97" y1="395.62" x2="1791.91" y2="395.62"/><line class="cls-1" x1="1866.73" y1="395.63" x2="2595.64" y2="395.63"/><line class="cls-1" x1="2673.82" y1="395.63" x2="2749.7" y2="395.63"/><line class="cls-1" x1="2834.78" y1="395.63" x2="3561.39" y2="395.63"/></g></g></svg>