<svg xmlns="http://www.w3.org/2000/svg" viewBox="0 0 929.12 1831.34"><defs><style>.cls-1{fill:none;stroke:#fff;stroke-miterlimit:10;stroke-width:6px;}</style></defs><g id="Слой_2" data-name="Слой 2"><g id="Слой_1-2" data-name="Слой 1"><rect class="cls-1" x="3" y="519.24" width="923.12" height="986.81" rx="159.32"/><path class="cls-1" d="M711.29,270.68v88.47a61.57,61.57,0,0,0,61.53,61.56v98.54H156.3V419.84a61.57,61.57,0,0,0,61.56-61.57V269.81a61.58,61.58,0,0,0-61.56-61.57V108.83H772.82V209.12A61.56,61.56,0,0,0,711.29,270.68Z"/><rect class="cls-1" x="403" y="208.24" width="123.12" height="211.59" rx="61.56"/><rect class="cls-1" x="156.3" y="87.86" width="616.53" height="20.98"/><path class="cls-1" d="M811.14,1745H118a11.66,11.66,0,0,1-11.38-14.22L157,1506.05H772.13l50.4,224.73A11.67,11.67,0,0,1,811.14,1745Z"/><line class="cls-1" x1="464.56" x2="464.56" y2="419.83"/><line class="cls-1" x1="464.56" y1="519.24" x2="464.56" y2="608.01"/><line class="cls-1" x1="464.56" y1="695.57" x2="464.56" y2="1133.34"/><line class="cls-1" x1="464.56" y1="1228.19" x2="464.56" y2="1315.74"/><line class="cls-1" x1="464.56" y1="1403.3" x2="464.56" y2="1831.34"/></g></g></svg>