<svg xmlns="http://www.w3.org/2000/svg" viewBox="0 0 1011.66 1732.24"><defs><style>.cls-1{fill:none;stroke:#fff;stroke-miterlimit:10;stroke-width:6px;}</style></defs><g id="Слой_2" data-name="Слой 2"><g id="Слой_1-2" data-name="Слой 1"><path class="cls-1" d="M981.3,572.1V605H30.36V572.1c0-123.55,100.16-223.7,223.72-223.7h11.29V252.94h48V156.25h-48V60.86l52.85-26.2h60.24V348.4H633.21V34.66h60.24l52.85,26.2v95.39h-48v96.69h48V348.4h11.29C881.15,348.4,981.3,448.55,981.3,572.1Z"/><rect class="cls-1" x="30.36" y="654.83" width="950.94" height="740.55"/><path class="cls-1" d="M981.3,1445.25v34.08c0,123.56-100.15,223.72-223.71,223.72H254.08c-123.56,0-223.72-100.16-223.72-223.72v-34.08Z"/><rect class="cls-1" x="3" y="604.97" width="1005.66" height="49.87"/><rect class="cls-1" x="3" y="1395.39" width="1005.66" height="49.87"/><rect class="cls-1" x="474.65" y="322.45" width="62.42" height="25.94"/><rect class="cls-1" x="437.76" y="276.49" width="136.2" height="45.96"/><rect class="cls-1" x="474.65" y="261.75" width="62.42" height="14.74"/><rect class="cls-1" x="460.11" y="214.48" width="91.51" height="47.27"/><rect class="cls-1" x="484.27" y="156.26" width="43.17" height="58.22"/><rect class="cls-1" x="411.16" y="125.55" width="189.4" height="30.7"/><line class="cls-1" x1="506.64" x2="506.64" y2="426.83"/><line class="cls-1" x1="506.64" y1="501.61" x2="506.64" y2="572.75"/><line class="cls-1" x1="506.64" y1="641.45" x2="506.64" y2="1075.31"/><line class="cls-1" x1="506.64" y1="1143.67" x2="506.64" y2="1221.5"/><line class="cls-1" x1="505.02" y1="1290.85" x2="506.64" y2="1732.23"/></g></g></svg>