<svg width="974" height="358" viewBox="0 0 974 358" fill="none" xmlns="http://www.w3.org/2000/svg">
<path d="M129.5 161.5H143.5" stroke="white"/>
<path d="M78 161.5H119" stroke="white"/>
<path d="M52.5 161.5H66.5" stroke="white"/>
<path d="M0 161.5H42" stroke="white"/>
<path d="M208 161.5H222" stroke="white"/>
<path d="M156.5 161.5H197.5" stroke="white"/>
<path d="M131 161.5H145" stroke="white"/>
<path d="M78.5 161.5H120.5" stroke="white"/>
<path d="M286 161.5H300" stroke="white"/>
<path d="M234.5 161.5H275.5" stroke="white"/>
<path d="M209 161.5H223" stroke="white"/>
<path d="M156.5 161.5H198.5" stroke="white"/>
<path d="M364.5 161.5H378.5" stroke="white"/>
<path d="M313 161.5H354" stroke="white"/>
<path d="M287.5 161.5H301.5" stroke="white"/>
<path d="M235 161.5H277" stroke="white"/>
<path d="M443 161.5H457" stroke="white"/>
<path d="M391.5 161.5H432.5" stroke="white"/>
<path d="M366 161.5H380" stroke="white"/>
<path d="M313.5 161.5H355.5" stroke="white"/>
<path d="M521.5 161.5H535.5" stroke="white"/>
<path d="M470 161.5H511" stroke="white"/>
<path d="M444.5 161.5H458.5" stroke="white"/>
<path d="M392 161.5H434" stroke="white"/>
<path d="M599.5 161.5H613.5" stroke="white"/>
<path d="M548 161.5H589" stroke="white"/>
<path d="M522.5 161.5H536.5" stroke="white"/>
<path d="M470 161.5H512" stroke="white"/>
<path d="M678 161.5H692" stroke="white"/>
<path d="M626.5 161.5H667.5" stroke="white"/>
<path d="M601 161.5H615" stroke="white"/>
<path d="M548.5 161.5H590.5" stroke="white"/>
<path d="M443 161.5H457" stroke="white"/>
<path d="M391.5 161.5H432.5" stroke="white"/>
<path d="M366 161.5H380" stroke="white"/>
<path d="M313.5 161.5H355.5" stroke="white"/>
<path d="M521.5 161.5H535.5" stroke="white"/>
<path d="M470 161.5H511" stroke="white"/>
<path d="M444.5 161.5H458.5" stroke="white"/>
<path d="M392 161.5H434" stroke="white"/>
<path d="M599.5 161.5H613.5" stroke="white"/>
<path d="M548 161.5H589" stroke="white"/>
<path d="M522.5 161.5H536.5" stroke="white"/>
<path d="M470 161.5H512" stroke="white"/>
<path d="M678 161.5H692" stroke="white"/>
<path d="M626.5 161.5H667.5" stroke="white"/>
<path d="M601 161.5H615" stroke="white"/>
<path d="M548.5 161.5H590.5" stroke="white"/>
<path d="M756.5 161.5H770.5" stroke="white"/>
<path d="M705 161.5H746" stroke="white"/>
<path d="M679.5 161.5H693.5" stroke="white"/>
<path d="M627 161.5H669" stroke="white"/>
<path d="M835 161.5H849" stroke="white"/>
<path d="M783.5 161.5H824.5" stroke="white"/>
<path d="M758 161.5H772" stroke="white"/>
<path d="M705.5 161.5H747.5" stroke="white"/>
<path d="M913 161.5H927" stroke="white"/>
<path d="M861.5 161.5H902.5" stroke="white"/>
<path d="M836 161.5H850" stroke="white"/>
<path d="M783.5 161.5H825.5" stroke="white"/>
<path d="M937.5 161.5H973.5" stroke="white"/>
<path d="M862 161.5H904" stroke="white"/>
<path d="M51.1348 41.5C32.8349 41.5 18 95.2258 18 161.5C18 227.774 32.8349 281.5 51.1348 281.5H916" stroke="white"/>
<path d="M52.9795 281.5H916.5M52.5 41.5H916.021" stroke="white"/>
<path d="M916 281.5C935.054 281.5 950.5 227.774 950.5 161.5C950.5 95.2258 935.054 41.5 916 41.5" stroke="white"/>
<path d="M152 326H155M158 326H169M163.5 320.5V331.5M149 326L143.5 326L138 326" stroke="white"/>
<circle cx="164" cy="326.5" r="28.5" stroke="white"/>
<path d="M154.5 326H153" stroke="white"/>
<path d="M172 326H175M178 326H189M192 326H195M198 326H209M212 326H215M218 326H229" stroke="white"/>
<path d="M232 326H235" stroke="white"/>
<path d="M238 326H249M252 326H255M258 326H269" stroke="white"/>
<path d="M172 326H175M178 326H189M192 326H195M198 326H209M212 326H215M218 326H229" stroke="white"/>
<path d="M232 326H235" stroke="white"/>
<path d="M238 326H249M252 326H255M258 326H269" stroke="white"/>
<path d="M272 326H275M278 326H283.5M289 326H283.5M283.5 326V321V320.5M283.5 326V331.5" stroke="white"/>
<path d="M283.5 317.5V314.5M283.5 311.5V300.5M283.5 297.5V294.5" stroke="white"/>
<path d="M283.5 334.5V337.5M283.5 340.5V351.5M283.5 354.5V357.5M163.5 317.5V314.5M163.5 311.5V300.5" stroke="white"/>
<circle cx="29" cy="29" r="28.5" transform="matrix(-1 0 0 1 312.5 297.5)" stroke="white"/>
<path d="M293 326H295M298 326H309M312 326H315M135 326H134.5M132.5 326H134.5M134.5 326H135.5" stroke="white"/>
<path d="M275.5 326H272.5M269.5 326H258.5M255.5 326H252.5M249.5 326H238.5M235.5 326H232.5M229.5 326H218.5" stroke="white"/>
<path d="M275.5 326H272.5M269.5 326H258.5M255.5 326H252.5M249.5 326H238.5M235.5 326H232.5M229.5 326H218.5" stroke="white"/>
<path d="M195.5 334V309C195.5 306.791 197.291 305 199.5 305H248C250.209 305 252 306.791 252 309V334C252 336.209 250.209 338 248 338H199.5C197.291 338 195.5 336.209 195.5 334Z" stroke="white"/>
<path d="M240.465 318.5H208" stroke="white"/>
<path d="M197 306.5L204.538 316.854C205.29 317.888 206.492 318.5 207.771 318.5H237H207.147C206.238 318.5 205.362 317.984 204.687 317.05L197 306.5Z" stroke="white"/>
<path d="M251 306.5L243.462 316.854C242.71 317.888 241.508 318.5 240.229 318.5H211H240.853C241.762 318.5 242.638 317.984 243.313 317.05L251 306.5Z" stroke="white"/>
<path d="M197 306.5L181.983 294.389C181.663 294.131 181.305 293.924 180.922 293.775L166.05 287.992C164.513 287.394 163.5 285.913 163.5 284.264V281.5" stroke="white"/>
<path d="M251 306.5L266.249 294.383C266.569 294.129 266.925 293.926 267.306 293.78L282.431 287.984C283.978 287.391 285 285.906 285 284.249V281.5" stroke="white"/>
<path d="M673 277V41.5M673 277V277.5M673 277H670C667.791 277 666 278.791 666 281V281.5M673 277H679M679 41.5V276.819V277M679 277.5V277M679 277H682C684.209 277 686 278.791 686 281V281.5" stroke="white"/>
<path d="M181.5 294H266.5H447.5C449.709 294 451.5 295.791 451.5 298V304C451.5 306.209 453.291 308 455.5 308H486M292 326H293M450.5 295L451 294.5M520 294.5L520.5 295" stroke="white"/>
<path d="M163.5 334.5V337.5M163.5 340.5V351.5M163.5 354.5V357.5" stroke="white"/>
<path d="M819 326H816M813 326H802M807.5 320.5V331.5M822 326L827.5 326L833 326" stroke="white"/>
<circle cx="29" cy="29" r="28.5" transform="matrix(-1 0 0 1 836 297.5)" stroke="white"/>
<path d="M816.5 326H818" stroke="white"/>
<path d="M799 326H796M793 326H782M779 326H776M773 326H762M759 326H756M753 326H742" stroke="white"/>
<path d="M739 326H736" stroke="white"/>
<path d="M733 326H722M719 326H716M713 326H702" stroke="white"/>
<path d="M799 326H796M793 326H782M779 326H776M773 326H762M759 326H756M753 326H742" stroke="white"/>
<path d="M739 326H736" stroke="white"/>
<path d="M733 326H722M719 326H716M713 326H702" stroke="white"/>
<path d="M699 326H696M693 326H687.5M682 326H687.5M687.5 326V321V320.5M687.5 326V331.5" stroke="white"/>
<path d="M687.5 317.5V314.5M687.5 311.5V300.5M687.5 297.5V294.5" stroke="white"/>
<path d="M687.5 334.5V337.5M687.5 340.5V351.5M687.5 354.5V357.5M807.5 317.5V314.5M807.5 311.5V300.5" stroke="white"/>
<circle cx="687.5" cy="326.5" r="28.5" stroke="white"/>
<path d="M678 326H676M673 326H662M659 326H656M836 326H836.5M838.5 326H836.5M836.5 326H835.5" stroke="white"/>
<path d="M695.5 326H698.5M701.5 326H712.5M715.5 326H718.5M721.5 326H732.5M735.5 326H738.5M741.5 326H752.5" stroke="white"/>
<path d="M695.5 326H698.5M701.5 326H712.5M715.5 326H718.5M721.5 326H732.5M735.5 326H738.5M741.5 326H752.5" stroke="white"/>
<path d="M775.5 334V309C775.5 306.791 773.709 305 771.5 305H723C720.791 305 719 306.791 719 309V334C719 336.209 720.791 338 723 338H771.5C773.709 338 775.5 336.209 775.5 334Z" stroke="white"/>
<path d="M730.535 318.5H763" stroke="white"/>
<path d="M774 306.5L766.462 316.854C765.71 317.888 764.508 318.5 763.229 318.5H734H763.853C764.762 318.5 765.638 317.984 766.313 317.05L774 306.5Z" stroke="white"/>
<path d="M720 306.5L727.538 316.854C728.29 317.888 729.492 318.5 730.771 318.5H760H730.147C729.238 318.5 728.362 317.984 727.687 317.05L720 306.5Z" stroke="white"/>
<path d="M774 306.5L789.017 294.389C789.337 294.131 789.695 293.924 790.078 293.775L804.95 287.992C806.487 287.394 807.5 285.913 807.5 284.264V281.5" stroke="white"/>
<path d="M720 306.5L704.751 294.383C704.431 294.129 704.075 293.926 703.694 293.78L688.569 287.984C687.022 287.391 686 285.906 686 284.249V281.5" stroke="white"/>
<path d="M789.5 294H704.5H523.5C521.291 294 519.5 295.791 519.5 298V304C519.5 306.209 517.709 308 515.5 308H485M679 326H678" stroke="white"/>
<path d="M807.5 334.5V337.5M807.5 340.5V351.5M807.5 354.5V357.5" stroke="white"/>
<path d="M447 294H525.5M451.5 300.5V256M451.5 41.5V256M519.5 41.5V256M519.5 299.5V256M451.5 256H519.5" stroke="white"/>
<path d="M451.5 225H519.5M451.5 194H519.5M451.5 165H519.5M451.5 136H519.5M451.5 105H519.5M451.5 74H519.5" stroke="white"/>
<path d="M134.5 277V41.5M134.5 277V277.5M134.5 277H131.5C129.291 277 127.5 278.791 127.5 281V281.5M134.5 277H140.5M140.5 41.5V276.819V277M140.5 277.5V277M140.5 277H143.5C145.709 277 147.5 278.791 147.5 281V281.5" stroke="white"/>
<path d="M292 277V41.5M292 277V277.5M292 277H289C286.791 277 285 278.791 285 281V281.5M292 277H298M298 41.5V276.819V277M298 277.5V277M298 277H301C303.209 277 305 278.791 305 281V281.5" stroke="white"/>
<path d="M829 277V41.5M829 277V277.5M829 277H826C823.791 277 822 278.791 822 281V281.5M829 277H835M835 41.5V276.819V277M835 277.5V277M835 277H838C840.209 277 842 278.791 842 281V281.5" stroke="white"/>
<path d="M171.5 41.5V22.5C171.5 20.2909 173.291 18.5 175.5 18.5H256C258.209 18.5 260 20.2909 260 22.5V41.5" stroke="white"/>
<path d="M179 18.5V0.5" stroke="white"/>
<path d="M175 0.5H179H252.5M256.5 0.5H252.5M252.5 0.5V18.5" stroke="white"/>
<path d="M440 41.5V22.5C440 20.2909 441.791 18.5 444 18.5H524.5C526.709 18.5 528.5 20.2909 528.5 22.5V41.5" stroke="white"/>
<path d="M447.5 18.5V0.5" stroke="white"/>
<path d="M443.5 0.5H447.5H521M525 0.5H521M521 0.5V18.5" stroke="white"/>
<path d="M711 41.5V22.5C711 20.2909 712.791 18.5 715 18.5H795.5C797.709 18.5 799.5 20.2909 799.5 22.5V41.5" stroke="white"/>
<path d="M718.5 18.5V0.5" stroke="white"/>
<path d="M714.5 0.5H718.5H792M796 0.5H792M792 0.5V18.5" stroke="white"/>
<path d="M69 114H482.75H898.177" stroke="white"/>
<path d="M483 119.5V114" stroke="white"/>
<path d="M222 119V113.5" stroke="white"/>
<path d="M373 119V113.5" stroke="white"/>
<path d="M598 119V113.5" stroke="white"/>
<path d="M69.5 114L68.5 120" stroke="white"/>
<path d="M753 119V113.5" stroke="white"/>
<path d="M899 119L898 113.5" stroke="white"/>
</svg>
