<svg width="1007" height="2896" viewBox="0 0 1007 2896" fill="none" xmlns="http://www.w3.org/2000/svg">
<path d="M404.5 172.753C348.748 176.982 311.5 184.639 311.5 193.384C311.5 206.703 397.909 217.5 504.5 217.5C611.091 217.5 697.5 206.703 697.5 193.384C697.5 184.587 659.806 176.89 603.5 172.678" stroke="white" stroke-width="3"/>
<path d="M152 393.5C111.541 405.826 78.5 415.373 78.5 430.952C78.5 475.438 269.003 511.5 504 511.5C738.997 511.5 929.5 475.438 929.5 430.952C929.5 415.74 894.213 406.137 855.5 394" stroke="white" stroke-width="3"/>
<path d="M311.5 192.942V212.699C311.5 225.844 397.909 236.5 504.5 236.5C611.091 236.5 697.5 225.844 697.5 212.699V192.5" stroke="white" stroke-width="3"/>
<path d="M78.5 425.607V485.865C78.5 531.62 268.969 568.711 503.924 568.711C738.879 568.711 929.347 531.62 929.347 485.865V426.903" stroke="white" stroke-width="3"/>
<path d="M318.5 220C242.341 270.609 149.5 358.523 149.5 417.399C149.5 476.274 857.5 478.415 857.5 418.469C857.5 358.523 767.212 270.801 690 220" stroke="white" stroke-width="3"/>
<path d="M1005.5 571.701C1005.5 617.041 780.747 653.796 503.5 653.796C226.253 653.796 1.5 617.041 1.5 571.701" stroke="white" stroke-width="3"/>
<path d="M1.5 2752.55V2812.27C1.5 2857.61 226.253 2894.36 503.5 2894.36C780.747 2894.36 1005.5 2857.61 1005.5 2812.27V2753.84" stroke="white" stroke-width="3"/>
<path d="M1005.5 2778.23C1005.5 2823.57 780.747 2860.33 503.5 2860.33C226.253 2860.33 1.5 2823.57 1.5 2778.23" stroke="white" stroke-width="3"/>
<path d="M1005.5 605.582V545.869C1005.5 529.235 975.248 513.756 923.251 500.824M1.49997 604.297V545.869C1.49997 529.084 32.3021 513.476 85.1666 500.473" stroke="white" stroke-width="3"/>
<path d="M1005.5 2763.82V605.5" stroke="white" stroke-width="3"/>
<path d="M1.5 2776.58V605.5" stroke="white" stroke-width="3"/>
<path d="M1.5 2778V619.681" stroke="white" stroke-width="3"/>
<path d="M1.5 606.5V603.5" stroke="white" stroke-width="3"/>
<path d="M1005.5 542.212C1005.5 587.552 780.747 624.308 503.5 624.308C226.253 624.308 1.5 587.552 1.5 542.212" stroke="white" stroke-width="3"/>
<path d="M587.5 115.5L584.5 10.5" stroke="white" stroke-width="3"/>
<path d="M404.5 123.5V182.244C404.5 194.536 449.048 204.5 504 204.5C558.952 204.5 603.5 194.536 603.5 182.244V150.853M603.5 150.853C603.5 140.171 603.5 134.182 603.5 123.5V150.853Z" stroke="white" stroke-width="3"/>
<path d="M420.5 110.5V115.159C420.5 123.632 457.884 130.5 504 130.5C550.116 130.5 587.5 123.632 587.5 115.159V110.5" stroke="white" stroke-width="3"/>
<path d="M423.5 10.5V13.5284C423.5 19.0356 459.541 23.5 504 23.5C548.459 23.5 584.5 19.0356 584.5 13.5284V10.5" stroke="white" stroke-width="3"/>
<path d="M423.5 14.5V11.4716C423.5 5.96442 459.541 1.5 504 1.5C548.459 1.5 584.5 5.96442 584.5 11.4716V14.5" stroke="white" stroke-width="3"/>
<path d="M603.5 122.5C603.5 136.859 558.952 148.5 504 148.5C449.048 148.5 404.5 136.859 404.5 122.5" stroke="white" stroke-width="3"/>
<path d="M404.5 123.5C404.5 120.923 410.246 118.52 420.157 116.5M603.5 123.5C603.5 120.923 597.754 118.52 587.843 116.5" stroke="white" stroke-width="3"/>
<path d="M420.5 118.5L423.5 13.5" stroke="white" stroke-width="3"/>
<path d="M573 65C573 65 573.003 65.0004 573.008 65.002C573.013 65.0037 573.025 65.0076 573.041 65.0176C573.076 65.0389 573.128 65.0822 573.191 65.1631C573.321 65.3282 573.46 65.5986 573.586 65.9766C573.836 66.7274 574 67.7963 574 69C574 70.2037 573.836 71.2726 573.586 72.0234C573.46 72.4014 573.321 72.6718 573.191 72.8369C573.128 72.9178 573.076 72.9611 573.041 72.9824C573.025 72.9924 573.013 72.9963 573.008 72.998C573.003 72.9996 573 73 573 73C573 73 572.997 72.9996 572.992 72.998C572.987 72.9963 572.975 72.9924 572.959 72.9824C572.924 72.9611 572.872 72.9178 572.809 72.8369C572.679 72.6718 572.54 72.4014 572.414 72.0234C572.164 71.2726 572 70.2037 572 69C572 67.7963 572.164 66.7274 572.414 65.9766C572.54 65.5986 572.679 65.3282 572.809 65.1631C572.872 65.0822 572.924 65.0389 572.959 65.0176C572.975 65.0076 572.987 65.0037 572.992 65.002C572.997 65.0004 573 65 573 65Z" stroke="white"/>
<path d="M573.5 39C573.959 39 574.751 39.3529 575.748 40.876C576.705 42.3369 577.623 44.5499 578.418 47.4189C580.001 53.1364 581 61.1208 581 70C581 78.8792 580.001 86.8636 578.418 92.5811C577.623 95.4501 576.705 97.6631 575.748 99.124C574.751 100.647 573.959 101 573.5 101C573.041 101 572.249 100.647 571.252 99.124C570.295 97.6631 569.377 95.4501 568.582 92.5811C566.999 86.8636 566 78.8792 566 70C566 61.1208 566.999 53.1364 568.582 47.4189C569.377 44.5499 570.295 42.3369 571.252 40.876C572.249 39.3529 573.041 39 573.5 39Z" stroke="white" stroke-width="3"/>
</svg>
