<svg width="1099" height="464" viewBox="0 0 1099 464" fill="none" xmlns="http://www.w3.org/2000/svg">
<path d="M112.5 95H132M132 95V42H150.5H169M132 95H302V40.5M169 42V13H263.5V42H169Z" stroke="white" stroke-width="3"/>
<path d="M263.5 42H303" stroke="white" stroke-width="3"/>
<path d="M551.5 351H13V327H112H551.5M301.5 95H551.5" stroke="white" stroke-width="3"/>
<path d="M374 211H421M429 211H440" stroke="white" stroke-width="3"/>
<path d="M450 211H497M505 211H516" stroke="white" stroke-width="3"/>
<path d="M374 211H421M429 211H440" stroke="white" stroke-width="3"/>
<path d="M450 211H497M505 211H516" stroke="white" stroke-width="3"/>
<path d="M453 211H500M508 211H519" stroke="white" stroke-width="3"/>
<path d="M528 211H552.5" stroke="white" stroke-width="3"/>
<path d="M301 211H348M356 211H367" stroke="white" stroke-width="3"/>
<path d="M377 211H424M432 211H443" stroke="white" stroke-width="3"/>
<path d="M226 211H273M281 211H292" stroke="white" stroke-width="3"/>
<path d="M217 148V195M217 203V214" stroke="white" stroke-width="3"/>
<path d="M217 224V271M217 279V290" stroke="white" stroke-width="3"/>
<path d="M217 148V195M217 203V214" stroke="white" stroke-width="3"/>
<path d="M217 224V271M217 279V290" stroke="white" stroke-width="3"/>
<path d="M217 227V274M217 282V293" stroke="white" stroke-width="3"/>
<path d="M217 303V326.5V345.5" stroke="white" stroke-width="3"/>
<path d="M217 75V122M217 130V141" stroke="white" stroke-width="3"/>
<path d="M217 151V198M217 206V217" stroke="white" stroke-width="3"/>
<path d="M217 0V47M217 55V66" stroke="white" stroke-width="3"/>
<path d="M75 211H122M130 211H141" stroke="white" stroke-width="3"/>
<path d="M151 211H198M206 211H217" stroke="white" stroke-width="3"/>
<path d="M0 211H47M55 211H66" stroke="white" stroke-width="3"/>
<path d="M113 327C57.2192 327 12 275.065 12 211C12 146.935 57.2192 95 113 95" stroke="white" stroke-width="3"/>
<path d="M63 365.5C89.7858 365.5 111.5 387.214 111.5 414C111.5 440.786 89.7858 462.5 63 462.5C36.2142 462.5 14.5 440.786 14.5 414C14.5 387.214 36.2142 365.5 63 365.5Z" stroke="white" stroke-width="3"/>
<path d="M232 365.5C258.786 365.5 280.5 387.214 280.5 414C280.5 440.786 258.786 462.5 232 462.5C205.214 462.5 183.5 440.786 183.5 414C183.5 387.214 205.214 365.5 232 365.5Z" stroke="white" stroke-width="3"/>
<path d="M301 94.5C301 132.332 263.392 163 217 163C170.608 163 133 132.332 133 94.5" stroke="white" stroke-width="2"/>
<path d="M178.5 43.5V327" stroke="white" stroke-width="3"/>
<path d="M255 43V326.5" stroke="white" stroke-width="3"/>
<path d="M178.5 285.5H255" stroke="white" stroke-width="3"/>
<path d="M178.5 285.5H255" stroke="white" stroke-width="3"/>
<path d="M177 243H253.5" stroke="white" stroke-width="3"/>
<path d="M179.5 113.5H256" stroke="white" stroke-width="3"/>
<path d="M178 71H254.5" stroke="white" stroke-width="3"/>
<path d="M178.5 156.5H255" stroke="white" stroke-width="3"/>
<path d="M177 114H253.5" stroke="white" stroke-width="3"/>
<path d="M179.5 242.5H256" stroke="white" stroke-width="3"/>
<path d="M178 200H254.5" stroke="white" stroke-width="3"/>
<path d="M178.5 199.5H255" stroke="white" stroke-width="3"/>
<path d="M177 157H253.5" stroke="white" stroke-width="3"/>
<path d="M176 409.5L173.5 440H122.5L120 408.5" stroke="white" stroke-width="3"/>
<path d="M57 414H69M123 414H135M138 414H142M145 414H157M167 414H179M160 414H164" stroke="white" stroke-width="2"/>
<path d="M63 414V408V420V414Z" stroke="white" stroke-width="2"/>
<path d="M19 351C19 363.302 19 366.198 19 378.5V379" stroke="white" stroke-width="3"/>
<path d="M277.5 350C277.5 362.302 277 364.698 277 377" stroke="white" stroke-width="3"/>
<path d="M72 414H76" stroke="white" stroke-width="2"/>
<path d="M79 414H83H87H91" stroke="white" stroke-width="2"/>
<path d="M72 414H76M79 414H83H87H91" stroke="white" stroke-width="2"/>
<path d="M79 414H83H87H91" stroke="white" stroke-width="2"/>
<path d="M72 414H76" stroke="white" stroke-width="2"/>
<path d="M79 414H83H87H91" stroke="white" stroke-width="2"/>
<path d="M72 414H76M79 414H83H87H91" stroke="white" stroke-width="2"/>
<path d="M94 414H98" stroke="white" stroke-width="2"/>
<path d="M101 414H113" stroke="white" stroke-width="2"/>
<path d="M72 414H76" stroke="white" stroke-width="2"/>
<path d="M79 414H83H87H91" stroke="white" stroke-width="2"/>
<path d="M72 414H76M79 414H83H87H91" stroke="white" stroke-width="2"/>
<path d="M79 414H83H87H91" stroke="white" stroke-width="2"/>
<path d="M72 414H76" stroke="white" stroke-width="2"/>
<path d="M79 414H83H87H91" stroke="white" stroke-width="2"/>
<path d="M72 414H76M79 414H83H87H91" stroke="white" stroke-width="2"/>
<path d="M94 414H98" stroke="white" stroke-width="2"/>
<path d="M101 414H113" stroke="white" stroke-width="2"/>
<path d="M116 414H120" stroke="white" stroke-width="2"/>
<path d="M123 414H135" stroke="white" stroke-width="2"/>
<path d="M138 414H142" stroke="white" stroke-width="2"/>
<path d="M145 414H157" stroke="white" stroke-width="2"/>
<path d="M116 414H120" stroke="white" stroke-width="2"/>
<path d="M138 414H142" stroke="white" stroke-width="2"/>
<path d="M145 414H157" stroke="white" stroke-width="2"/>
<path d="M138 414H142" stroke="white" stroke-width="2"/>
<path d="M145 414H157" stroke="white" stroke-width="2"/>
<path d="M138 414H142" stroke="white" stroke-width="2"/>
<path d="M138 414H142" stroke="white" stroke-width="2"/>
<path d="M145 414H157" stroke="white" stroke-width="2"/>
<path d="M138 414H142" stroke="white" stroke-width="2"/>
<path d="M167 414H179M138 414H142" stroke="white" stroke-width="2"/>
<path d="M138 414H142" stroke="white" stroke-width="2"/>
<path d="M138 414H142" stroke="white" stroke-width="2"/>
<path d="M160 414H164" stroke="white" stroke-width="2"/>
<path d="M135 414H123M69 414H57M54 414H50M47 414H35M25 414H13M32 414H28" stroke="white" stroke-width="2"/>
<path d="M69 414H57" stroke="white" stroke-width="2"/>
<path d="M54 414H50" stroke="white" stroke-width="2"/>
<path d="M47 414H35" stroke="white" stroke-width="2"/>
<path d="M54 414H50" stroke="white" stroke-width="2"/>
<path d="M47 414H35" stroke="white" stroke-width="2"/>
<path d="M54 414H50" stroke="white" stroke-width="2"/>
<path d="M47 414H35" stroke="white" stroke-width="2"/>
<path d="M54 414H50" stroke="white" stroke-width="2"/>
<path d="M54 414H50" stroke="white" stroke-width="2"/>
<path d="M47 414H35" stroke="white" stroke-width="2"/>
<path d="M54 414H50" stroke="white" stroke-width="2"/>
<path d="M25 414H13M54 414H50" stroke="white" stroke-width="2"/>
<path d="M54 414H50" stroke="white" stroke-width="2"/>
<path d="M54 414H50" stroke="white" stroke-width="2"/>
<path d="M32 414H28" stroke="white" stroke-width="2"/>
<path d="M63 386V398" stroke="white" stroke-width="2"/>
<path d="M63 401V405" stroke="white" stroke-width="2"/>
<path d="M63 408V420" stroke="white" stroke-width="2"/>
<path d="M63 401V405" stroke="white" stroke-width="2"/>
<path d="M63 408V420" stroke="white" stroke-width="2"/>
<path d="M63 401V405" stroke="white" stroke-width="2"/>
<path d="M63 408V420" stroke="white" stroke-width="2"/>
<path d="M63 401V405" stroke="white" stroke-width="2"/>
<path d="M63 401V405" stroke="white" stroke-width="2"/>
<path d="M63 408V420" stroke="white" stroke-width="2"/>
<path d="M63 401V405" stroke="white" stroke-width="2"/>
<path d="M63 430V442M63 401V405" stroke="white" stroke-width="2"/>
<path d="M63 401V405" stroke="white" stroke-width="2"/>
<path d="M63 401V405" stroke="white" stroke-width="2"/>
<path d="M63 386V398" stroke="white" stroke-width="2"/>
<path d="M63 401V405" stroke="white" stroke-width="2"/>
<path d="M63 401V405" stroke="white" stroke-width="2"/>
<path d="M63 401V405" stroke="white" stroke-width="2"/>
<path d="M63 401V405" stroke="white" stroke-width="2"/>
<path d="M63 401V405" stroke="white" stroke-width="2"/>
<path d="M63 401V405" stroke="white" stroke-width="2"/>
<path d="M63 430V442M63 401V405" stroke="white" stroke-width="2"/>
<path d="M63 401V405" stroke="white" stroke-width="2"/>
<path d="M63 401V405" stroke="white" stroke-width="2"/>
<path d="M63 414V408V420V414Z" stroke="white" stroke-width="2"/>
<path d="M63 386V398" stroke="white" stroke-width="2"/>
<path d="M63 401V405" stroke="white" stroke-width="2"/>
<path d="M63 408V420" stroke="white" stroke-width="2"/>
<path d="M63 401V405" stroke="white" stroke-width="2"/>
<path d="M63 408V420" stroke="white" stroke-width="2"/>
<path d="M63 401V405" stroke="white" stroke-width="2"/>
<path d="M63 408V420" stroke="white" stroke-width="2"/>
<path d="M63 401V405" stroke="white" stroke-width="2"/>
<path d="M63 401V405" stroke="white" stroke-width="2"/>
<path d="M63 408V420" stroke="white" stroke-width="2"/>
<path d="M63 401V405" stroke="white" stroke-width="2"/>
<path d="M63 430V442M63 401V405" stroke="white" stroke-width="2"/>
<path d="M63 401V405" stroke="white" stroke-width="2"/>
<path d="M63 401V405" stroke="white" stroke-width="2"/>
<path d="M63 386V398" stroke="white" stroke-width="2"/>
<path d="M63 401V405" stroke="white" stroke-width="2"/>
<path d="M63 401V405" stroke="white" stroke-width="2"/>
<path d="M63 401V405" stroke="white" stroke-width="2"/>
<path d="M63 401V405" stroke="white" stroke-width="2"/>
<path d="M63 401V405" stroke="white" stroke-width="2"/>
<path d="M63 401V405" stroke="white" stroke-width="2"/>
<path d="M63 430V442M63 401V405" stroke="white" stroke-width="2"/>
<path d="M63 401V405" stroke="white" stroke-width="2"/>
<path d="M63 401V405" stroke="white" stroke-width="2"/>
<path d="M63 423V427" stroke="white" stroke-width="2"/>
<path d="M63 430V442M63 401V405" stroke="white" stroke-width="2"/>
<path d="M63 430V442M63 401V405" stroke="white" stroke-width="2"/>
<path d="M63 430V442M63 401V405" stroke="white" stroke-width="2"/>
<path d="M63 386V398M63 401V405M63 408V420M63 430V442M63 423V427" stroke="white" stroke-width="2"/>
<path d="M63 430V442M63 401V405M63 386V398M63 408L63 420M63 423V427" stroke="white" stroke-width="2"/>
<path d="M63 386V398M63 401V405M63 408V420M63 430V442M63 423V427" stroke="white" stroke-width="2"/>
<path d="M63 386V398" stroke="white" stroke-width="2"/>
<path d="M63 401V405" stroke="white" stroke-width="2"/>
<path d="M63 401V405" stroke="white" stroke-width="2"/>
<path d="M63 401V405" stroke="white" stroke-width="2"/>
<path d="M63 401V405" stroke="white" stroke-width="2"/>
<path d="M63 401V405" stroke="white" stroke-width="2"/>
<path d="M63 401V405" stroke="white" stroke-width="2"/>
<path d="M63 430V442M63 401V405" stroke="white" stroke-width="2"/>
<path d="M63 401V405" stroke="white" stroke-width="2"/>
<path d="M63 401V405" stroke="white" stroke-width="2"/>
<path d="M63 386V398M63 401V405M63 408V420M63 430V442M63 423V427" stroke="white" stroke-width="2"/>
<path d="M63 386V398" stroke="white" stroke-width="2"/>
<path d="M63 401V405" stroke="white" stroke-width="2"/>
<path d="M63 401V405" stroke="white" stroke-width="2"/>
<path d="M63 401V405" stroke="white" stroke-width="2"/>
<path d="M63 401V405" stroke="white" stroke-width="2"/>
<path d="M63 401V405" stroke="white" stroke-width="2"/>
<path d="M63 401V405" stroke="white" stroke-width="2"/>
<path d="M63 430V442M63 401V405" stroke="white" stroke-width="2"/>
<path d="M63 401V405" stroke="white" stroke-width="2"/>
<path d="M63 401V405" stroke="white" stroke-width="2"/>
<path d="M63 386V398M63 401V405M63 408V420M63 430V442M63 423V427" stroke="white" stroke-width="2"/>
<path d="M63 386V398" stroke="white" stroke-width="2"/>
<path d="M63 401V405" stroke="white" stroke-width="2"/>
<path d="M63 401V405" stroke="white" stroke-width="2"/>
<path d="M63 401V405" stroke="white" stroke-width="2"/>
<path d="M63 401V405" stroke="white" stroke-width="2"/>
<path d="M63 401V405" stroke="white" stroke-width="2"/>
<path d="M63 401V405" stroke="white" stroke-width="2"/>
<path d="M63 430V442M63 401V405" stroke="white" stroke-width="2"/>
<path d="M63 401V405" stroke="white" stroke-width="2"/>
<path d="M63 401V405" stroke="white" stroke-width="2"/>
<path d="M63 386V398" stroke="white" stroke-width="2"/>
<path d="M63 401V405" stroke="white" stroke-width="2"/>
<path d="M63 401V405" stroke="white" stroke-width="2"/>
<path d="M63 401V405" stroke="white" stroke-width="2"/>
<path d="M63 401V405" stroke="white" stroke-width="2"/>
<path d="M63 401V405" stroke="white" stroke-width="2"/>
<path d="M63 401V405" stroke="white" stroke-width="2"/>
<path d="M63 430V442M63 401V405" stroke="white" stroke-width="2"/>
<path d="M63 401V405" stroke="white" stroke-width="2"/>
<path d="M63 401V405" stroke="white" stroke-width="2"/>
<path d="M63 386V398M63 401V405M63 408V420M63 430V442M63 423V427" stroke="white" stroke-width="2"/>
<path d="M63 430V442M63 401V405" stroke="white" stroke-width="2"/>
<path d="M63 430V442M63 401V405" stroke="white" stroke-width="2"/>
<path d="M63 386V398M63 401V405M63 408V420M63 430V442M63 423V427" stroke="white" stroke-width="2"/>
<path d="M63 430V442M63 401V405" stroke="white" stroke-width="2"/>
<path d="M63 364V376M63 379V383M63 386V398M63 408V420M63 401V405" stroke="white" stroke-width="2"/>
<path d="M63 445V449" stroke="white" stroke-width="2"/>
<path d="M145 414H157M211 414H223M226 414H230M233 414H245M255 414H267M248 414H252" stroke="white" stroke-width="2"/>
<path d="M211 414H223" stroke="white" stroke-width="2"/>
<path d="M226 414H230" stroke="white" stroke-width="2"/>
<path d="M233 414H245" stroke="white" stroke-width="2"/>
<path d="M226 414H230" stroke="white" stroke-width="2"/>
<path d="M233 414H245" stroke="white" stroke-width="2"/>
<path d="M226 414H230" stroke="white" stroke-width="2"/>
<path d="M233 414H245" stroke="white" stroke-width="2"/>
<path d="M226 414H230" stroke="white" stroke-width="2"/>
<path d="M226 414H230" stroke="white" stroke-width="2"/>
<path d="M233 414H245" stroke="white" stroke-width="2"/>
<path d="M226 414H230" stroke="white" stroke-width="2"/>
<path d="M255 414H267M226 414H230" stroke="white" stroke-width="2"/>
<path d="M226 414H230" stroke="white" stroke-width="2"/>
<path d="M226 414H230" stroke="white" stroke-width="2"/>
<path d="M248 414H252" stroke="white" stroke-width="2"/>
<path d="M167 414H179" stroke="white" stroke-width="2"/>
<path d="M182 414H186" stroke="white" stroke-width="2"/>
<path d="M189 414H201" stroke="white" stroke-width="2"/>
<path d="M182 414H186" stroke="white" stroke-width="2"/>
<path d="M189 414H201" stroke="white" stroke-width="2"/>
<path d="M182 414H186" stroke="white" stroke-width="2"/>
<path d="M189 414H201" stroke="white" stroke-width="2"/>
<path d="M182 414H186" stroke="white" stroke-width="2"/>
<path d="M182 414H186" stroke="white" stroke-width="2"/>
<path d="M182 414H186" stroke="white" stroke-width="2"/>
<path d="M211 414H223M182 414H186" stroke="white" stroke-width="2"/>
<path d="M182 414H186" stroke="white" stroke-width="2"/>
<path d="M204 414H208" stroke="white" stroke-width="2"/>
<path d="M63 452V462" stroke="white" stroke-width="2"/>
<path d="M232 414V408V420V414Z" stroke="white" stroke-width="2"/>
<path d="M238 414H226" stroke="white" stroke-width="2"/>
<path d="M232 386V398" stroke="white" stroke-width="2"/>
<path d="M232 401V405" stroke="white" stroke-width="2"/>
<path d="M232 408V420" stroke="white" stroke-width="2"/>
<path d="M232 401V405" stroke="white" stroke-width="2"/>
<path d="M232 408V420" stroke="white" stroke-width="2"/>
<path d="M232 401V405" stroke="white" stroke-width="2"/>
<path d="M232 408V420" stroke="white" stroke-width="2"/>
<path d="M232 401V405" stroke="white" stroke-width="2"/>
<path d="M232 401V405" stroke="white" stroke-width="2"/>
<path d="M232 408V420" stroke="white" stroke-width="2"/>
<path d="M232 401V405" stroke="white" stroke-width="2"/>
<path d="M232 430V442M232 401V405" stroke="white" stroke-width="2"/>
<path d="M232 401V405" stroke="white" stroke-width="2"/>
<path d="M232 401V405" stroke="white" stroke-width="2"/>
<path d="M232 386V398" stroke="white" stroke-width="2"/>
<path d="M232 401V405" stroke="white" stroke-width="2"/>
<path d="M232 401V405" stroke="white" stroke-width="2"/>
<path d="M232 401V405" stroke="white" stroke-width="2"/>
<path d="M232 401V405" stroke="white" stroke-width="2"/>
<path d="M232 401V405" stroke="white" stroke-width="2"/>
<path d="M232 401V405" stroke="white" stroke-width="2"/>
<path d="M232 430V442M232 401V405" stroke="white" stroke-width="2"/>
<path d="M232 401V405" stroke="white" stroke-width="2"/>
<path d="M232 401V405" stroke="white" stroke-width="2"/>
<path d="M232 414V408V420V414Z" stroke="white" stroke-width="2"/>
<path d="M232 386V398" stroke="white" stroke-width="2"/>
<path d="M232 401V405" stroke="white" stroke-width="2"/>
<path d="M232 408V420" stroke="white" stroke-width="2"/>
<path d="M232 401V405" stroke="white" stroke-width="2"/>
<path d="M232 408V420" stroke="white" stroke-width="2"/>
<path d="M232 401V405" stroke="white" stroke-width="2"/>
<path d="M232 408V420" stroke="white" stroke-width="2"/>
<path d="M232 401V405" stroke="white" stroke-width="2"/>
<path d="M232 401V405" stroke="white" stroke-width="2"/>
<path d="M232 408V420" stroke="white" stroke-width="2"/>
<path d="M232 401V405" stroke="white" stroke-width="2"/>
<path d="M232 430V442M232 401V405" stroke="white" stroke-width="2"/>
<path d="M232 401V405" stroke="white" stroke-width="2"/>
<path d="M232 401V405" stroke="white" stroke-width="2"/>
<path d="M232 386V398" stroke="white" stroke-width="2"/>
<path d="M232 401V405" stroke="white" stroke-width="2"/>
<path d="M232 401V405" stroke="white" stroke-width="2"/>
<path d="M232 401V405" stroke="white" stroke-width="2"/>
<path d="M232 401V405" stroke="white" stroke-width="2"/>
<path d="M232 401V405" stroke="white" stroke-width="2"/>
<path d="M232 401V405" stroke="white" stroke-width="2"/>
<path d="M232 430V442M232 401V405" stroke="white" stroke-width="2"/>
<path d="M232 401V405" stroke="white" stroke-width="2"/>
<path d="M232 401V405" stroke="white" stroke-width="2"/>
<path d="M232 423V427" stroke="white" stroke-width="2"/>
<path d="M232 430V442M232 401V405" stroke="white" stroke-width="2"/>
<path d="M232 430V442M232 401V405" stroke="white" stroke-width="2"/>
<path d="M232 430V442M232 401V405" stroke="white" stroke-width="2"/>
<path d="M232 386V398M232 401V405M232 408V420M232 430V442M232 423V427" stroke="white" stroke-width="2"/>
<path d="M232 430V442M232 401V405M232 386V398M232 408V420M232 423V427" stroke="white" stroke-width="2"/>
<path d="M232 386V398M232 401V405M232 408V420M232 430V442M232 423V427" stroke="white" stroke-width="2"/>
<path d="M232 386V398" stroke="white" stroke-width="2"/>
<path d="M232 401V405" stroke="white" stroke-width="2"/>
<path d="M232 401V405" stroke="white" stroke-width="2"/>
<path d="M232 401V405" stroke="white" stroke-width="2"/>
<path d="M232 401V405" stroke="white" stroke-width="2"/>
<path d="M232 401V405" stroke="white" stroke-width="2"/>
<path d="M232 401V405" stroke="white" stroke-width="2"/>
<path d="M232 430V442M232 401V405" stroke="white" stroke-width="2"/>
<path d="M232 401V405" stroke="white" stroke-width="2"/>
<path d="M232 401V405" stroke="white" stroke-width="2"/>
<path d="M232 386V398M232 401V405M232 408V420M232 430V442M232 423V427" stroke="white" stroke-width="2"/>
<path d="M232 386V398" stroke="white" stroke-width="2"/>
<path d="M232 401V405" stroke="white" stroke-width="2"/>
<path d="M232 401V405" stroke="white" stroke-width="2"/>
<path d="M232 401V405" stroke="white" stroke-width="2"/>
<path d="M232 401V405" stroke="white" stroke-width="2"/>
<path d="M232 401V405" stroke="white" stroke-width="2"/>
<path d="M232 401V405" stroke="white" stroke-width="2"/>
<path d="M232 430V442M232 401V405" stroke="white" stroke-width="2"/>
<path d="M232 401V405" stroke="white" stroke-width="2"/>
<path d="M232 401V405" stroke="white" stroke-width="2"/>
<path d="M232 386V398M232 401V405M232 408V420M232 430V442M232 423V427" stroke="white" stroke-width="2"/>
<path d="M232 386V398" stroke="white" stroke-width="2"/>
<path d="M232 401V405" stroke="white" stroke-width="2"/>
<path d="M232 401V405" stroke="white" stroke-width="2"/>
<path d="M232 401V405" stroke="white" stroke-width="2"/>
<path d="M232 401V405" stroke="white" stroke-width="2"/>
<path d="M232 401V405" stroke="white" stroke-width="2"/>
<path d="M232 401V405" stroke="white" stroke-width="2"/>
<path d="M232 430V442M232 401V405" stroke="white" stroke-width="2"/>
<path d="M232 401V405" stroke="white" stroke-width="2"/>
<path d="M232 401V405" stroke="white" stroke-width="2"/>
<path d="M232 386V398" stroke="white" stroke-width="2"/>
<path d="M232 401V405" stroke="white" stroke-width="2"/>
<path d="M232 401V405" stroke="white" stroke-width="2"/>
<path d="M232 401V405" stroke="white" stroke-width="2"/>
<path d="M232 401V405" stroke="white" stroke-width="2"/>
<path d="M232 401V405" stroke="white" stroke-width="2"/>
<path d="M232 401V405" stroke="white" stroke-width="2"/>
<path d="M232 430V442M232 401V405" stroke="white" stroke-width="2"/>
<path d="M232 401V405" stroke="white" stroke-width="2"/>
<path d="M232 401V405" stroke="white" stroke-width="2"/>
<path d="M232 386V398M232 401V405M232 408V420M232 430V442M232 423V427" stroke="white" stroke-width="2"/>
<path d="M232 430V442M232 401V405" stroke="white" stroke-width="2"/>
<path d="M232 430V442M232 401V405" stroke="white" stroke-width="2"/>
<path d="M232 386V398M232 401V405M232 408V420M232 430V442M232 423V427" stroke="white" stroke-width="2"/>
<path d="M232 430V442M232 401V405" stroke="white" stroke-width="2"/>
<path d="M232 364V376M232 379V383M232 386V398M232 408V420M232 401V405" stroke="white" stroke-width="2"/>
<path d="M232 445V449" stroke="white" stroke-width="2"/>
<path d="M232 408V420M232 423V427M232 430V442M232 452V464M232 445V449" stroke="white" stroke-width="2"/>
<path d="M232 452V464M232 423V427" stroke="white" stroke-width="2"/>
<path d="M572.5 211H548" stroke="white" stroke-width="3"/>
<path d="M120 409C120 375.863 95.2417 356.5 61 356.5C37.7825 356.5 29.7909 366.952 19.5 378" stroke="white" stroke-width="3"/>
<path d="M176 410.5C176 377.363 200.758 356.5 235 356.5C258.218 356.5 267.209 366.951 277.5 378" stroke="white" stroke-width="3"/>
<path d="M270 414H273" stroke="white" stroke-width="2"/>
<path d="M986 95H966.5M966.5 95V42H948H929.5M966.5 95H796.5V40.5M929.5 42V13H835V42H929.5Z" stroke="white" stroke-width="3"/>
<path d="M835 42H795.5" stroke="white" stroke-width="3"/>
<path d="M547 351H1085.5V327H986.5H547M797 95H547" stroke="white" stroke-width="3"/>
<path d="M724.5 211H677.5M669.5 211H658.5" stroke="white" stroke-width="3"/>
<path d="M648.5 211H601.5M593.5 211H582.5" stroke="white" stroke-width="3"/>
<path d="M724.5 211H677.5M669.5 211H658.5" stroke="white" stroke-width="3"/>
<path d="M648.5 211H601.5M593.5 211H582.5" stroke="white" stroke-width="3"/>
<path d="M645.5 211H598.5M590.5 211H579.5" stroke="white" stroke-width="3"/>
<path d="M570.5 211H546" stroke="white" stroke-width="3"/>
<path d="M797.5 211H750.5M742.5 211H731.5" stroke="white" stroke-width="3"/>
<path d="M721.5 211H674.5M666.5 211H655.5" stroke="white" stroke-width="3"/>
<path d="M872.5 211H825.5M817.5 211H806.5" stroke="white" stroke-width="3"/>
<path d="M881.5 148V195M881.5 203V214" stroke="white" stroke-width="3"/>
<path d="M881.5 224V271M881.5 279V290" stroke="white" stroke-width="3"/>
<path d="M881.5 148V195M881.5 203V214" stroke="white" stroke-width="3"/>
<path d="M881.5 224V271M881.5 279V290" stroke="white" stroke-width="3"/>
<path d="M881.5 227V274M881.5 282V293" stroke="white" stroke-width="3"/>
<path d="M881.5 303V326.5V346" stroke="white" stroke-width="3"/>
<path d="M881.5 75V122M881.5 130V141" stroke="white" stroke-width="3"/>
<path d="M881.5 151V198M881.5 206V217" stroke="white" stroke-width="3"/>
<path d="M881.5 0V47M881.5 55V66" stroke="white" stroke-width="3"/>
<path d="M1023.5 211H976.5M968.5 211H957.5" stroke="white" stroke-width="3"/>
<path d="M947.5 211H900.5M892.5 211H881.5" stroke="white" stroke-width="3"/>
<path d="M1098.5 211H1051.5M1043.5 211H1032.5" stroke="white" stroke-width="3"/>
<path d="M985.5 327C1041.28 327 1086.5 275.065 1086.5 211C1086.5 146.935 1041.28 95 985.5 95" stroke="white" stroke-width="3"/>
<path d="M1035.5 365.5C1008.71 365.5 987 387.214 987 414C987 440.786 1008.71 462.5 1035.5 462.5C1062.29 462.5 1084 440.786 1084 414C1084 387.214 1062.29 365.5 1035.5 365.5Z" stroke="white" stroke-width="3"/>
<path d="M866.5 365.5C839.714 365.5 818 387.214 818 414C818 440.786 839.714 462.5 866.5 462.5C893.286 462.5 915 440.786 915 414C915 387.214 893.286 365.5 866.5 365.5Z" stroke="white" stroke-width="3"/>
<path d="M797.5 94.5C797.5 132.332 835.108 163 881.5 163C927.892 163 965.5 132.332 965.5 94.5" stroke="white" stroke-width="2"/>
<path d="M920 43.5V327" stroke="white" stroke-width="3"/>
<path d="M843.5 43V326.5" stroke="white" stroke-width="3"/>
<path d="M920 285.5H843.5" stroke="white" stroke-width="3"/>
<path d="M920 285.5H843.5" stroke="white" stroke-width="3"/>
<path d="M921.5 243H845" stroke="white" stroke-width="3"/>
<path d="M919 113.5H842.5" stroke="white" stroke-width="3"/>
<path d="M920.5 71H844" stroke="white" stroke-width="3"/>
<path d="M920 156.5H843.5" stroke="white" stroke-width="3"/>
<path d="M921.5 114H845" stroke="white" stroke-width="3"/>
<path d="M919 242.5H842.5" stroke="white" stroke-width="3"/>
<path d="M920.5 200H844" stroke="white" stroke-width="3"/>
<path d="M920 199.5H843.5" stroke="white" stroke-width="3"/>
<path d="M921.5 157H845" stroke="white" stroke-width="3"/>
<path d="M922.5 409.5L925 440H976L978.5 408.5" stroke="white" stroke-width="3"/>
<path d="M1041.5 414H1029.5M975.5 414H963.5M960.5 414H956.5M953.5 414H941.5M931.5 414H919.5M938.5 414H934.5" stroke="white" stroke-width="2"/>
<path d="M1035.5 414V408V420V414Z" stroke="white" stroke-width="2"/>
<path d="M1079.5 351C1079.5 363.302 1079.5 366.198 1079.5 378.5V379" stroke="white" stroke-width="3"/>
<path d="M821 350C821 362.302 821.5 364.698 821.5 377" stroke="white" stroke-width="3"/>
<path d="M1026.5 414H1022.5" stroke="white" stroke-width="2"/>
<path d="M1019.5 414H1015.5H1011.5H1007.5" stroke="white" stroke-width="2"/>
<path d="M1026.5 414H1022.5M1019.5 414H1015.5H1011.5H1007.5" stroke="white" stroke-width="2"/>
<path d="M1019.5 414H1015.5H1011.5H1007.5" stroke="white" stroke-width="2"/>
<path d="M1026.5 414H1022.5" stroke="white" stroke-width="2"/>
<path d="M1019.5 414H1015.5H1011.5H1007.5" stroke="white" stroke-width="2"/>
<path d="M1026.5 414H1022.5M1019.5 414H1015.5H1011.5H1007.5" stroke="white" stroke-width="2"/>
<path d="M1004.5 414H1000.5" stroke="white" stroke-width="2"/>
<path d="M997.5 414H985.5" stroke="white" stroke-width="2"/>
<path d="M1026.5 414H1022.5" stroke="white" stroke-width="2"/>
<path d="M1019.5 414H1015.5H1011.5H1007.5" stroke="white" stroke-width="2"/>
<path d="M1026.5 414H1022.5M1019.5 414H1015.5H1011.5H1007.5" stroke="white" stroke-width="2"/>
<path d="M1019.5 414H1015.5H1011.5H1007.5" stroke="white" stroke-width="2"/>
<path d="M1026.5 414H1022.5" stroke="white" stroke-width="2"/>
<path d="M1019.5 414H1015.5H1011.5H1007.5" stroke="white" stroke-width="2"/>
<path d="M1026.5 414H1022.5M1019.5 414H1015.5H1011.5H1007.5" stroke="white" stroke-width="2"/>
<path d="M1004.5 414H1000.5" stroke="white" stroke-width="2"/>
<path d="M997.5 414H985.5" stroke="white" stroke-width="2"/>
<path d="M982.5 414H978.5" stroke="white" stroke-width="2"/>
<path d="M975.5 414H963.5" stroke="white" stroke-width="2"/>
<path d="M960.5 414H956.5" stroke="white" stroke-width="2"/>
<path d="M953.5 414H941.5" stroke="white" stroke-width="2"/>
<path d="M982.5 414H978.5" stroke="white" stroke-width="2"/>
<path d="M960.5 414H956.5" stroke="white" stroke-width="2"/>
<path d="M953.5 414H941.5" stroke="white" stroke-width="2"/>
<path d="M960.5 414H956.5" stroke="white" stroke-width="2"/>
<path d="M953.5 414H941.5" stroke="white" stroke-width="2"/>
<path d="M960.5 414H956.5" stroke="white" stroke-width="2"/>
<path d="M960.5 414H956.5" stroke="white" stroke-width="2"/>
<path d="M953.5 414H941.5" stroke="white" stroke-width="2"/>
<path d="M960.5 414H956.5" stroke="white" stroke-width="2"/>
<path d="M931.5 414H919.5M960.5 414H956.5" stroke="white" stroke-width="2"/>
<path d="M960.5 414H956.5" stroke="white" stroke-width="2"/>
<path d="M960.5 414H956.5" stroke="white" stroke-width="2"/>
<path d="M938.5 414H934.5" stroke="white" stroke-width="2"/>
<path d="M963.5 414H975.5M1029.5 414H1041.5M1044.5 414H1048.5M1051.5 414H1063.5M1073.5 414H1085.5M1066.5 414H1070.5" stroke="white" stroke-width="2"/>
<path d="M1029.5 414H1041.5" stroke="white" stroke-width="2"/>
<path d="M1044.5 414H1048.5" stroke="white" stroke-width="2"/>
<path d="M1051.5 414H1063.5" stroke="white" stroke-width="2"/>
<path d="M1044.5 414H1048.5" stroke="white" stroke-width="2"/>
<path d="M1051.5 414H1063.5" stroke="white" stroke-width="2"/>
<path d="M1044.5 414H1048.5" stroke="white" stroke-width="2"/>
<path d="M1051.5 414H1063.5" stroke="white" stroke-width="2"/>
<path d="M1044.5 414H1048.5" stroke="white" stroke-width="2"/>
<path d="M1044.5 414H1048.5" stroke="white" stroke-width="2"/>
<path d="M1051.5 414H1063.5" stroke="white" stroke-width="2"/>
<path d="M1044.5 414H1048.5" stroke="white" stroke-width="2"/>
<path d="M1073.5 414H1085.5M1044.5 414H1048.5" stroke="white" stroke-width="2"/>
<path d="M1044.5 414H1048.5" stroke="white" stroke-width="2"/>
<path d="M1044.5 414H1048.5" stroke="white" stroke-width="2"/>
<path d="M1066.5 414H1070.5" stroke="white" stroke-width="2"/>
<path d="M1035.5 386V398" stroke="white" stroke-width="2"/>
<path d="M1035.5 401V405" stroke="white" stroke-width="2"/>
<path d="M1035.5 408V420" stroke="white" stroke-width="2"/>
<path d="M1035.5 401V405" stroke="white" stroke-width="2"/>
<path d="M1035.5 408V420" stroke="white" stroke-width="2"/>
<path d="M1035.5 401V405" stroke="white" stroke-width="2"/>
<path d="M1035.5 408V420" stroke="white" stroke-width="2"/>
<path d="M1035.5 401V405" stroke="white" stroke-width="2"/>
<path d="M1035.5 401V405" stroke="white" stroke-width="2"/>
<path d="M1035.5 408V420" stroke="white" stroke-width="2"/>
<path d="M1035.5 401V405" stroke="white" stroke-width="2"/>
<path d="M1035.5 430V442M1035.5 401V405" stroke="white" stroke-width="2"/>
<path d="M1035.5 401V405" stroke="white" stroke-width="2"/>
<path d="M1035.5 401V405" stroke="white" stroke-width="2"/>
<path d="M1035.5 386V398" stroke="white" stroke-width="2"/>
<path d="M1035.5 401V405" stroke="white" stroke-width="2"/>
<path d="M1035.5 401V405" stroke="white" stroke-width="2"/>
<path d="M1035.5 401V405" stroke="white" stroke-width="2"/>
<path d="M1035.5 401V405" stroke="white" stroke-width="2"/>
<path d="M1035.5 401V405" stroke="white" stroke-width="2"/>
<path d="M1035.5 401V405" stroke="white" stroke-width="2"/>
<path d="M1035.5 430V442M1035.5 401V405" stroke="white" stroke-width="2"/>
<path d="M1035.5 401V405" stroke="white" stroke-width="2"/>
<path d="M1035.5 401V405" stroke="white" stroke-width="2"/>
<path d="M1035.5 414V408V420V414Z" stroke="white" stroke-width="2"/>
<path d="M1035.5 386V398" stroke="white" stroke-width="2"/>
<path d="M1035.5 401V405" stroke="white" stroke-width="2"/>
<path d="M1035.5 408V420" stroke="white" stroke-width="2"/>
<path d="M1035.5 401V405" stroke="white" stroke-width="2"/>
<path d="M1035.5 408V420" stroke="white" stroke-width="2"/>
<path d="M1035.5 401V405" stroke="white" stroke-width="2"/>
<path d="M1035.5 408V420" stroke="white" stroke-width="2"/>
<path d="M1035.5 401V405" stroke="white" stroke-width="2"/>
<path d="M1035.5 401V405" stroke="white" stroke-width="2"/>
<path d="M1035.5 408V420" stroke="white" stroke-width="2"/>
<path d="M1035.5 401V405" stroke="white" stroke-width="2"/>
<path d="M1035.5 430V442M1035.5 401V405" stroke="white" stroke-width="2"/>
<path d="M1035.5 401V405" stroke="white" stroke-width="2"/>
<path d="M1035.5 401V405" stroke="white" stroke-width="2"/>
<path d="M1035.5 386V398" stroke="white" stroke-width="2"/>
<path d="M1035.5 401V405" stroke="white" stroke-width="2"/>
<path d="M1035.5 401V405" stroke="white" stroke-width="2"/>
<path d="M1035.5 401V405" stroke="white" stroke-width="2"/>
<path d="M1035.5 401V405" stroke="white" stroke-width="2"/>
<path d="M1035.5 401V405" stroke="white" stroke-width="2"/>
<path d="M1035.5 401V405" stroke="white" stroke-width="2"/>
<path d="M1035.5 430V442M1035.5 401V405" stroke="white" stroke-width="2"/>
<path d="M1035.5 401V405" stroke="white" stroke-width="2"/>
<path d="M1035.5 401V405" stroke="white" stroke-width="2"/>
<path d="M1035.5 423V427" stroke="white" stroke-width="2"/>
<path d="M1035.5 430V442M1035.5 401V405" stroke="white" stroke-width="2"/>
<path d="M1035.5 430V442M1035.5 401V405" stroke="white" stroke-width="2"/>
<path d="M1035.5 430V442M1035.5 401V405" stroke="white" stroke-width="2"/>
<path d="M1035.5 386V398M1035.5 401V405M1035.5 408V420M1035.5 430V442M1035.5 423V427" stroke="white" stroke-width="2"/>
<path d="M1035.5 430V442M1035.5 401V405M1035.5 386V398M1035.5 408V420M1035.5 423V427" stroke="white" stroke-width="2"/>
<path d="M1035.5 386V398M1035.5 401V405M1035.5 408V420M1035.5 430V442M1035.5 423V427" stroke="white" stroke-width="2"/>
<path d="M1035.5 386V398" stroke="white" stroke-width="2"/>
<path d="M1035.5 401V405" stroke="white" stroke-width="2"/>
<path d="M1035.5 401V405" stroke="white" stroke-width="2"/>
<path d="M1035.5 401V405" stroke="white" stroke-width="2"/>
<path d="M1035.5 401V405" stroke="white" stroke-width="2"/>
<path d="M1035.5 401V405" stroke="white" stroke-width="2"/>
<path d="M1035.5 401V405" stroke="white" stroke-width="2"/>
<path d="M1035.5 430V442M1035.5 401V405" stroke="white" stroke-width="2"/>
<path d="M1035.5 401V405" stroke="white" stroke-width="2"/>
<path d="M1035.5 401V405" stroke="white" stroke-width="2"/>
<path d="M1035.5 386V398M1035.5 401V405M1035.5 408V420M1035.5 430V442M1035.5 423V427" stroke="white" stroke-width="2"/>
<path d="M1035.5 386V398" stroke="white" stroke-width="2"/>
<path d="M1035.5 401V405" stroke="white" stroke-width="2"/>
<path d="M1035.5 401V405" stroke="white" stroke-width="2"/>
<path d="M1035.5 401V405" stroke="white" stroke-width="2"/>
<path d="M1035.5 401V405" stroke="white" stroke-width="2"/>
<path d="M1035.5 401V405" stroke="white" stroke-width="2"/>
<path d="M1035.5 401V405" stroke="white" stroke-width="2"/>
<path d="M1035.5 430V442M1035.5 401V405" stroke="white" stroke-width="2"/>
<path d="M1035.5 401V405" stroke="white" stroke-width="2"/>
<path d="M1035.5 401V405" stroke="white" stroke-width="2"/>
<path d="M1035.5 386V398M1035.5 401V405M1035.5 408V420M1035.5 430V442M1035.5 423V427" stroke="white" stroke-width="2"/>
<path d="M1035.5 386V398" stroke="white" stroke-width="2"/>
<path d="M1035.5 401V405" stroke="white" stroke-width="2"/>
<path d="M1035.5 401V405" stroke="white" stroke-width="2"/>
<path d="M1035.5 401V405" stroke="white" stroke-width="2"/>
<path d="M1035.5 401V405" stroke="white" stroke-width="2"/>
<path d="M1035.5 401V405" stroke="white" stroke-width="2"/>
<path d="M1035.5 401V405" stroke="white" stroke-width="2"/>
<path d="M1035.5 430V442M1035.5 401V405" stroke="white" stroke-width="2"/>
<path d="M1035.5 401V405" stroke="white" stroke-width="2"/>
<path d="M1035.5 401V405" stroke="white" stroke-width="2"/>
<path d="M1035.5 386V398" stroke="white" stroke-width="2"/>
<path d="M1035.5 401V405" stroke="white" stroke-width="2"/>
<path d="M1035.5 401V405" stroke="white" stroke-width="2"/>
<path d="M1035.5 401V405" stroke="white" stroke-width="2"/>
<path d="M1035.5 401V405" stroke="white" stroke-width="2"/>
<path d="M1035.5 401V405" stroke="white" stroke-width="2"/>
<path d="M1035.5 401V405" stroke="white" stroke-width="2"/>
<path d="M1035.5 430V442M1035.5 401V405" stroke="white" stroke-width="2"/>
<path d="M1035.5 401V405" stroke="white" stroke-width="2"/>
<path d="M1035.5 401V405" stroke="white" stroke-width="2"/>
<path d="M1035.5 386V398M1035.5 401V405M1035.5 408V420M1035.5 430V442M1035.5 423V427" stroke="white" stroke-width="2"/>
<path d="M1035.5 430V442M1035.5 401V405" stroke="white" stroke-width="2"/>
<path d="M1035.5 430V442M1035.5 401V405" stroke="white" stroke-width="2"/>
<path d="M1035.5 386V398M1035.5 401V405M1035.5 408V420M1035.5 430V442M1035.5 423V427" stroke="white" stroke-width="2"/>
<path d="M1035.5 430V442M1035.5 401V405" stroke="white" stroke-width="2"/>
<path d="M1035.5 364V376M1035.5 379V383M1035.5 386V398M1035.5 408V420M1035.5 401V405" stroke="white" stroke-width="2"/>
<path d="M1035.5 445V449" stroke="white" stroke-width="2"/>
<path d="M953.5 414H941.5M887.5 414H875.5M872.5 414H868.5M865.5 414H853.5M843.5 414H831.5M850.5 414H846.5" stroke="white" stroke-width="2"/>
<path d="M887.5 414H875.5" stroke="white" stroke-width="2"/>
<path d="M872.5 414H868.5" stroke="white" stroke-width="2"/>
<path d="M865.5 414H853.5" stroke="white" stroke-width="2"/>
<path d="M872.5 414H868.5" stroke="white" stroke-width="2"/>
<path d="M865.5 414H853.5" stroke="white" stroke-width="2"/>
<path d="M872.5 414H868.5" stroke="white" stroke-width="2"/>
<path d="M865.5 414H853.5" stroke="white" stroke-width="2"/>
<path d="M872.5 414H868.5" stroke="white" stroke-width="2"/>
<path d="M872.5 414H868.5" stroke="white" stroke-width="2"/>
<path d="M865.5 414H853.5" stroke="white" stroke-width="2"/>
<path d="M872.5 414H868.5" stroke="white" stroke-width="2"/>
<path d="M843.5 414H831.5M872.5 414H868.5" stroke="white" stroke-width="2"/>
<path d="M872.5 414H868.5" stroke="white" stroke-width="2"/>
<path d="M872.5 414H868.5" stroke="white" stroke-width="2"/>
<path d="M850.5 414H846.5" stroke="white" stroke-width="2"/>
<path d="M931.5 414H919.5" stroke="white" stroke-width="2"/>
<path d="M916.5 414H912.5" stroke="white" stroke-width="2"/>
<path d="M909.5 414H897.5" stroke="white" stroke-width="2"/>
<path d="M916.5 414H912.5" stroke="white" stroke-width="2"/>
<path d="M909.5 414H897.5" stroke="white" stroke-width="2"/>
<path d="M916.5 414H912.5" stroke="white" stroke-width="2"/>
<path d="M909.5 414H897.5" stroke="white" stroke-width="2"/>
<path d="M916.5 414H912.5" stroke="white" stroke-width="2"/>
<path d="M916.5 414H912.5" stroke="white" stroke-width="2"/>
<path d="M916.5 414H912.5" stroke="white" stroke-width="2"/>
<path d="M887.5 414H875.5M916.5 414H912.5" stroke="white" stroke-width="2"/>
<path d="M916.5 414H912.5" stroke="white" stroke-width="2"/>
<path d="M894.5 414H890.5" stroke="white" stroke-width="2"/>
<path d="M1035.5 452V462" stroke="white" stroke-width="2"/>
<path d="M866.5 414V408V420V414Z" stroke="white" stroke-width="2"/>
<path d="M860.5 414H872.5" stroke="white" stroke-width="2"/>
<path d="M866.5 386V398" stroke="white" stroke-width="2"/>
<path d="M866.5 401V405" stroke="white" stroke-width="2"/>
<path d="M866.5 408V420" stroke="white" stroke-width="2"/>
<path d="M866.5 401V405" stroke="white" stroke-width="2"/>
<path d="M866.5 408V420" stroke="white" stroke-width="2"/>
<path d="M866.5 401V405" stroke="white" stroke-width="2"/>
<path d="M866.5 408V420" stroke="white" stroke-width="2"/>
<path d="M866.5 401V405" stroke="white" stroke-width="2"/>
<path d="M866.5 401V405" stroke="white" stroke-width="2"/>
<path d="M866.5 408V420" stroke="white" stroke-width="2"/>
<path d="M866.5 401V405" stroke="white" stroke-width="2"/>
<path d="M866.5 430V442M866.5 401V405" stroke="white" stroke-width="2"/>
<path d="M866.5 401V405" stroke="white" stroke-width="2"/>
<path d="M866.5 401V405" stroke="white" stroke-width="2"/>
<path d="M866.5 386V398" stroke="white" stroke-width="2"/>
<path d="M866.5 401V405" stroke="white" stroke-width="2"/>
<path d="M866.5 401V405" stroke="white" stroke-width="2"/>
<path d="M866.5 401V405" stroke="white" stroke-width="2"/>
<path d="M866.5 401V405" stroke="white" stroke-width="2"/>
<path d="M866.5 401V405" stroke="white" stroke-width="2"/>
<path d="M866.5 401V405" stroke="white" stroke-width="2"/>
<path d="M866.5 430V442M866.5 401V405" stroke="white" stroke-width="2"/>
<path d="M866.5 401V405" stroke="white" stroke-width="2"/>
<path d="M866.5 401V405" stroke="white" stroke-width="2"/>
<path d="M866.5 414V408V420V414Z" stroke="white" stroke-width="2"/>
<path d="M866.5 386V398" stroke="white" stroke-width="2"/>
<path d="M866.5 401V405" stroke="white" stroke-width="2"/>
<path d="M866.5 408V420" stroke="white" stroke-width="2"/>
<path d="M866.5 401V405" stroke="white" stroke-width="2"/>
<path d="M866.5 408V420" stroke="white" stroke-width="2"/>
<path d="M866.5 401V405" stroke="white" stroke-width="2"/>
<path d="M866.5 408V420" stroke="white" stroke-width="2"/>
<path d="M866.5 401V405" stroke="white" stroke-width="2"/>
<path d="M866.5 401V405" stroke="white" stroke-width="2"/>
<path d="M866.5 408V420" stroke="white" stroke-width="2"/>
<path d="M866.5 401V405" stroke="white" stroke-width="2"/>
<path d="M866.5 430V442M866.5 401V405" stroke="white" stroke-width="2"/>
<path d="M866.5 401V405" stroke="white" stroke-width="2"/>
<path d="M866.5 401V405" stroke="white" stroke-width="2"/>
<path d="M866.5 386V398" stroke="white" stroke-width="2"/>
<path d="M866.5 401V405" stroke="white" stroke-width="2"/>
<path d="M866.5 401V405" stroke="white" stroke-width="2"/>
<path d="M866.5 401V405" stroke="white" stroke-width="2"/>
<path d="M866.5 401V405" stroke="white" stroke-width="2"/>
<path d="M866.5 401V405" stroke="white" stroke-width="2"/>
<path d="M866.5 401V405" stroke="white" stroke-width="2"/>
<path d="M866.5 430V442M866.5 401V405" stroke="white" stroke-width="2"/>
<path d="M866.5 401V405" stroke="white" stroke-width="2"/>
<path d="M866.5 401V405" stroke="white" stroke-width="2"/>
<path d="M866.5 423V427" stroke="white" stroke-width="2"/>
<path d="M866.5 430V442M866.5 401V405" stroke="white" stroke-width="2"/>
<path d="M866.5 430V442M866.5 401V405" stroke="white" stroke-width="2"/>
<path d="M866.5 430V442M866.5 401V405" stroke="white" stroke-width="2"/>
<path d="M866.5 386V398M866.5 401V405M866.5 408V420M866.5 430V442M866.5 423V427" stroke="white" stroke-width="2"/>
<path d="M866.5 430V442M866.5 401V405M866.5 386V398M866.5 408V420M866.5 423V427" stroke="white" stroke-width="2"/>
<path d="M866.5 386V398M866.5 401V405M866.5 408V420M866.5 430V442M866.5 423V427" stroke="white" stroke-width="2"/>
<path d="M866.5 386V398" stroke="white" stroke-width="2"/>
<path d="M866.5 401V405" stroke="white" stroke-width="2"/>
<path d="M866.5 401V405" stroke="white" stroke-width="2"/>
<path d="M866.5 401V405" stroke="white" stroke-width="2"/>
<path d="M866.5 401V405" stroke="white" stroke-width="2"/>
<path d="M866.5 401V405" stroke="white" stroke-width="2"/>
<path d="M866.5 401V405" stroke="white" stroke-width="2"/>
<path d="M866.5 430V442M866.5 401V405" stroke="white" stroke-width="2"/>
<path d="M866.5 401V405" stroke="white" stroke-width="2"/>
<path d="M866.5 401V405" stroke="white" stroke-width="2"/>
<path d="M866.5 386V398M866.5 401V405M866.5 408V420M866.5 430V442M866.5 423V427" stroke="white" stroke-width="2"/>
<path d="M866.5 386V398" stroke="white" stroke-width="2"/>
<path d="M866.5 401V405" stroke="white" stroke-width="2"/>
<path d="M866.5 401V405" stroke="white" stroke-width="2"/>
<path d="M866.5 401V405" stroke="white" stroke-width="2"/>
<path d="M866.5 401V405" stroke="white" stroke-width="2"/>
<path d="M866.5 401V405" stroke="white" stroke-width="2"/>
<path d="M866.5 401V405" stroke="white" stroke-width="2"/>
<path d="M866.5 430V442M866.5 401V405" stroke="white" stroke-width="2"/>
<path d="M866.5 401V405" stroke="white" stroke-width="2"/>
<path d="M866.5 401V405" stroke="white" stroke-width="2"/>
<path d="M866.5 386V398M866.5 401V405M866.5 408V420M866.5 430V442M866.5 423V427" stroke="white" stroke-width="2"/>
<path d="M866.5 386V398" stroke="white" stroke-width="2"/>
<path d="M866.5 401V405" stroke="white" stroke-width="2"/>
<path d="M866.5 401V405" stroke="white" stroke-width="2"/>
<path d="M866.5 401V405" stroke="white" stroke-width="2"/>
<path d="M866.5 401V405" stroke="white" stroke-width="2"/>
<path d="M866.5 401V405" stroke="white" stroke-width="2"/>
<path d="M866.5 401V405" stroke="white" stroke-width="2"/>
<path d="M866.5 430V442M866.5 401V405" stroke="white" stroke-width="2"/>
<path d="M866.5 401V405" stroke="white" stroke-width="2"/>
<path d="M866.5 401V405" stroke="white" stroke-width="2"/>
<path d="M866.5 386V398" stroke="white" stroke-width="2"/>
<path d="M866.5 401V405" stroke="white" stroke-width="2"/>
<path d="M866.5 401V405" stroke="white" stroke-width="2"/>
<path d="M866.5 401V405" stroke="white" stroke-width="2"/>
<path d="M866.5 401V405" stroke="white" stroke-width="2"/>
<path d="M866.5 401V405" stroke="white" stroke-width="2"/>
<path d="M866.5 401V405" stroke="white" stroke-width="2"/>
<path d="M866.5 430V442M866.5 401V405" stroke="white" stroke-width="2"/>
<path d="M866.5 401V405" stroke="white" stroke-width="2"/>
<path d="M866.5 401V405" stroke="white" stroke-width="2"/>
<path d="M866.5 386V398M866.5 401V405M866.5 408V420M866.5 430V442M866.5 423V427" stroke="white" stroke-width="2"/>
<path d="M866.5 430V442M866.5 401V405" stroke="white" stroke-width="2"/>
<path d="M866.5 430V442M866.5 401V405" stroke="white" stroke-width="2"/>
<path d="M866.5 386V398M866.5 401V405M866.5 408V420M866.5 430V442M866.5 423V427" stroke="white" stroke-width="2"/>
<path d="M866.5 430V442M866.5 401V405" stroke="white" stroke-width="2"/>
<path d="M866.5 364V376M866.5 379V383M866.5 386V398M866.5 408V420M866.5 401V405" stroke="white" stroke-width="2"/>
<path d="M866.5 445V449" stroke="white" stroke-width="2"/>
<path d="M866.5 408V420M866.5 423V427M866.5 430V442M866.5 452V464M866.5 445V449" stroke="white" stroke-width="2"/>
<path d="M866.5 452V464M866.5 423V427" stroke="white" stroke-width="2"/>
<path d="M526 211H550.5" stroke="white" stroke-width="3"/>
<path d="M978.5 409C978.5 375.863 1003.26 356.5 1037.5 356.5C1060.72 356.5 1068.71 366.952 1079 378" stroke="white" stroke-width="3"/>
<path d="M922.5 410.5C922.5 377.363 897.742 356.5 863.5 356.5C840.282 356.5 831.291 366.951 821 378" stroke="white" stroke-width="3"/>
<path d="M828.5 414H825.5" stroke="white" stroke-width="2"/>
</svg>
