<svg width="578" height="210" viewBox="0 0 578 210" fill="none" xmlns="http://www.w3.org/2000/svg">
<path d="M406 171.5C415.062 171.5 422.5 179.729 422.5 190C422.5 200.271 415.062 208.5 406 208.5C396.938 208.5 389.5 200.271 389.5 190C389.5 179.729 396.938 171.5 406 171.5ZM405.5 189.5H404V190.5H405.5V193.5H406.5V190.5H409V189.5H406.5V186.5H405.5V189.5Z" stroke="white"/>
<path d="M477 171.5C486.062 171.5 493.5 179.729 493.5 190C493.5 200.271 486.062 208.5 477 208.5C467.938 208.5 460.5 200.271 460.5 190C460.5 179.729 467.938 171.5 477 171.5Z" stroke="white"/>
<path d="M477 165.5L477 165.53C477 166.836 476.155 167.991 474.911 168.388L466.196 171.167M424.522 178.821V194C424.522 195.657 425.865 197 427.522 197H455.478C457.135 197 458.478 195.657 458.478 194V179.778M458.478 179.778L454.742 183.947C454.173 184.582 453.361 184.944 452.508 184.944H431.931C431.14 184.944 430.38 184.632 429.818 184.074L421.977 176.297C420.075 174.41 421.411 171.167 424.089 171.167H466.196M458.478 179.778L466.196 171.167" stroke="white"/>
<path d="M424 178H460" stroke="white"/>
<path d="M101 171.5C110.062 171.5 117.5 179.729 117.5 190C117.5 200.271 110.062 208.5 101 208.5C91.9381 208.5 84.5 200.271 84.5 190C84.5 179.729 91.9381 171.5 101 171.5ZM100.5 189.5H99V190.5H100.5V193.5H101.5V190.5H104V189.5H101.5V186.5H100.5V189.5Z" stroke="white"/>
<path d="M172 171.5C181.062 171.5 188.5 179.729 188.5 190C188.5 200.271 181.062 208.5 172 208.5C162.938 208.5 155.5 200.271 155.5 190C155.5 179.729 162.938 171.5 172 171.5Z" stroke="white"/>
<path d="M101 165.5V165.53C101 166.836 101.845 167.992 103.089 168.388L111.804 171.167M119.522 178.821V194C119.522 195.657 120.865 197 122.522 197H150.478C152.135 197 153.478 195.657 153.478 194V179.778M153.478 179.778L149.742 183.947C149.173 184.582 148.361 184.944 147.508 184.944H126.931C126.14 184.944 125.38 184.632 124.818 184.074L111.804 171.167M153.478 179.778L156.713 176.169C158.444 174.237 157.073 171.167 154.479 171.167H111.804" stroke="white"/>
<path d="M88.5 24V161.5M489.5 24.3848V161.5" stroke="white"/>
<path d="M119 178H155" stroke="white"/>
<path d="M172 171.5C181.062 171.5 188.5 179.729 188.5 190C188.5 200.271 181.062 208.5 172 208.5C162.938 208.5 155.5 200.271 155.5 190C155.5 179.729 162.938 171.5 172 171.5Z" stroke="white"/>
<path d="M99 190H98" stroke="white"/>
<path d="M101 184.5V182.5" stroke="white"/>
<path d="M101 180.5V174.5M106 190H108" stroke="white"/>
<path d="M101 195.5V197V197.5M96 190H95H94M110 190H114H116M101 199.5V202.5V205.5M101 207.5V208.5V209.5" stroke="white"/>
<path d="M92 190H87H86M101 172.5V171.5V170.5" stroke="white"/>
<path d="M170 190H169" stroke="white"/>
<path d="M172 184.5V182.5" stroke="white"/>
<path d="M172 180.5V174.5M177 190H179" stroke="white"/>
<path d="M172 195.5V197V197.5M167 190H166H165M181 190H185H187M172 199.5V202.5V205.5M172 207.5V208.5V209.5" stroke="white"/>
<path d="M163 190H158H157M172 172.5V171.5V170.5" stroke="white"/>
<path d="M117.5 190H119.5M122 190H125H128" stroke="white"/>
<path d="M130 190H131H132M134 190H138H140" stroke="white"/>
<path d="M142 190H143H144M146 190H151H152" stroke="white"/>
<path d="M153.5 190H154.5H155.5" stroke="white"/>
<path d="M170.5 190H172M175 190H172M169.5 190H172M172 193.5V190M172 186.5V190" stroke="white"/>
<path d="M477 171.5C486.062 171.5 493.5 179.729 493.5 190C493.5 200.271 486.062 208.5 477 208.5C467.938 208.5 460.5 200.271 460.5 190C460.5 179.729 467.938 171.5 477 171.5Z" stroke="white"/>
<path d="M404 190H403" stroke="white"/>
<path d="M406 184.5V182.5" stroke="white"/>
<path d="M406 180.5V174.5M411 190H413" stroke="white"/>
<path d="M406 195.5V197V197.5M401 190H400H399M415 190H419H421M406 199.5V202.5V205.5M406 207.5V208.5V209.5" stroke="white"/>
<path d="M397 190H392H391M406 172.5V171.5V170.5" stroke="white"/>
<path d="M475 190H474" stroke="white"/>
<path d="M477 184.5V182.5" stroke="white"/>
<path d="M477 180.5V174.5M482 190H484" stroke="white"/>
<path d="M477 195.5V197V197.5M472 190H471H470M486 190H490H492M477 199.5V202.5V205.5M477 207.5V208.5V209.5" stroke="white"/>
<path d="M468 190H463H462M477 172.5V171.5V170.5" stroke="white"/>
<path d="M422.5 190H424.5M427 190H430H433" stroke="white"/>
<path d="M435 190H436H437M439 190H443H445" stroke="white"/>
<path d="M447 190H448H449M451 190H456H457" stroke="white"/>
<path d="M458.5 190H459.5H460.5" stroke="white"/>
<path d="M475.5 190H477M480 190H477M474.5 190H477M477 193.5V190M477 186.5V190" stroke="white"/>
<path d="M84.5 161V161.5V24M493.5 24V161.5" stroke="white"/>
<path d="M38 24H538M538 165H38" stroke="white"/>
<path d="M154.5 171H199M425 171H377.5M199 164.5V171M199 171V171.25V175C199 176.657 200.343 178 202 178H267.25C268.217 178 269 178.784 269 179.75C269 180.716 269.784 181.5 270.75 181.5H306.75C307.716 181.5 308.5 180.716 308.5 179.75C308.5 178.784 309.284 178 310.25 178H374.5C376.157 178 377.5 176.657 377.5 175V171.25L377.5 171L377.5 164.5" stroke="white"/>
<path d="M38 165C26.402 165 17 133.436 17 94.5C17 55.5639 26.402 24 38 24" stroke="white"/>
<path d="M538 165C549.598 165 559 133.436 559 94.5C559 55.5639 549.598 24 538 24" stroke="white"/>
<path d="M268.5 113H309" stroke="white"/>
<path d="M269 43L308 43M268.5 113L309 113" stroke="white"/>
<path d="M269.244 43L307.762 43M268.75 149H308.75" stroke="white"/>
<path d="M269.244 43L307.762 43M268.75 131H308.75" stroke="white"/>
<path d="M269.244 96L307.762 96M268.75 113L308.75 113" stroke="white"/>
<path d="M269.244 79L307.762 79M268.75 113H308.75" stroke="white"/>
<path d="M269 61L308 61" stroke="white"/>
<path d="M269 83V113V178M308.5 113V83M308.5 113.5V178M88.5 161.5H90C91.6569 161.5 93 162.843 93 164.5V165" stroke="white"/>
<path d="M84.5 161.5H83C81.3431 161.5 80 162.843 80 164.5V165" stroke="white"/>
<path d="M84.5 161.5H88.5" stroke="white"/>
<path d="M184 93H209" stroke="white"/>
<path d="M216.5 93H224H215" stroke="white"/>
<path d="M230 93H255" stroke="white"/>
<path d="M262.667 93H271H261" stroke="white"/>
<path d="M277 93H301" stroke="white"/>
<path d="M308.667 93H317H307" stroke="white"/>
<path d="M323 93H348" stroke="white"/>
<path d="M355.667 93H364H354" stroke="white"/>
<path d="M370 93H394" stroke="white"/>
<path d="M184 93H209" stroke="white"/>
<path d="M216.5 93H224H215" stroke="white"/>
<path d="M230 93H255" stroke="white"/>
<path d="M138 93H163" stroke="white"/>
<path d="M170.5 93H178H169" stroke="white"/>
<path d="M184 93H209" stroke="white"/>
<path d="M138 93H163" stroke="white"/>
<path d="M170.5 93H178H169" stroke="white"/>
<path d="M184 93H209" stroke="white"/>
<path d="M262.667 93H271H261" stroke="white"/>
<path d="M277 93H301" stroke="white"/>
<path d="M308.667 93H317H307" stroke="white"/>
<path d="M323 93H348" stroke="white"/>
<path d="M355.667 93H364H354" stroke="white"/>
<path d="M370 93H394" stroke="white"/>
<path d="M406 171.5C415.062 171.5 422.5 179.729 422.5 190C422.5 200.271 415.062 208.5 406 208.5C396.938 208.5 389.5 200.271 389.5 190C389.5 179.729 396.938 171.5 406 171.5ZM405.5 189.5H404V190.5H405.5V193.5H406.5V190.5H409V189.5H406.5V186.5H405.5V189.5Z" stroke="white"/>
<path d="M477 171.5C486.062 171.5 493.5 179.729 493.5 190C493.5 200.271 486.062 208.5 477 208.5C467.938 208.5 460.5 200.271 460.5 190C460.5 179.729 467.938 171.5 477 171.5Z" stroke="white"/>
<path d="M477 165.5L477 165.53C477 166.836 476.155 167.991 474.911 168.388L466.196 171.167M424.522 178.821V194C424.522 195.657 425.865 197 427.522 197H455.478C457.135 197 458.478 195.657 458.478 194V179.778M458.478 179.778L454.742 183.947C454.173 184.582 453.361 184.944 452.508 184.944H431.931C431.14 184.944 430.38 184.632 429.818 184.074L421.977 176.297C420.075 174.41 421.411 171.167 424.089 171.167H466.196M458.478 179.778L466.196 171.167" stroke="white"/>
<path d="M424 178H460" stroke="white"/>
<path d="M101 171.5C110.062 171.5 117.5 179.729 117.5 190C117.5 200.271 110.062 208.5 101 208.5C91.9381 208.5 84.5 200.271 84.5 190C84.5 179.729 91.9381 171.5 101 171.5ZM100.5 189.5H99V190.5H100.5V193.5H101.5V190.5H104V189.5H101.5V186.5H100.5V189.5Z" stroke="white"/>
<path d="M172 171.5C181.062 171.5 188.5 179.729 188.5 190C188.5 200.271 181.062 208.5 172 208.5C162.938 208.5 155.5 200.271 155.5 190C155.5 179.729 162.938 171.5 172 171.5Z" stroke="white"/>
<path d="M101 165.5V165.53C101 166.836 101.845 167.992 103.089 168.388L111.804 171.167M119.522 178.821V194C119.522 195.657 120.865 197 122.522 197H150.478C152.135 197 153.478 195.657 153.478 194V179.778M153.478 179.778L149.742 183.947C149.173 184.582 148.361 184.944 147.508 184.944H126.931C126.14 184.944 125.38 184.632 124.818 184.074L111.804 171.167M153.478 179.778L156.713 176.169C158.444 174.237 157.073 171.167 154.479 171.167H111.804" stroke="white"/>
<path d="M88.5 24V161.5M489.5 24.3848V161.5" stroke="white"/>
<path d="M119 178H155" stroke="white"/>
<path d="M172 171.5C181.062 171.5 188.5 179.729 188.5 190C188.5 200.271 181.062 208.5 172 208.5C162.938 208.5 155.5 200.271 155.5 190C155.5 179.729 162.938 171.5 172 171.5Z" stroke="white"/>
<path d="M99 190H98" stroke="white"/>
<path d="M101 184.5V182.5" stroke="white"/>
<path d="M101 180.5V174.5M106 190H108" stroke="white"/>
<path d="M101 195.5V197V197.5M96 190H95H94M110 190H114H116M101 199.5V202.5V205.5M101 207.5V208.5V209.5" stroke="white"/>
<path d="M92 190H87H86M101 172.5V171.5V170.5" stroke="white"/>
<path d="M170 190H169" stroke="white"/>
<path d="M172 184.5V182.5" stroke="white"/>
<path d="M172 180.5V174.5M177 190H179" stroke="white"/>
<path d="M172 195.5V197V197.5M167 190H166H165M181 190H185H187M172 199.5V202.5V205.5M172 207.5V208.5V209.5" stroke="white"/>
<path d="M163 190H158H157M172 172.5V171.5V170.5" stroke="white"/>
<path d="M117.5 190H119.5M122 190H125H128" stroke="white"/>
<path d="M130 190H131H132M134 190H138H140" stroke="white"/>
<path d="M142 190H143H144M146 190H151H152" stroke="white"/>
<path d="M153.5 190H154.5H155.5" stroke="white"/>
<path d="M170.5 190H172M175 190H172M169.5 190H172M172 193.5V190M172 186.5V190" stroke="white"/>
<path d="M477 171.5C486.062 171.5 493.5 179.729 493.5 190C493.5 200.271 486.062 208.5 477 208.5C467.938 208.5 460.5 200.271 460.5 190C460.5 179.729 467.938 171.5 477 171.5Z" stroke="white"/>
<path d="M404 190H403" stroke="white"/>
<path d="M406 184.5V182.5" stroke="white"/>
<path d="M406 180.5V174.5M411 190H413" stroke="white"/>
<path d="M406 195.5V197V197.5M401 190H400H399M415 190H419H421M406 199.5V202.5V205.5M406 207.5V208.5V209.5" stroke="white"/>
<path d="M397 190H392H391M406 172.5V171.5V170.5" stroke="white"/>
<path d="M475 190H474" stroke="white"/>
<path d="M477 184.5V182.5" stroke="white"/>
<path d="M477 180.5V174.5M482 190H484" stroke="white"/>
<path d="M477 195.5V197V197.5M472 190H471H470M486 190H490H492M477 199.5V202.5V205.5M477 207.5V208.5V209.5" stroke="white"/>
<path d="M468 190H463H462M477 172.5V171.5V170.5" stroke="white"/>
<path d="M422.5 190H424.5M427 190H430H433" stroke="white"/>
<path d="M435 190H436H437M439 190H443H445" stroke="white"/>
<path d="M447 190H448H449M451 190H456H457" stroke="white"/>
<path d="M458.5 190H459.5H460.5" stroke="white"/>
<path d="M475.5 190H477M480 190H477M474.5 190H477M477 193.5V190M477 186.5V190" stroke="white"/>
<path d="M184 93H209" stroke="white"/>
<path d="M216.5 93H224H215" stroke="white"/>
<path d="M230 93H255" stroke="white"/>
<path d="M184 93H209" stroke="white"/>
<path d="M216.5 93H224H215" stroke="white"/>
<path d="M230 93H255" stroke="white"/>
<path d="M78.5 93H86H77" stroke="white"/>
<path d="M92 93H117" stroke="white"/>
<path d="M78.5 93H86H77" stroke="white"/>
<path d="M92 93H117" stroke="white"/>
<path d="M92 93H117" stroke="white"/>
<path d="M124.5 93H132H123" stroke="white"/>
<path d="M138 93H163" stroke="white"/>
<path d="M92 93H117" stroke="white"/>
<path d="M124.5 93H132H123" stroke="white"/>
<path d="M138 93H163" stroke="white"/>
<path d="M415 93H440" stroke="white"/>
<path d="M447.5 93H455H446" stroke="white"/>
<path d="M415 93H440" stroke="white"/>
<path d="M447.5 93H455H446" stroke="white"/>
<path d="M369 93H394" stroke="white"/>
<path d="M401.5 93H409H400" stroke="white"/>
<path d="M415 93H440" stroke="white"/>
<path d="M369 93H394" stroke="white"/>
<path d="M401.5 93H409H400" stroke="white"/>
<path d="M415 93H440" stroke="white"/>
<path d="M415 93H440" stroke="white"/>
<path d="M447.5 93H455H446" stroke="white"/>
<path d="M415 93H440" stroke="white"/>
<path d="M447.5 93H455H446" stroke="white"/>
<path d="M355.5 93H363H354" stroke="white"/>
<path d="M369 93H394" stroke="white"/>
<path d="M355.5 93H363H354" stroke="white"/>
<path d="M369 93H394" stroke="white"/>
<path d="M46 93H71" stroke="white"/>
<path d="M78.5 93H86H77" stroke="white"/>
<path d="M46 93H71" stroke="white"/>
<path d="M78.5 93H86H77" stroke="white"/>
<path d="M0 93H25" stroke="white"/>
<path d="M32.5 93H40H31" stroke="white"/>
<path d="M46 93H71" stroke="white"/>
<path d="M0 93H25" stroke="white"/>
<path d="M32.5 93H40H31" stroke="white"/>
<path d="M46 93H71" stroke="white"/>
<path d="M46 93H71" stroke="white"/>
<path d="M78.5 93H86H77" stroke="white"/>
<path d="M46 93H71" stroke="white"/>
<path d="M78.5 93H86H77" stroke="white"/>
<path d="M0 93H25" stroke="white"/>
<path d="M0 93H25" stroke="white"/>
<path d="M84.5 161V161.5V24" stroke="white"/>
<path d="M269 24V113V171V178M308.5 113V24M308.5 113.5V178M88.5 161.5H90C91.6569 161.5 93 162.843 93 164.5V165" stroke="white"/>
<path d="M84.5 161.5H83C81.3431 161.5 80 162.843 80 164.5V165" stroke="white"/>
<path d="M84.5 161.5H88.5" stroke="white"/>
<path d="M493.5 161.5H495C496.657 161.5 498 162.843 498 164.5V165" stroke="white"/>
<path d="M489.5 161.5H488C486.343 161.5 485 162.843 485 164.5V165" stroke="white"/>
<path d="M489.5 161.5H493.5" stroke="white"/>
<path d="M507 93H532" stroke="white"/>
<path d="M539.5 93H547H538" stroke="white"/>
<path d="M507 93H532" stroke="white"/>
<path d="M539.5 93H547H538" stroke="white"/>
<path d="M461 93H486" stroke="white"/>
<path d="M493.5 93H501H492" stroke="white"/>
<path d="M507 93H532" stroke="white"/>
<path d="M461 93H486" stroke="white"/>
<path d="M493.5 93H501H492" stroke="white"/>
<path d="M507 93H532" stroke="white"/>
<path d="M507 93H532" stroke="white"/>
<path d="M539.5 93H547H538" stroke="white"/>
<path d="M507 93H532" stroke="white"/>
<path d="M539.5 93H547H538" stroke="white"/>
<path d="M553 93H578" stroke="white"/>
<path d="M553 93H578" stroke="white"/>
<path d="M539.5 93H547H538" stroke="white"/>
<path d="M553 93H578" stroke="white"/>
<path d="M539.5 93H547H538" stroke="white"/>
<path d="M553 93H578" stroke="white"/>
<path d="M553 93H578" stroke="white"/>
<path d="M553 93H578" stroke="white"/>
<path d="M447.5 93H455H446" stroke="white"/>
<path d="M461 93H486" stroke="white"/>
<path d="M447.5 93H455H446" stroke="white"/>
<path d="M461 93H486" stroke="white"/>
<path d="M264 23.5V3.5C264 1.84315 262.657 0.5 261 0.5L254 0.5C252.343 0.5 251 1.84315 251 3.5L251 23.5" stroke="white"/>
<path d="M327 24V4C327 2.34315 325.657 1 324 1L317 1C315.343 1 314 2.34315 314 4L314 24" stroke="white"/>
<path d="M251 10H264M314 10H327" stroke="white"/>
<path d="M296.73 18.7842L301.197 18.959C302.483 19.0094 303.5 20.0664 303.5 21.3535C303.5 22.677 302.427 23.75 301.104 23.75H277.896C276.573 23.75 275.5 22.677 275.5 21.3535C275.5 20.0664 276.517 19.0094 277.803 18.959L282.27 18.7842L289.5 18.5L296.73 18.7842Z" stroke="white"/>
<path d="M269 178V177.5V178.5M308.5 177.5V178V178.5" stroke="white"/>
<path d="M269 178V180M308.5 177.5V179.5" stroke="white"/>
</svg>
