<svg width="458" height="216" viewBox="0 0 458 216" fill="none" xmlns="http://www.w3.org/2000/svg">
<path d="M25.0503 163.5C13.4246 148.101 6 124.645 6 98.3722C6 69.2335 15.1325 43.5608 29 28.5" stroke="white"/>
<path d="M433.95 27.5C445.575 43.0134 453 66.6424 453 93.1102C453 122.465 443.868 148.328 430 163.5" stroke="white"/>
<path d="M31 27.5H376.771H427.996H436" stroke="white"/>
<path d="M28.1955 163.5H421.609H431C432.657 163.5 434 164.843 434 166.5V168.5C434 170.157 432.657 171.5 431 171.5H28.1955H25C23.3431 171.5 22 170.157 22 168.5V166.5C22 164.843 23.3431 163.5 25 163.5H28.1955Z" stroke="white"/>
<path d="M366 27.5C235.208 27.5 158.792 27.5 28 27.5" stroke="white"/>
<path d="M246.429 6.5L247.839 25.3508C247.926 26.5109 247.008 27.5 245.845 27.5H206.155C204.992 27.5 204.074 26.5109 204.161 25.3508L205.571 6.5" stroke="white"/>
<path d="M241.5 33.5V171.5H210.5V33.5H241.5Z" stroke="white"/>
<path d="M211 42.5H225H241.5" stroke="white"/>
<path d="M214 57.5H238" stroke="white"/>
<path d="M214 71.5H238M214 85.1667H238M214 98.8333H238M214 112.5H238M214 126.167H238M214 139.833H238M214 153.5H238" stroke="white"/>
<path d="M82 27.5V163.5M373 27.5V161.778" stroke="white"/>
<path d="M45 178C54.0619 178 61.5 186.229 61.5 196.5C61.5 206.771 54.0619 215 45 215C35.9381 215 28.5 206.771 28.5 196.5C28.5 186.229 35.9381 178 45 178ZM44.5 196H43V197H44.5V200H45.5V197H48V196H45.5V193H44.5V196Z" stroke="white"/>
<path d="M116 178C125.062 178 132.5 186.229 132.5 196.5C132.5 206.771 125.062 215 116 215C106.938 215 99.5 206.771 99.5 196.5C99.5 186.229 106.938 178 116 178Z" stroke="white"/>
<path d="M63.5217 185.321V200.5C63.5217 202.157 64.8649 203.5 66.5217 203.5H94.4783C96.1351 203.5 97.4783 202.157 97.4783 200.5V186.278M97.4783 186.278L93.7421 190.447C93.173 191.082 92.3606 191.444 91.508 191.444H70.9311C70.1397 191.444 69.3804 191.132 68.8185 190.574L55.8043 177.667M97.4783 186.278L105.196 177.667M55.8043 177.667L45.6928 174.443C45.2802 174.312 45 173.928 45 173.495C45 172.946 45.4455 172.5 45.9951 172.5H115.005C115.555 172.5 116 172.946 116 173.495C116 173.928 115.72 174.312 115.307 174.443L105.196 177.667M55.8043 177.667H105.196" stroke="white"/>
<path d="M63 184.5H99" stroke="white"/>
<path d="M336 178C345.062 178 352.5 186.229 352.5 196.5C352.5 206.771 345.062 215 336 215C326.938 215 319.5 206.771 319.5 196.5C319.5 186.229 326.938 178 336 178Z" stroke="white"/>
<path d="M407 178C416.062 178 423.5 186.229 423.5 196.5C423.5 206.771 416.062 215 407 215C397.938 215 390.5 206.771 390.5 196.5C390.5 186.229 397.938 178 407 178Z" stroke="white"/>
<path d="M354 184.5H390" stroke="white"/>
<path d="M116 178C125.062 178 132.5 186.229 132.5 196.5C132.5 206.771 125.062 215 116 215C106.938 215 99.5 206.771 99.5 196.5C99.5 186.229 106.938 178 116 178Z" stroke="white"/>
<path d="M0 92.5H24" stroke="white"/>
<path d="M31 92.5H40" stroke="white"/>
<path d="M46 92.5H71" stroke="white"/>
<path d="M78.6667 92.5H87H77" stroke="white"/>
<path d="M93 92.5H117" stroke="white"/>
<path d="M124.667 92.5H133H123" stroke="white"/>
<path d="M139 92.5H164" stroke="white"/>
<path d="M171.667 92.5H180H170" stroke="white"/>
<path d="M186 92.5H210" stroke="white"/>
<path d="M217.667 92.5H226H216" stroke="white"/>
<path d="M232 92.5H257" stroke="white"/>
<path d="M264.5 92.5H272H263" stroke="white"/>
<path d="M278 92.5H303" stroke="white"/>
<path d="M310.667 92.5H319H309" stroke="white"/>
<path d="M325 92.5H349" stroke="white"/>
<path d="M356.667 92.5H365H355" stroke="white"/>
<path d="M371 92.5H396" stroke="white"/>
<path d="M403.667 92.5H412H402" stroke="white"/>
<path d="M418 92.5H442" stroke="white"/>
<path d="M449.667 92.5H458H448" stroke="white"/>
<path d="M247 6.5C247 1.52944 238.49 0.5 226 0.5C213.51 0.5 205 1.52944 205 6.5" stroke="white"/>
<path d="M43 196.5H42" stroke="white"/>
<path d="M45 191V189" stroke="white"/>
<path d="M45 187V181M50 196.5H52" stroke="white"/>
<path d="M45 202V203.5V204M40 196.5H39H38M54 196.5H58H60M45 206V209V212M45 214V215V216" stroke="white"/>
<path d="M36 196.5H31H30M45 179V178V177" stroke="white"/>
<path d="M114 196.5H113" stroke="white"/>
<path d="M116 191V189" stroke="white"/>
<path d="M116 187V181M121 196.5H123" stroke="white"/>
<path d="M116 202V203.5V204M111 196.5H110H109M125 196.5H129H131M116 206V209V212M116 214V215V216" stroke="white"/>
<path d="M107 196.5H102H101M116 179V178V177" stroke="white"/>
<path d="M61.5 196.5H63.5M66 196.5H69H72" stroke="white"/>
<path d="M74 196.5H75H76M78 196.5H82H84" stroke="white"/>
<path d="M86 196.5H87H88M90 196.5H95H96" stroke="white"/>
<path d="M97.5 196.5H98.5H99.5" stroke="white"/>
<path d="M114.5 196.5H116M119 196.5H116M113.5 196.5H116M116 200V196.5M116 193V196.5" stroke="white"/>
<path d="M336 177.5C345.062 177.5 352.5 185.729 352.5 196C352.5 206.271 345.062 214.5 336 214.5C326.938 214.5 319.5 206.271 319.5 196C319.5 185.729 326.938 177.5 336 177.5ZM335.5 195.5H334V196.5H335.5V199.5H336.5V196.5H339V195.5H336.5V192.5H335.5V195.5Z" stroke="white"/>
<path d="M407 177.5C416.062 177.5 423.5 185.729 423.5 196C423.5 206.271 416.062 214.5 407 214.5C397.938 214.5 390.5 206.271 390.5 196C390.5 185.729 397.938 177.5 407 177.5Z" stroke="white"/>
<path d="M354.522 184.821V200C354.522 201.657 355.865 203 357.522 203H385.478C387.135 203 388.478 201.657 388.478 200V185.778M388.478 185.778L384.742 189.947C384.173 190.582 383.361 190.944 382.508 190.944H361.931C361.14 190.944 360.38 190.632 359.818 190.074L346.804 177.167M388.478 185.778L396.196 177.167M346.804 177.167L336.693 173.943C336.28 173.812 336 173.428 336 172.995C336 172.446 336.445 172 336.995 172H406.005C406.555 172 407 172.446 407 172.995C407 173.428 406.72 173.812 406.307 173.943L396.196 177.167M346.804 177.167H396.196" stroke="white"/>
<path d="M354 184H390" stroke="white"/>
<path d="M407 177.5C416.062 177.5 423.5 185.729 423.5 196C423.5 206.271 416.062 214.5 407 214.5C397.938 214.5 390.5 206.271 390.5 196C390.5 185.729 397.938 177.5 407 177.5Z" stroke="white"/>
<path d="M334 196H333" stroke="white"/>
<path d="M336 190.5V188.5" stroke="white"/>
<path d="M336 186.5V180.5M341 196H343" stroke="white"/>
<path d="M336 201.5V203V203.5M331 196H330H329M345 196H349H351M336 205.5V208.5V211.5M336 213.5V214.5V215.5" stroke="white"/>
<path d="M327 196H322H321M336 178.5V177.5V176.5" stroke="white"/>
<path d="M405 196H404" stroke="white"/>
<path d="M407 190.5V188.5" stroke="white"/>
<path d="M407 186.5V180.5M412 196H414" stroke="white"/>
<path d="M407 201.5V203V203.5M402 196H401H400M416 196H420H422M407 205.5V208.5V211.5M407 213.5V214.5V215.5" stroke="white"/>
<path d="M398 196H393H392M407 178.5V177.5V176.5" stroke="white"/>
<path d="M352.5 196H354.5M357 196H360H363" stroke="white"/>
<path d="M365 196H366H367M369 196H373H375" stroke="white"/>
<path d="M377 196H378H379M381 196H386H387" stroke="white"/>
<path d="M388.5 196H389.5H390.5" stroke="white"/>
<path d="M405.5 196H407M410 196H407M404.5 196H407M407 199.5V196M407 192.5V196" stroke="white"/>
</svg>
