<svg width="4370" height="7835" viewBox="0 0 4370 7835" fill="none" xmlns="http://www.w3.org/2000/svg">
<path d="M4327 7775.5H4368" stroke="black" stroke-width="3"/>
<path d="M4301.5 7775.5H4315.5" stroke="black" stroke-width="3"/>
<path d="M4249 7775.5H4291" stroke="black" stroke-width="3"/>
<path d="M4327.5 7775.5H4369.5" stroke="black" stroke-width="3"/>
<path d="M4171 7775.5H4212" stroke="black" stroke-width="3"/>
<path d="M4145.5 7775.5H4159.5" stroke="black" stroke-width="3"/>
<path d="M4093 7775.5H4135" stroke="black" stroke-width="3"/>
<path d="M4171.5 7775.5H4213.5" stroke="black" stroke-width="3"/>
<path d="M4249.5 7775.5H4290.5" stroke="black" stroke-width="3"/>
<path d="M4224 7775.5H4238" stroke="black" stroke-width="3"/>
<path d="M4249 7775.5H4291" stroke="black" stroke-width="3"/>
<path d="M3703 7775.5H3744" stroke="black" stroke-width="3"/>
<path d="M3677.5 7775.5H3691.5" stroke="black" stroke-width="3"/>
<path d="M3625 7775.5H3667" stroke="black" stroke-width="3"/>
<path d="M3703.5 7775.5H3745.5" stroke="black" stroke-width="3"/>
<path d="M3781.5 7775.5H3822.5" stroke="black" stroke-width="3"/>
<path d="M3756 7775.5H3770" stroke="black" stroke-width="3"/>
<path d="M3781 7775.5H3823" stroke="black" stroke-width="3"/>
<path d="M3547 7775.5H3588" stroke="black" stroke-width="3"/>
<path d="M3521.5 7775.5H3535.5" stroke="black" stroke-width="3"/>
<path d="M3469 7775.5H3511" stroke="black" stroke-width="3"/>
<path d="M3547.5 7775.5H3589.5" stroke="black" stroke-width="3"/>
<path d="M3625.5 7775.5H3666.5" stroke="black" stroke-width="3"/>
<path d="M3600 7775.5H3614" stroke="black" stroke-width="3"/>
<path d="M3625 7775.5H3667" stroke="black" stroke-width="3"/>
<path d="M4015 7775.5H4056" stroke="black" stroke-width="3"/>
<path d="M3989.5 7775.5H4003.5" stroke="black" stroke-width="3"/>
<path d="M3937 7775.5H3979" stroke="black" stroke-width="3"/>
<path d="M4015.5 7775.5H4057.5" stroke="black" stroke-width="3"/>
<path d="M4093.5 7775.5H4134.5" stroke="black" stroke-width="3"/>
<path d="M4068 7775.5H4082" stroke="black" stroke-width="3"/>
<path d="M4093 7775.5H4135" stroke="black" stroke-width="3"/>
<path d="M3859 7775.5H3900" stroke="black" stroke-width="3"/>
<path d="M3833.5 7775.5H3847.5" stroke="black" stroke-width="3"/>
<path d="M3781 7775.5H3823" stroke="black" stroke-width="3"/>
<path d="M3859.5 7775.5H3901.5" stroke="black" stroke-width="3"/>
<path d="M3937.5 7775.5H3978.5" stroke="black" stroke-width="3"/>
<path d="M3912 7775.5H3926" stroke="black" stroke-width="3"/>
<path d="M3937 7775.5H3979" stroke="black" stroke-width="3"/>
<path d="M3781 7775.5H3822" stroke="black" stroke-width="3"/>
<path d="M3755.5 7775.5H3769.5" stroke="black" stroke-width="3"/>
<path d="M3703 7775.5H3745" stroke="black" stroke-width="3"/>
<path d="M3781.5 7775.5H3823.5" stroke="black" stroke-width="3"/>
<path d="M3859.5 7775.5H3900.5" stroke="black" stroke-width="3"/>
<path d="M3834 7775.5H3848" stroke="black" stroke-width="3"/>
<path d="M3859 7775.5H3901" stroke="black" stroke-width="3"/>
<path d="M3625 7775.5H3666" stroke="black" stroke-width="3"/>
<path d="M3599.5 7775.5H3613.5" stroke="black" stroke-width="3"/>
<path d="M3547 7775.5H3589" stroke="black" stroke-width="3"/>
<path d="M3625.5 7775.5H3667.5" stroke="black" stroke-width="3"/>
<path d="M3703.5 7775.5H3744.5" stroke="black" stroke-width="3"/>
<path d="M3678 7775.5H3692" stroke="black" stroke-width="3"/>
<path d="M3703 7775.5H3745" stroke="black" stroke-width="3"/>
<path d="M4093 7775.5H4134" stroke="black" stroke-width="3"/>
<path d="M4067.5 7775.5H4081.5" stroke="black" stroke-width="3"/>
<path d="M4015 7775.5H4057" stroke="black" stroke-width="3"/>
<path d="M4093.5 7775.5H4135.5" stroke="black" stroke-width="3"/>
<path d="M4171.5 7775.5H4212.5" stroke="black" stroke-width="3"/>
<path d="M4146 7775.5H4160" stroke="black" stroke-width="3"/>
<path d="M4171 7775.5H4213" stroke="black" stroke-width="3"/>
<path d="M3937 7775.5H3978" stroke="black" stroke-width="3"/>
<path d="M3911.5 7775.5H3925.5" stroke="black" stroke-width="3"/>
<path d="M3859 7775.5H3901" stroke="black" stroke-width="3"/>
<path d="M3937.5 7775.5H3979.5" stroke="black" stroke-width="3"/>
<path d="M4015.5 7775.5H4056.5" stroke="black" stroke-width="3"/>
<path d="M3990 7775.5H4004" stroke="black" stroke-width="3"/>
<path d="M4015 7775.5H4057" stroke="black" stroke-width="3"/>
<path d="M3235.5 7775.5H3276.5" stroke="black" stroke-width="3"/>
<path d="M3235 7775.5H3277" stroke="black" stroke-width="3"/>
<path d="M3469 7775.5H3510" stroke="black" stroke-width="3"/>
<path d="M3443.5 7775.5H3457.5" stroke="black" stroke-width="3"/>
<path d="M3391 7775.5H3433" stroke="black" stroke-width="3"/>
<path d="M3469.5 7775.5H3511.5" stroke="black" stroke-width="3"/>
<path d="M3547.5 7775.5H3588.5" stroke="black" stroke-width="3"/>
<path d="M3522 7775.5H3536" stroke="black" stroke-width="3"/>
<path d="M3547 7775.5H3589" stroke="black" stroke-width="3"/>
<path d="M3313 7775.5H3354" stroke="black" stroke-width="3"/>
<path d="M3287.5 7775.5H3301.5" stroke="black" stroke-width="3"/>
<path d="M3235 7775.5H3277" stroke="black" stroke-width="3"/>
<path d="M3313.5 7775.5H3355.5" stroke="black" stroke-width="3"/>
<path d="M3391.5 7775.5H3432.5" stroke="black" stroke-width="3"/>
<path d="M3366 7775.5H3380" stroke="black" stroke-width="3"/>
<path d="M3391 7775.5H3433" stroke="black" stroke-width="3"/>
<path d="M4327 7775.5H4368" stroke="black" stroke-width="3"/>
<path d="M4301.5 7775.5H4315.5" stroke="black" stroke-width="3"/>
<path d="M4249 7775.5H4291" stroke="black" stroke-width="3"/>
<path d="M4327.5 7775.5H4369.5" stroke="black" stroke-width="3"/>
<path d="M4171 7775.5H4212" stroke="black" stroke-width="3"/>
<path d="M4145.5 7775.5H4159.5" stroke="black" stroke-width="3"/>
<path d="M4093 7775.5H4135" stroke="black" stroke-width="3"/>
<path d="M4171.5 7775.5H4213.5" stroke="black" stroke-width="3"/>
<path d="M4249.5 7775.5H4290.5" stroke="black" stroke-width="3"/>
<path d="M4224 7775.5H4238" stroke="black" stroke-width="3"/>
<path d="M4249 7775.5H4291" stroke="black" stroke-width="3"/>
<path d="M3703 7775.5H3744" stroke="black" stroke-width="3"/>
<path d="M3677.5 7775.5H3691.5" stroke="black" stroke-width="3"/>
<path d="M3625 7775.5H3667" stroke="black" stroke-width="3"/>
<path d="M3703.5 7775.5H3745.5" stroke="black" stroke-width="3"/>
<path d="M3781.5 7775.5H3822.5" stroke="black" stroke-width="3"/>
<path d="M3756 7775.5H3770" stroke="black" stroke-width="3"/>
<path d="M3781 7775.5H3823" stroke="black" stroke-width="3"/>
<path d="M3547 7775.5H3588" stroke="black" stroke-width="3"/>
<path d="M3521.5 7775.5H3535.5" stroke="black" stroke-width="3"/>
<path d="M3469 7775.5H3511" stroke="black" stroke-width="3"/>
<path d="M3547.5 7775.5H3589.5" stroke="black" stroke-width="3"/>
<path d="M3625.5 7775.5H3666.5" stroke="black" stroke-width="3"/>
<path d="M3600 7775.5H3614" stroke="black" stroke-width="3"/>
<path d="M3625 7775.5H3667" stroke="black" stroke-width="3"/>
<path d="M4015 7775.5H4056" stroke="black" stroke-width="3"/>
<path d="M3989.5 7775.5H4003.5" stroke="black" stroke-width="3"/>
<path d="M3937 7775.5H3979" stroke="black" stroke-width="3"/>
<path d="M4015.5 7775.5H4057.5" stroke="black" stroke-width="3"/>
<path d="M4093.5 7775.5H4134.5" stroke="black" stroke-width="3"/>
<path d="M4068 7775.5H4082" stroke="black" stroke-width="3"/>
<path d="M4093 7775.5H4135" stroke="black" stroke-width="3"/>
<path d="M3859 7775.5H3900" stroke="black" stroke-width="3"/>
<path d="M3833.5 7775.5H3847.5" stroke="black" stroke-width="3"/>
<path d="M3781 7775.5H3823" stroke="black" stroke-width="3"/>
<path d="M3859.5 7775.5H3901.5" stroke="black" stroke-width="3"/>
<path d="M3937.5 7775.5H3978.5" stroke="black" stroke-width="3"/>
<path d="M3912 7775.5H3926" stroke="black" stroke-width="3"/>
<path d="M3937 7775.5H3979" stroke="black" stroke-width="3"/>
<path d="M3781 7775.5H3822" stroke="black" stroke-width="3"/>
<path d="M3755.5 7775.5H3769.5" stroke="black" stroke-width="3"/>
<path d="M3703 7775.5H3745" stroke="black" stroke-width="3"/>
<path d="M3781.5 7775.5H3823.5" stroke="black" stroke-width="3"/>
<path d="M3859.5 7775.5H3900.5" stroke="black" stroke-width="3"/>
<path d="M3834 7775.5H3848" stroke="black" stroke-width="3"/>
<path d="M3859 7775.5H3901" stroke="black" stroke-width="3"/>
<path d="M3625 7775.5H3666" stroke="black" stroke-width="3"/>
<path d="M3599.5 7775.5H3613.5" stroke="black" stroke-width="3"/>
<path d="M3547 7775.5H3589" stroke="black" stroke-width="3"/>
<path d="M3625.5 7775.5H3667.5" stroke="black" stroke-width="3"/>
<path d="M3703.5 7775.5H3744.5" stroke="black" stroke-width="3"/>
<path d="M3678 7775.5H3692" stroke="black" stroke-width="3"/>
<path d="M3703 7775.5H3745" stroke="black" stroke-width="3"/>
<path d="M4093 7775.5H4134" stroke="black" stroke-width="3"/>
<path d="M4067.5 7775.5H4081.5" stroke="black" stroke-width="3"/>
<path d="M4015 7775.5H4057" stroke="black" stroke-width="3"/>
<path d="M4093.5 7775.5H4135.5" stroke="black" stroke-width="3"/>
<path d="M4171.5 7775.5H4212.5" stroke="black" stroke-width="3"/>
<path d="M4146 7775.5H4160" stroke="black" stroke-width="3"/>
<path d="M4171 7775.5H4213" stroke="black" stroke-width="3"/>
<path d="M3937 7775.5H3978" stroke="black" stroke-width="3"/>
<path d="M3911.5 7775.5H3925.5" stroke="black" stroke-width="3"/>
<path d="M3859 7775.5H3901" stroke="black" stroke-width="3"/>
<path d="M3937.5 7775.5H3979.5" stroke="black" stroke-width="3"/>
<path d="M4015.5 7775.5H4056.5" stroke="black" stroke-width="3"/>
<path d="M3990 7775.5H4004" stroke="black" stroke-width="3"/>
<path d="M4015 7775.5H4057" stroke="black" stroke-width="3"/>
<path d="M3235.5 7775.5H3276.5" stroke="black" stroke-width="3"/>
<path d="M3235 7775.5H3277" stroke="black" stroke-width="3"/>
<path d="M3469 7775.5H3510" stroke="black" stroke-width="3"/>
<path d="M3443.5 7775.5H3457.5" stroke="black" stroke-width="3"/>
<path d="M3391 7775.5H3433" stroke="black" stroke-width="3"/>
<path d="M3469.5 7775.5H3511.5" stroke="black" stroke-width="3"/>
<path d="M3547.5 7775.5H3588.5" stroke="black" stroke-width="3"/>
<path d="M3522 7775.5H3536" stroke="black" stroke-width="3"/>
<path d="M3547 7775.5H3589" stroke="black" stroke-width="3"/>
<path d="M3313 7775.5H3354" stroke="black" stroke-width="3"/>
<path d="M3287.5 7775.5H3301.5" stroke="black" stroke-width="3"/>
<path d="M3235 7775.5H3277" stroke="black" stroke-width="3"/>
<path d="M3313.5 7775.5H3355.5" stroke="black" stroke-width="3"/>
<path d="M3391.5 7775.5H3432.5" stroke="black" stroke-width="3"/>
<path d="M3366 7775.5H3380" stroke="black" stroke-width="3"/>
<path d="M3391 7775.5H3433" stroke="black" stroke-width="3"/>
<path d="M3580 7755.5V7741.5" stroke="black"/>
<path d="M3580 7808V7766" stroke="black"/>
<path d="M3580 7807.5V7766.5" stroke="black"/>
<path d="M3580 7833V7819" stroke="black"/>
<path d="M3580 7808V7766" stroke="black"/>
<path d="M3580 7755.5V7741.5" stroke="black"/>
<path d="M3580 7808V7766" stroke="black"/>
<path d="M3580 7807.5V7766.5" stroke="black"/>
<path d="M3580 7833V7819" stroke="black"/>
<path d="M3580 7808V7766" stroke="black"/>
<path d="M3799 7755.5V7741.5" stroke="black" stroke-width="3"/>
<path d="M3799 7808V7766" stroke="black" stroke-width="3"/>
<path d="M3799 7807.5V7766.5" stroke="black" stroke-width="3"/>
<path d="M3799 7833V7819" stroke="black" stroke-width="3"/>
<path d="M3799 7808V7766" stroke="black" stroke-width="3"/>
<path d="M3799 7755.5V7741.5" stroke="black" stroke-width="3"/>
<path d="M3799 7808V7766" stroke="black" stroke-width="3"/>
<path d="M3799 7807.5V7766.5" stroke="black" stroke-width="3"/>
<path d="M3799 7833V7819" stroke="black" stroke-width="3"/>
<path d="M3799 7808V7766" stroke="black" stroke-width="3"/>
<path d="M4243 7757.5V7743.5" stroke="black" stroke-width="3"/>
<path d="M4243 7810V7768" stroke="black" stroke-width="3"/>
<path d="M4243 7809.5V7768.5" stroke="black" stroke-width="3"/>
<path d="M4243 7835V7821" stroke="black" stroke-width="3"/>
<path d="M4243 7810V7768" stroke="black" stroke-width="3"/>
<path d="M4243 7757.5V7743.5" stroke="black" stroke-width="3"/>
<path d="M4243 7810V7768" stroke="black" stroke-width="3"/>
<path d="M4243 7809.5V7768.5" stroke="black" stroke-width="3"/>
<path d="M4243 7835V7821" stroke="black" stroke-width="3"/>
<path d="M4243 7810V7768" stroke="black" stroke-width="3"/>
<path d="M4021 7756.5V7742.5" stroke="black" stroke-width="3"/>
<path d="M4021 7809V7767" stroke="black" stroke-width="3"/>
<path d="M4021 7808.5V7767.5" stroke="black" stroke-width="3"/>
<path d="M4021 7834V7820" stroke="black" stroke-width="3"/>
<path d="M4021 7809V7767" stroke="black" stroke-width="3"/>
<path d="M4021 7756.5V7742.5" stroke="black" stroke-width="3"/>
<path d="M4021 7809V7767" stroke="black" stroke-width="3"/>
<path d="M4021 7808.5V7767.5" stroke="black" stroke-width="3"/>
<path d="M4021 7834V7820" stroke="black" stroke-width="3"/>
<path d="M4021 7809V7767" stroke="black" stroke-width="3"/>
<path d="M3580 7755.5V7741.5" stroke="black" stroke-width="3"/>
<path d="M3580 7808V7766" stroke="black" stroke-width="3"/>
<path d="M3580 7807.5V7766.5" stroke="black" stroke-width="3"/>
<path d="M3580 7833V7819" stroke="black" stroke-width="3"/>
<path d="M3580 7808V7766" stroke="black" stroke-width="3"/>
<path d="M3580 7755.5V7741.5" stroke="black" stroke-width="3"/>
<path d="M3580 7808V7766" stroke="black" stroke-width="3"/>
<path d="M3580 7807.5V7766.5" stroke="black" stroke-width="3"/>
<path d="M3580 7833V7819" stroke="black" stroke-width="3"/>
<path d="M3580 7808V7766" stroke="black" stroke-width="3"/>
<path d="M1092 266H1106" stroke="white" stroke-width="3"/>
<path d="M1039.5 266H1081.5" stroke="white" stroke-width="3"/>
<path d="M961.5 266H1002.5" stroke="white" stroke-width="3"/>
<path d="M936 266H950" stroke="white" stroke-width="3"/>
<path d="M883.5 266H925.5" stroke="white" stroke-width="3"/>
<path d="M962 266H1004" stroke="white" stroke-width="3"/>
<path d="M1040 266H1081" stroke="white" stroke-width="3"/>
<path d="M1014.5 266H1028.5" stroke="white" stroke-width="3"/>
<path d="M1039.5 266H1081.5" stroke="white" stroke-width="3"/>
<path d="M493.5 266H534.5" stroke="white" stroke-width="3"/>
<path d="M468 266H482" stroke="white" stroke-width="3"/>
<path d="M415.5 266H457.5" stroke="white" stroke-width="3"/>
<path d="M494 266H536" stroke="white" stroke-width="3"/>
<path d="M572 266H613" stroke="white" stroke-width="3"/>
<path d="M546.5 266H560.5" stroke="white" stroke-width="3"/>
<path d="M571.5 266H613.5" stroke="white" stroke-width="3"/>
<path d="M337.5 266H378.5" stroke="white" stroke-width="3"/>
<path d="M312 266H326" stroke="white" stroke-width="3"/>
<path d="M259.5 266H301.5" stroke="white" stroke-width="3"/>
<path d="M338 266H380" stroke="white" stroke-width="3"/>
<path d="M416 266H457" stroke="white" stroke-width="3"/>
<path d="M390.5 266H404.5" stroke="white" stroke-width="3"/>
<path d="M415.5 266H457.5" stroke="white" stroke-width="3"/>
<path d="M805.5 266H846.5" stroke="white" stroke-width="3"/>
<path d="M780 266H794" stroke="white" stroke-width="3"/>
<path d="M727.5 266H769.5" stroke="white" stroke-width="3"/>
<path d="M806 266H848" stroke="white" stroke-width="3"/>
<path d="M884 266H925" stroke="white" stroke-width="3"/>
<path d="M858.5 266H872.5" stroke="white" stroke-width="3"/>
<path d="M883.5 266H925.5" stroke="white" stroke-width="3"/>
<path d="M649.5 266H690.5" stroke="white" stroke-width="3"/>
<path d="M624 266H638" stroke="white" stroke-width="3"/>
<path d="M571.5 266H613.5" stroke="white" stroke-width="3"/>
<path d="M650 266H692" stroke="white" stroke-width="3"/>
<path d="M728 266H769" stroke="white" stroke-width="3"/>
<path d="M702.5 266H716.5" stroke="white" stroke-width="3"/>
<path d="M727.5 266H769.5" stroke="white" stroke-width="3"/>
<path d="M571.5 266H612.5" stroke="white" stroke-width="3"/>
<path d="M546 266H560" stroke="white" stroke-width="3"/>
<path d="M493.5 266H535.5" stroke="white" stroke-width="3"/>
<path d="M572 266H614" stroke="white" stroke-width="3"/>
<path d="M650 266H691" stroke="white" stroke-width="3"/>
<path d="M624.5 266H638.5" stroke="white" stroke-width="3"/>
<path d="M649.5 266H691.5" stroke="white" stroke-width="3"/>
<path d="M415.5 266H456.5" stroke="white" stroke-width="3"/>
<path d="M390 266H404" stroke="white" stroke-width="3"/>
<path d="M337.5 266H379.5" stroke="white" stroke-width="3"/>
<path d="M416 266H458" stroke="white" stroke-width="3"/>
<path d="M494 266H535" stroke="white" stroke-width="3"/>
<path d="M468.5 266H482.5" stroke="white" stroke-width="3"/>
<path d="M493.5 266H535.5" stroke="white" stroke-width="3"/>
<path d="M883.5 266H924.5" stroke="white" stroke-width="3"/>
<path d="M858 266H872" stroke="white" stroke-width="3"/>
<path d="M805.5 266H847.5" stroke="white" stroke-width="3"/>
<path d="M884 266H926" stroke="white" stroke-width="3"/>
<path d="M962 266H1003" stroke="white" stroke-width="3"/>
<path d="M936.5 266H950.5" stroke="white" stroke-width="3"/>
<path d="M961.5 266H1003.5" stroke="white" stroke-width="3"/>
<path d="M727.5 266H768.5" stroke="white" stroke-width="3"/>
<path d="M702 266H716" stroke="white" stroke-width="3"/>
<path d="M649.5 266H691.5" stroke="white" stroke-width="3"/>
<path d="M728 266H770" stroke="white" stroke-width="3"/>
<path d="M806 266H847" stroke="white" stroke-width="3"/>
<path d="M780.5 266H794.5" stroke="white" stroke-width="3"/>
<path d="M805.5 266H847.5" stroke="white" stroke-width="3"/>
<path d="M259.5 266H300.5" stroke="white" stroke-width="3"/>
<path d="M234 266H248" stroke="white" stroke-width="3"/>
<path d="M181.5 266H223.5" stroke="white" stroke-width="3"/>
<path d="M260 266H302" stroke="white" stroke-width="3"/>
<path d="M338 266H379" stroke="white" stroke-width="3"/>
<path d="M312.5 266H326.5" stroke="white" stroke-width="3"/>
<path d="M337.5 266H379.5" stroke="white" stroke-width="3"/>
<path d="M103.5 266H144.5" stroke="white" stroke-width="3"/>
<path d="M78 266H92" stroke="white" stroke-width="3"/>
<path d="M104 266H146" stroke="white" stroke-width="3"/>
<path d="M182 266H223" stroke="white" stroke-width="3"/>
<path d="M156.5 266H170.5" stroke="white" stroke-width="3"/>
<path d="M181.5 266H223.5" stroke="white" stroke-width="3"/>
<path d="M1092 266H1106" stroke="white" stroke-width="3"/>
<path d="M1039.5 266H1081.5" stroke="white" stroke-width="3"/>
<path d="M961.5 266H1002.5" stroke="white" stroke-width="3"/>
<path d="M936 266H950" stroke="white" stroke-width="3"/>
<path d="M883.5 266H925.5" stroke="white" stroke-width="3"/>
<path d="M962 266H1004" stroke="white" stroke-width="3"/>
<path d="M1040 266H1081" stroke="white" stroke-width="3"/>
<path d="M1014.5 266H1028.5" stroke="white" stroke-width="3"/>
<path d="M1039.5 266H1081.5" stroke="white" stroke-width="3"/>
<path d="M493.5 266H534.5" stroke="white" stroke-width="3"/>
<path d="M468 266H482" stroke="white" stroke-width="3"/>
<path d="M415.5 266H457.5" stroke="white" stroke-width="3"/>
<path d="M494 266H536" stroke="white" stroke-width="3"/>
<path d="M572 266H613" stroke="white" stroke-width="3"/>
<path d="M546.5 266H560.5" stroke="white" stroke-width="3"/>
<path d="M571.5 266H613.5" stroke="white" stroke-width="3"/>
<path d="M337.5 266H378.5" stroke="white" stroke-width="3"/>
<path d="M312 266H326" stroke="white" stroke-width="3"/>
<path d="M259.5 266H301.5" stroke="white" stroke-width="3"/>
<path d="M338 266H380" stroke="white" stroke-width="3"/>
<path d="M416 266H457" stroke="white" stroke-width="3"/>
<path d="M390.5 266H404.5" stroke="white" stroke-width="3"/>
<path d="M415.5 266H457.5" stroke="white" stroke-width="3"/>
<path d="M805.5 266H846.5" stroke="white" stroke-width="3"/>
<path d="M780 266H794" stroke="white" stroke-width="3"/>
<path d="M727.5 266H769.5" stroke="white" stroke-width="3"/>
<path d="M806 266H848" stroke="white" stroke-width="3"/>
<path d="M884 266H925" stroke="white" stroke-width="3"/>
<path d="M858.5 266H872.5" stroke="white" stroke-width="3"/>
<path d="M883.5 266H925.5" stroke="white" stroke-width="3"/>
<path d="M649.5 266H690.5" stroke="white" stroke-width="3"/>
<path d="M624 266H638" stroke="white" stroke-width="3"/>
<path d="M571.5 266H613.5" stroke="white" stroke-width="3"/>
<path d="M650 266H692" stroke="white" stroke-width="3"/>
<path d="M728 266H769" stroke="white" stroke-width="3"/>
<path d="M702.5 266H716.5" stroke="white" stroke-width="3"/>
<path d="M727.5 266H769.5" stroke="white" stroke-width="3"/>
<path d="M571.5 266H612.5" stroke="white" stroke-width="3"/>
<path d="M546 266H560" stroke="white" stroke-width="3"/>
<path d="M493.5 266H535.5" stroke="white" stroke-width="3"/>
<path d="M572 266H614" stroke="white" stroke-width="3"/>
<path d="M650 266H691" stroke="white" stroke-width="3"/>
<path d="M624.5 266H638.5" stroke="white" stroke-width="3"/>
<path d="M649.5 266H691.5" stroke="white" stroke-width="3"/>
<path d="M415.5 266H456.5" stroke="white" stroke-width="3"/>
<path d="M390 266H404" stroke="white" stroke-width="3"/>
<path d="M337.5 266H379.5" stroke="white" stroke-width="3"/>
<path d="M416 266H458" stroke="white" stroke-width="3"/>
<path d="M494 266H535" stroke="white" stroke-width="3"/>
<path d="M468.5 266H482.5" stroke="white" stroke-width="3"/>
<path d="M493.5 266H535.5" stroke="white" stroke-width="3"/>
<path d="M883.5 266H924.5" stroke="white" stroke-width="3"/>
<path d="M858 266H872" stroke="white" stroke-width="3"/>
<path d="M805.5 266H847.5" stroke="white" stroke-width="3"/>
<path d="M884 266H926" stroke="white" stroke-width="3"/>
<path d="M962 266H1003" stroke="white" stroke-width="3"/>
<path d="M936.5 266H950.5" stroke="white" stroke-width="3"/>
<path d="M961.5 266H1003.5" stroke="white" stroke-width="3"/>
<path d="M1198.5 266H1239.5" stroke="white" stroke-width="3"/>
<path d="M1173 266H1187" stroke="white" stroke-width="3"/>
<path d="M1120.5 266H1162.5" stroke="white" stroke-width="3"/>
<path d="M1199 266H1241" stroke="white" stroke-width="3"/>
<path d="M1121 266H1162" stroke="white" stroke-width="3"/>
<path d="M1095.5 266H1109.5" stroke="white" stroke-width="3"/>
<path d="M1120.5 266H1162.5" stroke="white" stroke-width="3"/>
<path d="M1120.5 266H1161.5" stroke="white" stroke-width="3"/>
<path d="M1095 266H1109" stroke="white" stroke-width="3"/>
<path d="M1121 266H1163" stroke="white" stroke-width="3"/>
<path d="M1199 266H1240" stroke="white" stroke-width="3"/>
<path d="M1173.5 266H1187.5" stroke="white" stroke-width="3"/>
<path d="M1198.5 266H1240.5" stroke="white" stroke-width="3"/>
<path d="M1198.5 266H1239.5" stroke="white" stroke-width="3"/>
<path d="M1173 266H1187" stroke="white" stroke-width="3"/>
<path d="M1120.5 266H1162.5" stroke="white" stroke-width="3"/>
<path d="M1199 266H1241" stroke="white" stroke-width="3"/>
<path d="M1121 266H1162" stroke="white" stroke-width="3"/>
<path d="M1095.5 266H1109.5" stroke="white" stroke-width="3"/>
<path d="M1120.5 266H1162.5" stroke="white" stroke-width="3"/>
<path d="M1120.5 266H1161.5" stroke="white" stroke-width="3"/>
<path d="M1095 266H1109" stroke="white" stroke-width="3"/>
<path d="M1199 266H1240" stroke="white" stroke-width="3"/>
<path d="M1173.5 266H1187.5" stroke="white" stroke-width="3"/>
<path d="M1198.5 266H1240.5" stroke="white" stroke-width="3"/>
<path d="M727.5 266H768.5" stroke="white" stroke-width="3"/>
<path d="M702 266H716" stroke="white" stroke-width="3"/>
<path d="M649.5 266H691.5" stroke="white" stroke-width="3"/>
<path d="M728 266H770" stroke="white" stroke-width="3"/>
<path d="M806 266H847" stroke="white" stroke-width="3"/>
<path d="M780.5 266H794.5" stroke="white" stroke-width="3"/>
<path d="M805.5 266H847.5" stroke="white" stroke-width="3"/>
<path d="M259.5 266H300.5" stroke="white" stroke-width="3"/>
<path d="M234 266H248" stroke="white" stroke-width="3"/>
<path d="M181.5 266H223.5" stroke="white" stroke-width="3"/>
<path d="M260 266H302" stroke="white" stroke-width="3"/>
<path d="M338 266H379" stroke="white" stroke-width="3"/>
<path d="M312.5 266H326.5" stroke="white" stroke-width="3"/>
<path d="M337.5 266H379.5" stroke="white" stroke-width="3"/>
<path d="M103.5 266H144.5" stroke="white" stroke-width="3"/>
<path d="M78 266H92" stroke="white" stroke-width="3"/>
<path d="M104 266H146" stroke="white" stroke-width="3"/>
<path d="M182 266H223" stroke="white" stroke-width="3"/>
<path d="M156.5 266H170.5" stroke="white" stroke-width="3"/>
<path d="M181.5 266H223.5" stroke="white" stroke-width="3"/>
<path d="M156 266H170" stroke="white" stroke-width="3"/>
<path d="M103.5 266H145.5" stroke="white" stroke-width="3"/>
<path d="M25.5 266H66.5" stroke="white" stroke-width="3"/>
<path d="M0 266H14" stroke="white" stroke-width="3"/>
<path d="M26 266H68" stroke="white" stroke-width="3"/>
<path d="M104 266H145" stroke="white" stroke-width="3"/>
<path d="M78.5 266H92.5" stroke="white" stroke-width="3"/>
<path d="M103.5 266H145.5" stroke="white" stroke-width="3"/>
<path d="M156 266H170" stroke="white" stroke-width="3"/>
<path d="M103.5 266H145.5" stroke="white" stroke-width="3"/>
<path d="M25.5 266H66.5" stroke="white" stroke-width="3"/>
<path d="M0 266H14" stroke="white" stroke-width="3"/>
<path d="M26 266H68" stroke="white" stroke-width="3"/>
<path d="M104 266H145" stroke="white" stroke-width="3"/>
<path d="M78.5 266H92.5" stroke="white" stroke-width="3"/>
<path d="M103.5 266H145.5" stroke="white" stroke-width="3"/>
<path d="M1186.5 386.5H72C69.7909 386.5 68 384.709 68 382.5V343.886C68 342.692 67.4664 341.56 66.5451 340.8L20.6084 302.914C19.8919 302.323 18.9921 302 18.0633 302H15C12.7909 302 11 300.209 11 298V206C11 203.791 12.7909 202 15 202H143M143 202V150.5C143 148.291 144.791 146.5 147 146.5H171.5C173.709 146.5 175.5 144.709 175.5 142.5V110C175.5 107.791 177.291 106 179.5 106H223H227.5C229.709 106 231.5 104.209 231.5 102V70.0089C231.5 68.0318 233.028 66.3909 235 66.25C236.972 66.1091 238.5 64.4682 238.5 62.4911V11C238.5 8.79086 240.291 7 242.5 7H275.5C277.709 7 279.5 8.79086 279.5 11V66.5V102C279.5 104.209 281.291 106 283.5 106H291C293.209 106 295 104.209 295 102V70.5C295 68.2909 296.791 66.5 299 66.5H315C317.209 66.5 319 68.2909 319 70.5V108.5V111.5C319 113.709 317.209 115.5 315 115.5C312.791 115.5 311 117.291 311 119.5V234.5M143 202H181.956C183.24 202 184.445 202.616 185.198 203.656L206.302 232.844C207.055 233.884 208.26 234.5 209.544 234.5H311M311 234.5H1018.94C1019.94 234.5 1020.91 234.121 1021.65 233.439L1045.35 211.561C1046.09 210.879 1047.06 210.5 1048.06 210.5H1264.47C1268.01 210.5 1269.81 214.772 1267.32 217.302L1194.18 291.802C1193.42 292.568 1192.4 293 1191.32 293H1190.5C1188.29 293 1186.5 294.791 1186.5 297V341" stroke="white" stroke-width="3"/>
<path d="M226.25 106H283.5M236 66H280M242.5 6.5V1.5H275.5L275.5 7" stroke="white" stroke-width="3"/>
<path d="M242.5 1.5H275.5" stroke="white" stroke-width="3"/>
<path d="M77.5 386.5H28C23.0294 386.5 19 382.471 19 377.5V351C19 346.029 23.0294 342 28 342H68" stroke="white" stroke-width="3"/>
<path d="M68 381.5V386" stroke="white" stroke-width="3"/>
<path d="M19 302H1186.5" stroke="white" stroke-width="3"/>
<path d="M1185 386.5C1203.49 386.5 1219 376.38 1219 363.258C1219 350.137 1204.01 339.5 1185.52 339.5" stroke="white" stroke-width="3"/>
<path d="M435 238V216" stroke="white"/>
<path d="M435 238V215" stroke="white"/>
<path d="M435 196V174" stroke="white"/>
<path d="M435 210V202" stroke="white"/>
<path d="M435 196V174" stroke="white"/>
<path d="M435 155V133" stroke="white"/>
<path d="M435 168V161" stroke="white"/>
<path d="M435 196V174" stroke="white"/>
<path d="M435 154V132" stroke="white"/>
<path d="M435 238V216" stroke="white"/>
<path d="M435 238V215" stroke="white"/>
<path d="M435 196V174" stroke="white"/>
<path d="M435 210V202" stroke="white"/>
<path d="M435 196V174" stroke="white"/>
<path d="M435 155V133" stroke="white"/>
<path d="M435 168V161" stroke="white"/>
<path d="M435 196V174" stroke="white"/>
<path d="M435 154V132" stroke="white"/>
<path d="M590 238V216" stroke="white" stroke-width="3"/>
<path d="M590 238V215" stroke="white" stroke-width="3"/>
<path d="M590 196V174" stroke="white" stroke-width="3"/>
<path d="M590 210V202" stroke="white" stroke-width="3"/>
<path d="M590 196V174" stroke="white" stroke-width="3"/>
<path d="M590 155V133" stroke="white" stroke-width="3"/>
<path d="M590 168V161" stroke="white" stroke-width="3"/>
<path d="M590 196V174" stroke="white" stroke-width="3"/>
<path d="M590 154V132" stroke="white" stroke-width="3"/>
<path d="M590 238V216" stroke="white" stroke-width="3"/>
<path d="M590 238V215" stroke="white" stroke-width="3"/>
<path d="M590 196V174" stroke="white" stroke-width="3"/>
<path d="M590 210V202" stroke="white" stroke-width="3"/>
<path d="M590 196V174" stroke="white" stroke-width="3"/>
<path d="M590 155V133" stroke="white" stroke-width="3"/>
<path d="M590 168V161" stroke="white" stroke-width="3"/>
<path d="M590 196V174" stroke="white" stroke-width="3"/>
<path d="M590 154V132" stroke="white" stroke-width="3"/>
<path d="M904 239V217" stroke="white" stroke-width="3"/>
<path d="M904 239V216" stroke="white" stroke-width="3"/>
<path d="M904 197V175" stroke="white" stroke-width="3"/>
<path d="M904 211V203" stroke="white" stroke-width="3"/>
<path d="M904 197V175" stroke="white" stroke-width="3"/>
<path d="M904 156V134" stroke="white" stroke-width="3"/>
<path d="M904 169V162" stroke="white" stroke-width="3"/>
<path d="M904 197V175" stroke="white" stroke-width="3"/>
<path d="M904 155V133" stroke="white" stroke-width="3"/>
<path d="M904 239V217" stroke="white" stroke-width="3"/>
<path d="M904 239V216" stroke="white" stroke-width="3"/>
<path d="M904 197V175" stroke="white" stroke-width="3"/>
<path d="M904 211V203" stroke="white" stroke-width="3"/>
<path d="M904 197V175" stroke="white" stroke-width="3"/>
<path d="M904 156V134" stroke="white" stroke-width="3"/>
<path d="M904 169V162" stroke="white" stroke-width="3"/>
<path d="M904 197V175" stroke="white" stroke-width="3"/>
<path d="M904 155V133" stroke="white" stroke-width="3"/>
<path d="M747 238V217" stroke="white" stroke-width="3"/>
<path d="M747 238V216" stroke="white" stroke-width="3"/>
<path d="M747 197V175" stroke="white" stroke-width="3"/>
<path d="M747 210V203" stroke="white" stroke-width="3"/>
<path d="M747 197V174" stroke="white" stroke-width="3"/>
<path d="M747 155V133" stroke="white" stroke-width="3"/>
<path d="M747 169V161" stroke="white" stroke-width="3"/>
<path d="M747 197V174" stroke="white" stroke-width="3"/>
<path d="M747 155V133" stroke="white" stroke-width="3"/>
<path d="M747 238V217" stroke="white" stroke-width="3"/>
<path d="M747 238V216" stroke="white" stroke-width="3"/>
<path d="M747 197V175" stroke="white" stroke-width="3"/>
<path d="M747 210V203" stroke="white" stroke-width="3"/>
<path d="M747 197V174" stroke="white" stroke-width="3"/>
<path d="M747 155V133" stroke="white" stroke-width="3"/>
<path d="M747 169V161" stroke="white" stroke-width="3"/>
<path d="M747 197V174" stroke="white" stroke-width="3"/>
<path d="M747 155V133" stroke="white" stroke-width="3"/>
<path d="M435 238V216" stroke="white" stroke-width="3"/>
<path d="M435 238V215" stroke="white" stroke-width="3"/>
<path d="M435 196V174" stroke="white" stroke-width="3"/>
<path d="M435 210V202" stroke="white" stroke-width="3"/>
<path d="M435 196V174" stroke="white" stroke-width="3"/>
<path d="M435 155V133" stroke="white" stroke-width="3"/>
<path d="M435 168V161" stroke="white" stroke-width="3"/>
<path d="M435 196V174" stroke="white" stroke-width="3"/>
<path d="M435 154V132" stroke="white" stroke-width="3"/>
<path d="M435 238V216" stroke="white" stroke-width="3"/>
<path d="M435 238V215" stroke="white" stroke-width="3"/>
<path d="M435 196V174" stroke="white" stroke-width="3"/>
<path d="M435 210V202" stroke="white" stroke-width="3"/>
<path d="M435 196V174" stroke="white" stroke-width="3"/>
<path d="M435 155V133" stroke="white" stroke-width="3"/>
<path d="M435 168V161" stroke="white" stroke-width="3"/>
<path d="M435 196V174" stroke="white" stroke-width="3"/>
<path d="M435 238V216" stroke="white"/>
<path d="M435 238V215" stroke="white"/>
<path d="M435 196V174" stroke="white"/>
<path d="M435 210V202" stroke="white"/>
<path d="M435 196V174" stroke="white"/>
<path d="M435 196V174" stroke="white"/>
<path d="M435 238V216" stroke="white"/>
<path d="M435 238V215" stroke="white"/>
<path d="M435 196V174" stroke="white"/>
<path d="M435 210V202" stroke="white"/>
<path d="M435 196V174" stroke="white"/>
<path d="M435 196V174" stroke="white"/>
<path d="M435 238V216" stroke="white" stroke-width="3"/>
<path d="M435 238V215" stroke="white" stroke-width="3"/>
<path d="M435 196V174" stroke="white" stroke-width="3"/>
<path d="M435 210V202" stroke="white" stroke-width="3"/>
<path d="M435 196V174" stroke="white" stroke-width="3"/>
<path d="M435 196V174" stroke="white" stroke-width="3"/>
<path d="M435 238V216" stroke="white" stroke-width="3"/>
<path d="M435 238V215" stroke="white" stroke-width="3"/>
<path d="M435 196V174" stroke="white" stroke-width="3"/>
<path d="M435 210V202" stroke="white" stroke-width="3"/>
<path d="M435 196V174" stroke="white" stroke-width="3"/>
<path d="M435 279V257" stroke="white"/>
<path d="M435 279V256" stroke="white"/>
<path d="M435 237V215" stroke="white"/>
<path d="M435 251V243" stroke="white"/>
<path d="M435 237V215" stroke="white"/>
<path d="M435 237V215" stroke="white"/>
<path d="M435 279V257" stroke="white"/>
<path d="M435 279V256" stroke="white"/>
<path d="M435 237V215" stroke="white"/>
<path d="M435 251V243" stroke="white"/>
<path d="M435 237V215" stroke="white"/>
<path d="M435 237V215" stroke="white"/>
<path d="M435 279V257" stroke="white" stroke-width="3"/>
<path d="M435 279V256" stroke="white" stroke-width="3"/>
<path d="M435 237V215" stroke="white" stroke-width="3"/>
<path d="M435 251V243" stroke="white" stroke-width="3"/>
<path d="M435 237V215" stroke="white" stroke-width="3"/>
<path d="M435 237V215" stroke="white" stroke-width="3"/>
<path d="M435 279V257" stroke="white" stroke-width="3"/>
<path d="M435 279V256" stroke="white" stroke-width="3"/>
<path d="M435 237V215" stroke="white" stroke-width="3"/>
<path d="M435 251V243" stroke="white" stroke-width="3"/>
<path d="M435 237V215" stroke="white" stroke-width="3"/>
<path d="M435 237V215" stroke="white" stroke-width="3"/>
<path d="M590 279V257" stroke="white"/>
<path d="M590 279V256" stroke="white"/>
<path d="M590 237V215" stroke="white"/>
<path d="M590 251V243" stroke="white"/>
<path d="M590 237V215" stroke="white"/>
<path d="M590 237V215" stroke="white"/>
<path d="M590 279V257" stroke="white"/>
<path d="M590 279V256" stroke="white"/>
<path d="M590 237V215" stroke="white"/>
<path d="M590 251V243" stroke="white"/>
<path d="M590 237V215" stroke="white"/>
<path d="M590 237V215" stroke="white"/>
<path d="M590 279V257" stroke="white" stroke-width="3"/>
<path d="M590 279V256" stroke="white" stroke-width="3"/>
<path d="M590 237V215" stroke="white" stroke-width="3"/>
<path d="M590 251V243" stroke="white" stroke-width="3"/>
<path d="M590 237V215" stroke="white" stroke-width="3"/>
<path d="M590 237V215" stroke="white" stroke-width="3"/>
<path d="M590 279V257" stroke="white" stroke-width="3"/>
<path d="M590 279V256" stroke="white" stroke-width="3"/>
<path d="M590 237V215" stroke="white" stroke-width="3"/>
<path d="M590 251V243" stroke="white" stroke-width="3"/>
<path d="M590 237V215" stroke="white" stroke-width="3"/>
<path d="M590 237V215" stroke="white" stroke-width="3"/>
<path d="M590 279V257" stroke="white"/>
<path d="M590 279V256" stroke="white"/>
<path d="M590 237V215" stroke="white"/>
<path d="M590 251V243" stroke="white"/>
<path d="M590 237V215" stroke="white"/>
<path d="M590 237V215" stroke="white"/>
<path d="M590 279V257" stroke="white"/>
<path d="M590 279V256" stroke="white"/>
<path d="M590 237V215" stroke="white"/>
<path d="M590 251V243" stroke="white"/>
<path d="M590 237V215" stroke="white"/>
<path d="M590 237V215" stroke="white"/>
<path d="M590 279V257" stroke="white" stroke-width="3"/>
<path d="M590 279V256" stroke="white" stroke-width="3"/>
<path d="M590 237V215" stroke="white" stroke-width="3"/>
<path d="M590 251V243" stroke="white" stroke-width="3"/>
<path d="M590 237V215" stroke="white" stroke-width="3"/>
<path d="M590 237V215" stroke="white" stroke-width="3"/>
<path d="M590 279V257" stroke="white" stroke-width="3"/>
<path d="M590 279V256" stroke="white" stroke-width="3"/>
<path d="M590 237V215" stroke="white" stroke-width="3"/>
<path d="M590 251V243" stroke="white" stroke-width="3"/>
<path d="M590 237V215" stroke="white" stroke-width="3"/>
<path d="M590 278V256" stroke="white"/>
<path d="M590 278V256" stroke="white"/>
<path d="M590 278V256" stroke="white"/>
<path d="M590 278V256" stroke="white"/>
<path d="M590 278V256" stroke="white"/>
<path d="M590 278V256" stroke="white"/>
<path d="M590 278V256" stroke="white" stroke-width="3"/>
<path d="M590 278V256" stroke="white" stroke-width="3"/>
<path d="M590 278V256" stroke="white" stroke-width="3"/>
<path d="M590 278V256" stroke="white" stroke-width="3"/>
<path d="M590 278V256" stroke="white" stroke-width="3"/>
<path d="M590 278V256" stroke="white" stroke-width="3"/>
<path d="M435 154V132" stroke="white" stroke-width="3"/>
<path d="M312.5 170H354.113M927 170H517.643H513.535M354.113 233.5V182.493V170M354.113 170H379.052H492.347H513.535M513.535 170V233" stroke="white" stroke-width="3"/>
<path d="M413 176.222V167C413 164.791 414.791 163 417 163H453C455.209 163 457 164.791 457 167V177" stroke="white" stroke-width="3"/>
<path d="M725 177V167C725 164.791 726.791 163 729 163H765C767.209 163 769 164.791 769 167V177" stroke="white" stroke-width="3"/>
<path d="M570 177V166C570 163.791 571.791 162 574 162H610.112C612.259 162 614 163.741 614 165.888V177" stroke="white" stroke-width="3"/>
<path d="M881 176.722V166C881 163.791 882.791 162 885 162H921C923.209 162 925 163.791 925 166V177" stroke="white" stroke-width="3"/>
<path d="M669 170V181.26V233" stroke="white" stroke-width="3"/>
<path d="M825 171V182.442V233" stroke="white" stroke-width="3"/>
<path d="M506.5 233.5C511.065 204.661 472.087 174 435.045 174C398.003 174 356.935 199.899 361.5 233.5" stroke="white" stroke-width="3"/>
<path d="M819 233.5C823.596 204.661 785.851 174 748.552 174C711.252 174 670.903 199.899 675.5 233.5" stroke="white" stroke-width="3"/>
<path d="M662.5 233.5C667.097 204.661 629.851 174 592.552 174C555.253 174 515.403 199.899 520 233.5" stroke="white" stroke-width="3"/>
<path d="M831 233.5C826.403 199.899 867.253 174 904.552 174C940.256 174 977.46 205.341 976.5 233" stroke="white" stroke-width="3"/>
<path d="M747 280V258" stroke="white"/>
<path d="M747 280V257" stroke="white"/>
<path d="M747 238V216" stroke="white"/>
<path d="M747 252V244" stroke="white"/>
<path d="M747 238V216" stroke="white"/>
<path d="M747 238V216" stroke="white"/>
<path d="M747 280V258" stroke="white"/>
<path d="M747 280V257" stroke="white"/>
<path d="M747 238V216" stroke="white"/>
<path d="M747 252V244" stroke="white"/>
<path d="M747 238V216" stroke="white"/>
<path d="M747 238V216" stroke="white"/>
<path d="M747 280V258" stroke="white" stroke-width="3"/>
<path d="M747 280V257" stroke="white" stroke-width="3"/>
<path d="M747 238V216" stroke="white" stroke-width="3"/>
<path d="M747 252V244" stroke="white" stroke-width="3"/>
<path d="M747 238V216" stroke="white" stroke-width="3"/>
<path d="M747 238V216" stroke="white" stroke-width="3"/>
<path d="M747 280V258" stroke="white" stroke-width="3"/>
<path d="M747 280V257" stroke="white" stroke-width="3"/>
<path d="M747 238V216" stroke="white" stroke-width="3"/>
<path d="M747 252V244" stroke="white" stroke-width="3"/>
<path d="M747 238V216" stroke="white" stroke-width="3"/>
<path d="M747 238V216" stroke="white" stroke-width="3"/>
<path d="M747 280V258" stroke="white"/>
<path d="M747 280V257" stroke="white"/>
<path d="M747 238V216" stroke="white"/>
<path d="M747 252V244" stroke="white"/>
<path d="M747 238V216" stroke="white"/>
<path d="M747 238V216" stroke="white"/>
<path d="M747 280V258" stroke="white"/>
<path d="M747 280V257" stroke="white"/>
<path d="M747 238V216" stroke="white"/>
<path d="M747 252V244" stroke="white"/>
<path d="M747 238V216" stroke="white"/>
<path d="M747 238V216" stroke="white"/>
<path d="M747 280V258" stroke="white" stroke-width="3"/>
<path d="M747 280V257" stroke="white" stroke-width="3"/>
<path d="M747 238V216" stroke="white" stroke-width="3"/>
<path d="M747 252V244" stroke="white" stroke-width="3"/>
<path d="M747 238V216" stroke="white" stroke-width="3"/>
<path d="M747 238V216" stroke="white" stroke-width="3"/>
<path d="M747 280V258" stroke="white" stroke-width="3"/>
<path d="M747 280V257" stroke="white" stroke-width="3"/>
<path d="M747 238V216" stroke="white" stroke-width="3"/>
<path d="M747 252V244" stroke="white" stroke-width="3"/>
<path d="M747 238V216" stroke="white" stroke-width="3"/>
<path d="M747 279V257" stroke="white"/>
<path d="M747 279V257" stroke="white"/>
<path d="M747 279V257" stroke="white"/>
<path d="M747 279V257" stroke="white"/>
<path d="M747 279V257" stroke="white"/>
<path d="M747 279V257" stroke="white"/>
<path d="M747 279V257" stroke="white" stroke-width="3"/>
<path d="M747 279V257" stroke="white" stroke-width="3"/>
<path d="M747 279V257" stroke="white" stroke-width="3"/>
<path d="M747 279V257" stroke="white" stroke-width="3"/>
<path d="M747 279V257" stroke="white" stroke-width="3"/>
<path d="M747 279V257" stroke="white" stroke-width="3"/>
<path d="M904 280V258" stroke="white"/>
<path d="M904 280V257" stroke="white"/>
<path d="M904 238V216" stroke="white"/>
<path d="M904 252V244" stroke="white"/>
<path d="M904 238V216" stroke="white"/>
<path d="M904 238V216" stroke="white"/>
<path d="M904 280V258" stroke="white"/>
<path d="M904 280V257" stroke="white"/>
<path d="M904 238V216" stroke="white"/>
<path d="M904 252V244" stroke="white"/>
<path d="M904 238V216" stroke="white"/>
<path d="M904 238V216" stroke="white"/>
<path d="M904 280V258" stroke="white" stroke-width="3"/>
<path d="M904 280V257" stroke="white" stroke-width="3"/>
<path d="M904 238V216" stroke="white" stroke-width="3"/>
<path d="M904 252V244" stroke="white" stroke-width="3"/>
<path d="M904 238V216" stroke="white" stroke-width="3"/>
<path d="M904 238V216" stroke="white" stroke-width="3"/>
<path d="M904 280V258" stroke="white" stroke-width="3"/>
<path d="M904 280V257" stroke="white" stroke-width="3"/>
<path d="M904 238V216" stroke="white" stroke-width="3"/>
<path d="M904 252V244" stroke="white" stroke-width="3"/>
<path d="M904 238V216" stroke="white" stroke-width="3"/>
<path d="M904 238V216" stroke="white" stroke-width="3"/>
<path d="M904 280V258" stroke="white"/>
<path d="M904 280V257" stroke="white"/>
<path d="M904 238V216" stroke="white"/>
<path d="M904 252V244" stroke="white"/>
<path d="M904 238V216" stroke="white"/>
<path d="M904 238V216" stroke="white"/>
<path d="M904 280V258" stroke="white"/>
<path d="M904 280V257" stroke="white"/>
<path d="M904 238V216" stroke="white"/>
<path d="M904 252V244" stroke="white"/>
<path d="M904 238V216" stroke="white"/>
<path d="M904 238V216" stroke="white"/>
<path d="M904 280V258" stroke="white" stroke-width="3"/>
<path d="M904 280V257" stroke="white" stroke-width="3"/>
<path d="M904 238V216" stroke="white" stroke-width="3"/>
<path d="M904 252V244" stroke="white" stroke-width="3"/>
<path d="M904 238V216" stroke="white" stroke-width="3"/>
<path d="M904 238V216" stroke="white" stroke-width="3"/>
<path d="M904 280V258" stroke="white" stroke-width="3"/>
<path d="M904 280V257" stroke="white" stroke-width="3"/>
<path d="M904 238V216" stroke="white" stroke-width="3"/>
<path d="M904 252V244" stroke="white" stroke-width="3"/>
<path d="M904 238V216" stroke="white" stroke-width="3"/>
<path d="M904 279V257" stroke="white"/>
<path d="M904 279V257" stroke="white"/>
<path d="M904 279V257" stroke="white"/>
<path d="M904 279V257" stroke="white"/>
<path d="M904 279V257" stroke="white"/>
<path d="M904 279V257" stroke="white"/>
<path d="M904 279V257" stroke="white" stroke-width="3"/>
<path d="M904 279V257" stroke="white" stroke-width="3"/>
<path d="M904 279V257" stroke="white" stroke-width="3"/>
<path d="M904 279V257" stroke="white" stroke-width="3"/>
<path d="M904 279V257" stroke="white" stroke-width="3"/>
<path d="M904 279V257" stroke="white" stroke-width="3"/>
<rect x="186.5" y="123.5" width="28" height="11" rx="2.5" stroke="white"/>
<rect x="271.5" y="123.5" width="28" height="11" rx="2.5" stroke="white"/>
<rect x="229.5" y="123.5" width="28" height="11" rx="2.5" stroke="white"/>
</svg>
