<svg xmlns="http://www.w3.org/2000/svg" viewBox="0 0 775.75 1909.72"><defs><style>.cls-1{fill:none;stroke:#fff;stroke-miterlimit:10;stroke-width:6px;}</style></defs><g id="Слой_2" data-name="Слой 2"><g id="Слой_1-2" data-name="Слой 1"><path class="cls-1" d="M705.26,346.62v40H70.5v-40a23.82,23.82,0,0,1,23.81-23.81H681.45A23.82,23.82,0,0,1,705.26,346.62Z"/><path class="cls-1" d="M70.5,577H705.26V1595.28a.71.71,0,0,1-.7.71H70.5Z"/><path class="cls-1" d="M772.75,410.47V553.15A23.82,23.82,0,0,1,748.93,577H26.81A23.82,23.82,0,0,1,3,553.15V410.47a23.82,23.82,0,0,1,23.81-23.82H748.93A23.81,23.81,0,0,1,772.75,410.47Z"/><polygon class="cls-1" points="729.08 1662.87 46.68 1662.87 70.5 1595.99 705.26 1595.99 729.08 1662.87"/><path class="cls-1" d="M38.52,1662.87H737.23a34.61,34.61,0,0,1,34.61,34.61v65.26A92.27,92.27,0,0,1,679.57,1855H96.18a92.27,92.27,0,0,1-92.27-92.27v-65.26a34.61,34.61,0,0,1,34.61-34.61Z"/><path class="cls-1" d="M619,259.88H579.7V26.81A23.81,23.81,0,0,0,555.89,3h-336a23.82,23.82,0,0,0-23.81,23.81V259.88H156.78A23.82,23.82,0,0,0,133,283.69v39.12H642.78V283.69A23.8,23.8,0,0,0,619,259.88ZM506.75,198.62A76.78,76.78,0,0,1,430,275.38h-84.2A76.76,76.76,0,0,1,269,198.62V34H506.75Z"/><path class="cls-1" d="M506.75,34V198.62A76.78,76.78,0,0,1,430,275.38h-15.6V242.69h31.33v-39H414.38V191.13h12.35V151H406.2V101.54h62.1V75.47H307.45v26.07h62.09V151H349v40.15h12.35v12.53H330.05v39h31.32v32.69H345.78A76.76,76.76,0,0,1,269,198.62V34Z"/><polygon class="cls-1" points="406.2 101.54 406.2 150.98 426.73 150.98 426.73 191.13 414.38 191.13 414.38 203.66 445.71 203.66 445.71 242.69 330.05 242.69 330.05 203.66 361.38 203.66 361.38 191.13 349.02 191.13 349.02 150.98 369.54 150.98 369.54 101.54 307.45 101.54 307.45 75.47 468.3 75.47 468.3 101.54 406.2 101.54"/><polygon class="cls-1" points="406.2 101.54 406.2 150.98 426.73 150.98 426.73 191.13 414.38 191.13 414.38 203.66 445.71 203.66 445.71 242.69 330.05 242.69 330.05 203.66 361.38 203.66 361.38 191.13 349.02 191.13 349.02 150.98 369.54 150.98 369.54 101.54 307.45 101.54 307.45 75.47 468.3 75.47 468.3 101.54 406.2 101.54"/><rect class="cls-1" x="361.37" y="242.69" width="53.01" height="32.7"/><rect class="cls-1" x="330.05" y="203.66" width="115.66" height="39.03"/><rect class="cls-1" x="361.37" y="191.13" width="53.01" height="12.53"/><rect class="cls-1" x="349.02" y="150.98" width="77.72" height="40.15"/><rect class="cls-1" x="369.54" y="101.54" width="36.66" height="49.44"/><rect class="cls-1" x="307.45" y="75.47" width="160.85" height="26.08"/><line class="cls-1" x1="387.87" y1="3" x2="387.87" y2="812.87"/><line class="cls-1" x1="387.87" y1="917.45" x2="387.87" y2="1012.3"/><line class="cls-1" x1="387.87" y1="1109.58" x2="387.87" y2="1909.72"/></g></g></svg>