<svg xmlns="http://www.w3.org/2000/svg" viewBox="0 0 1180.68 1886.99"><defs><style>.cls-1{fill:none;stroke:#fff;stroke-miterlimit:10;stroke-width:6px;}</style></defs><g id="Слой_2" data-name="Слой 2"><g id="Слой_1-2" data-name="Слой 1"><path class="cls-1" d="M557.17,496.09v108H57.37v-108c0-102.14,71.16-187.66,166.6-209.7a215.52,215.52,0,0,1,48.66-5.53h69.3a216.62,216.62,0,0,1,48.64,5.51C486,308.43,557.17,394,557.17,496.09Z"/><polygon class="cls-1" points="557.16 638.74 557.16 758.92 557.16 917.22 57.37 917.22 57.37 638.74 557.16 638.74"/><rect class="cls-1" x="57.37" y="951.86" width="499.79" height="562.41"/><path class="cls-1" d="M557.17,1548.94v227.91a4.87,4.87,0,0,1-4.87,4.87H62.24a4.87,4.87,0,0,1-4.87-4.87V1548.94Z"/><path class="cls-1" d="M390.57,253.91v32.47a215.91,215.91,0,0,0-48.64-5.51H272.62A215.34,215.34,0,0,0,224,286.39V253.91Z"/><rect class="cls-1" x="253.77" y="3" width="107.01" height="250.91"/><rect class="cls-1" x="360.78" y="65.02" width="64.65" height="126.87"/><rect class="cls-1" x="425.43" y="111.63" width="60.8" height="33.64"/><rect class="cls-1" x="486.24" y="49.21" width="32.63" height="158.69"/><path class="cls-1" d="M1120.88,496.09v108H621.08v-108c0-102.14,71.16-187.66,166.6-209.7a215.48,215.48,0,0,1,48.64-5.53h69.31a216.49,216.49,0,0,1,48.64,5.51C1049.72,308.43,1120.88,394,1120.88,496.09Z"/><rect class="cls-1" x="621.08" y="638.74" width="499.79" height="278.48"/><rect class="cls-1" x="621.08" y="951.86" width="499.79" height="562.41"/><path class="cls-1" d="M1120.88,1548.94v227.91a4.87,4.87,0,0,1-4.87,4.87H626a4.87,4.87,0,0,1-4.87-4.87V1548.94Z"/><path class="cls-1" d="M954.27,253.91v32.47a215.91,215.91,0,0,0-48.64-5.51H836.32a215.47,215.47,0,0,0-48.64,5.52V253.91Z"/><rect class="cls-1" x="817.47" y="3" width="107.01" height="250.91"/><rect class="cls-1" x="924.48" y="65.02" width="64.65" height="126.87"/><rect class="cls-1" x="989.14" y="111.63" width="60.8" height="33.64"/><rect class="cls-1" x="1049.94" y="49.21" width="32.63" height="158.69"/><rect class="cls-1" x="23.16" y="604.09" width="1132.73" height="34.65"/><rect class="cls-1" x="23.16" y="1514.28" width="1132.73" height="34.66"/><polygon class="cls-1" points="1138.77 917.22 1138.77 1104.79 1120.87 1104.79 1120.87 951.86 57.37 951.86 57.37 1104.79 39.48 1104.79 39.48 917.22 1138.77 917.22"/><line class="cls-1" x1="557.16" y1="758.92" x2="621.08" y2="758.92"/><line class="cls-1" x1="557.16" y1="1104.78" x2="621.08" y2="1104.78"/><line class="cls-1" x1="557.16" y1="1665.33" x2="621.08" y2="1665.33"/><polyline class="cls-1" points="57.37 1623.65 3 1665.33 3 1793.36 1177.68 1793.36 1177.68 1665.33 1120.88 1623.65"/><line class="cls-1" x1="307.27" y1="3" x2="307.27" y2="804.73"/><line class="cls-1" x1="307.28" y1="1084.41" x2="307.28" y2="1886.99"/><line class="cls-1" x1="307.27" y1="897.14" x2="307.27" y2="992"/><line class="cls-1" x1="870.97" y1="3" x2="870.97" y2="804.73"/><line class="cls-1" x1="870.98" y1="1084.41" x2="870.98" y2="1886.99"/><line class="cls-1" x1="870.97" y1="897.14" x2="870.97" y2="992"/></g></g></svg>