<?xml version="1.0" encoding="UTF-8" standalone="no"?>
<!-- Created with Inkscape (http://www.inkscape.org/) -->

<svg
   version="1.1"
   id="svg1"
   width="1171"
   height="747"
   viewBox="0 0 1171 747"
   sodipodi:docname="balun.svg"
   inkscape:version="1.4.3 (0d15f75, 2025-12-25)"
   xml:space="preserve"
   xmlns:inkscape="http://www.inkscape.org/namespaces/inkscape"
   xmlns:sodipodi="http://sodipodi.sourceforge.net/DTD/sodipodi-0.dtd"
   xmlns="http://www.w3.org/2000/svg"
   xmlns:svg="http://www.w3.org/2000/svg"><defs
     id="defs1" /><sodipodi:namedview
     id="namedview1"
     pagecolor="#505050"
     bordercolor="#eeeeee"
     borderopacity="1"
     inkscape:showpageshadow="0"
     inkscape:pageopacity="0"
     inkscape:pagecheckerboard="0"
     inkscape:deskcolor="#505050"
     inkscape:zoom="1.0348059"
     inkscape:cx="564.84023"
     inkscape:cy="338.71087"
     inkscape:window-width="1920"
     inkscape:window-height="991"
     inkscape:window-x="-9"
     inkscape:window-y="576"
     inkscape:window-maximized="1"
     inkscape:current-layer="g1" /><g
     inkscape:groupmode="layer"
     inkscape:label="Image"
     id="g1"><circle
       style="fill:none;fill-opacity:1;stroke:#ffffff;stroke-width:1.1;stroke-linecap:square;stroke-linejoin:bevel;stroke-dasharray:none;stroke-dashoffset:0;stroke-opacity:1"
       id="path14"
       cx="518.5755"
       cy="166.09395"
       r="22.588778" /><path
       style="fill:none;fill-opacity:1;stroke:#ffffff;stroke-width:1.1;stroke-linecap:square;stroke-linejoin:bevel;stroke-dasharray:none;stroke-dashoffset:0;stroke-opacity:1"
       d="m 540.68111,161.38292 c 37.20505,0 34.78914,0 34.78914,0 v 14.97866 h -36.96346"
       id="path15" /><path
       style="fill:none;fill-opacity:1;stroke:#ffffff;stroke-width:1.1;stroke-linecap:square;stroke-linejoin:bevel;stroke-dasharray:none;stroke-dashoffset:0;stroke-opacity:1"
       d="m 533.67497,183.12613 h 12.32115 v 31.16527 h 14.49547 v 10.63001 c 0,0 42.03687,21.01844 41.07051,96.39489 -0.96637,75.37646 0,263.81759 0,263.81759 0,0 -0.60398,17.03218 -7.97251,22.70958 -7.36853,5.67739 -16.4282,9.30126 -20.05207,9.66365 -3.62387,0.36238 -111.49434,0 -111.49434,0 0,0 -16.04034,0.66992 -23.07196,-11.47559 -6.64376,-11.47557 -6.33167,-23.63009 -6.33167,-23.63009 V 313.47448 c 0,0 1.61229,-39.80357 13.39961,-60.13244 11.78733,-20.32886 28.52874,-26.47877 28.52874,-26.47877 v -12.12898 h 14.86228 v -30.74954 h 15.20394"
       id="path16"
       sodipodi:nodetypes="cccccscsscsccsccccc" /><path
       style="fill:none;fill-opacity:1;stroke:#ffffff;stroke-width:1.1;stroke-linecap:square;stroke-linejoin:bevel;stroke-dasharray:none;stroke-dashoffset:0;stroke-opacity:1"
       d="m 432.71436,322.52851 c 0,0 69.02172,-26.86769 169.2933,0"
       id="path17" /><path
       style="fill:none;fill-opacity:1;stroke:#ffffff;stroke-width:1.1;stroke-linecap:square;stroke-linejoin:bevel;stroke-dasharray:none;stroke-dashoffset:0;stroke-opacity:1"
       d="M 561.00828,224.98414 H 474.65332"
       id="path18" /><path
       style="fill:none;fill-opacity:1;stroke:#ffffff;stroke-width:1.1;stroke-linecap:square;stroke-linejoin:bevel;stroke-dasharray:none;stroke-dashoffset:0;stroke-opacity:1"
       d="m 489.08852,214.64887 h 57.39914"
       id="path19" /></g></svg>
