<?xml version="1.0" encoding="UTF-8" standalone="no"?>
<!-- Created with Inkscape (http://www.inkscape.org/) -->

<svg
   version="1.1"
   id="svg1"
   width="1171"
   height="747"
   viewBox="0 0 1171 747"
   sodipodi:docname="fon in.svg"
   inkscape:version="1.4.3 (0d15f75, 2025-12-25)"
   xmlns:inkscape="http://www.inkscape.org/namespaces/inkscape"
   xmlns:sodipodi="http://sodipodi.sourceforge.net/DTD/sodipodi-0.dtd"
   xmlns="http://www.w3.org/2000/svg"
   xmlns:svg="http://www.w3.org/2000/svg">
  <defs
     id="defs1" />
  <sodipodi:namedview
     id="namedview1"
     pagecolor="#505050"
     bordercolor="#eeeeee"
     borderopacity="1"
     inkscape:showpageshadow="0"
     inkscape:pageopacity="0"
     inkscape:pagecheckerboard="0"
     inkscape:deskcolor="#505050"
     inkscape:zoom="1.0348059"
     inkscape:cx="588.99935"
     inkscape:cy="369.63454"
     inkscape:window-width="1920"
     inkscape:window-height="991"
     inkscape:window-x="-9"
     inkscape:window-y="576"
     inkscape:window-maximized="1"
     inkscape:current-layer="g1" />
  <g
     inkscape:groupmode="layer"
     inkscape:label="Image"
     id="g1">
    <path
       style="fill:none;stroke:#ffffff;stroke-opacity:1;stroke-dasharray:1, 4;stroke-dashoffset:0;stroke-linecap:square"
       d="m 171.96539,214.56632 97.11966,-0.96637 c 0,0 147.37064,-4.34864 148.337,156.06792 0.96636,160.41656 -138.19017,160.41656 -138.19017,160.41656 l -107.74968,0.48318 z"
       id="path1" />
    <path
       style="fill:none;stroke:#ffffff;stroke-opacity:1;stroke-dasharray:1, 4;stroke-dashoffset:0;stroke-linecap:square"
       d="m 267.51471,316.7594 -0.24159,112.09831 c 0,0 52.0629,1.93273 52.0629,-55.20359 0,-57.13632 -51.82131,-56.89472 -51.82131,-56.89472 z"
       id="path2" />
    <path
       style="fill:none;stroke:#ffffff;stroke-opacity:1;stroke-dasharray:1, 4;stroke-dashoffset:0;stroke-linecap:square"
       d="m 432.6423,213.59995 96.63648,-0.48318 v 318.29641 h -98.8108 z"
       id="path3" />
    <path
       style="fill:none;stroke:#ffffff;stroke-opacity:1;stroke-dasharray:1, 4;stroke-dashoffset:0;stroke-linejoin:bevel;stroke-linecap:square"
       d="m 547.17098,214.56346 v 315.69528 h 177.83484 v -88.83201 h -81.99877 v -26.99126 h 70.38228 v -85.41539 h -70.72394 v -25.28296 h 79.60714 v -89.17366 z"
       id="path4" />
    <path
       style="fill:none;stroke:#ffffff;stroke-opacity:1;stroke-linecap:square;stroke-linejoin:bevel;stroke-dasharray:1,4;stroke-dashoffset:0"
       d="m 728.10834,214.08313 h 107.26649 l 23.55514,63.90088 24.64231,-63.2365 h 110.52797 l -79.96669,147.91421 83.34897,167.6643 H 892.87354 l -34.30595,-84.55692 -34.54754,84.79851 h -99.77717 l 80.44987,-167.66429 z"
       id="path5" />
  </g>
</svg>
