<svg width="347" height="183" viewBox="0 0 347 183" fill="none" xmlns="http://www.w3.org/2000/svg">
<path d="M292.5 178L285.5 177.5L282.749 177.08C237.795 168.603 242.655 109.261 251.159 85.5249C257.234 60.9405 287.609 19.4015 342.282 44.8336C349.572 18.5537 291.254 -5.18297 237.795 7.53311C209.85 16.0104 187.5 24.8207 173 35.5C160.614 44.6225 145.221 60.0496 134 73C125.409 82.9152 109.589 112.141 105.5 121C88.2554 158.363 81.3069 168.466 34 177.08C24.8731 178.742 13 179 0 179" stroke="white" stroke-width="8"/>
<path d="M292.5 178H296.5H291.5" stroke="white" stroke-width="8"/>
<path d="M292.5 178L285.5 177.5L282.749 177.08C237.795 168.603 242.655 109.261 251.159 85.5249C257.234 60.9405 287.609 19.4015 342.282 44.8336C349.572 18.5537 291.254 -5.18297 237.795 7.53311C209.85 16.0104 187.5 24.8207 173 35.5C160.614 44.6225 145.221 60.0496 134 73C125.409 82.9152 109.589 112.141 105.5 121C88.2554 158.363 81.3069 168.466 34 177.08C24.8731 178.742 13 179 0 179" stroke="white" stroke-width="8"/>
<path d="M292.5 178H296.5H291.5" stroke="white" stroke-width="8"/>
<path d="M292.5 178L285.5 177.5L282.749 177.08C237.795 168.603 242.655 109.261 251.159 85.5249C257.234 60.9405 287.609 19.4015 342.282 44.8336C349.572 18.5537 291.254 -5.18297 237.795 7.53311C209.85 16.0104 187.5 24.8207 173 35.5C160.614 44.6225 145.221 60.0496 134 73C125.409 82.9152 109.589 112.141 105.5 121C88.2554 158.363 81.3069 168.466 34 177.08C24.8731 178.742 13 179 0 179" stroke="white" stroke-width="8"/>
<path d="M292.5 178H296.5H291.5" stroke="white" stroke-width="8"/>
<path d="M292.5 178L285.5 177.5L282.749 177.08C237.795 168.603 242.655 109.261 251.159 85.5249C257.234 60.9405 287.609 19.4015 342.282 44.8336C349.572 18.5537 291.254 -5.18297 237.795 7.53311C209.85 16.0104 187.5 24.8207 173 35.5C160.614 44.6225 145.221 60.0496 134 73C125.409 82.9152 109.589 112.141 105.5 121C88.2554 158.363 81.3069 168.466 34 177.08C24.8731 178.742 13 179 0 179" stroke="white" stroke-width="8"/>
<path d="M292.5 178H296.5H291.5" stroke="white" stroke-width="8"/>
</svg>
