<svg width="644" height="183" viewBox="0 0 644 183" fill="none" xmlns="http://www.w3.org/2000/svg">
<path d="M292.5 178L285.5 177.5L282.749 177.08C237.795 168.603 242.655 109.261 251.159 85.5249C257.234 60.9405 287.609 19.4015 342.282 44.8336C349.572 18.5537 291.254 -5.18297 237.795 7.53311C209.85 16.0104 187.5 24.8207 173 35.5C160.614 44.6225 145.221 60.0496 134 73C125.409 82.9152 109.589 112.141 105.5 121C88.2554 158.363 81.3069 168.466 34 177.08C24.8731 178.742 13 179 0 179" stroke="white" stroke-width="8"/>
<path d="M292.5 178H296.5H291.5" stroke="white" stroke-width="8"/>
<path d="M292.5 178L285.5 177.5L282.749 177.08C237.795 168.603 242.655 109.261 251.159 85.5249C257.234 60.9405 287.609 19.4015 342.282 44.8336C349.572 18.5537 291.254 -5.18297 237.795 7.53311C209.85 16.0104 187.5 24.8207 173 35.5C160.614 44.6225 145.221 60.0496 134 73C125.409 82.9152 109.589 112.141 105.5 121C88.2554 158.363 81.3069 168.466 34 177.08C24.8731 178.742 13 179 0 179" stroke="white" stroke-width="8"/>
<path d="M292.5 178H296.5H291.5" stroke="white" stroke-width="8"/>
<path d="M292.5 178L285.5 177.5L282.749 177.08C237.795 168.603 242.655 109.261 251.159 85.5249C257.234 60.9405 287.609 19.4015 342.282 44.8336C349.572 18.5537 291.254 -5.18297 237.795 7.53311C209.85 16.0104 187.5 24.8207 173 35.5C160.614 44.6225 145.221 60.0496 134 73C125.409 82.9152 109.589 112.141 105.5 121C88.2554 158.363 81.3069 168.466 34 177.08C24.8731 178.742 13 179 0 179" stroke="white" stroke-width="8"/>
<path d="M292.5 178H296.5H291.5" stroke="white" stroke-width="8"/>
<path d="M292.5 178L285.5 177.5L282.749 177.08C237.795 168.603 242.655 109.261 251.159 85.5249C257.234 60.9405 287.609 19.4015 342.282 44.8336C349.572 18.5537 291.254 -5.18297 237.795 7.53311C209.85 16.0104 187.5 24.8207 173 35.5C160.614 44.6225 145.221 60.0496 134 73C125.409 82.9152 109.589 112.141 105.5 121C88.2554 158.363 81.3069 168.466 34 177.08C24.8731 178.742 13 179 0 179" stroke="white" stroke-width="8"/>
<path d="M605.546 177.291L600.83 176.937L598.977 176.64C568.693 170.633 571.967 128.585 577.696 111.766C581.789 94.3464 602.251 64.913 639.082 82.9335C643.993 64.3124 604.706 47.4932 568.693 56.5035C549.868 62.5102 534.811 68.753 525.043 76.32C516.699 82.784 506.33 93.7152 498.771 102.891C492.983 109.917 482.326 130.626 479.571 136.903C467.954 163.377 463.273 170.536 431.404 176.64C425.256 177.817 417.258 178 408.5 178" stroke="white" stroke-width="8"/>
<path d="M605.546 177.291L600.83 176.937L598.977 176.64C568.693 170.633 571.967 128.585 577.696 111.766C581.789 94.3464 602.251 64.913 639.082 82.9335C643.993 64.3124 604.706 47.4932 568.693 56.5035C549.868 62.5102 534.811 68.753 525.043 76.32C516.699 82.784 506.33 93.7152 498.771 102.891C492.983 109.917 482.326 130.626 479.571 136.903C467.954 163.377 463.273 170.536 431.404 176.64C425.256 177.817 417.258 178 408.5 178" stroke="white" stroke-width="8"/>
<path d="M605.546 177.291L600.83 176.937L598.977 176.64C568.693 170.633 571.967 128.585 577.696 111.766C581.789 94.3464 602.251 64.913 639.082 82.9335C643.993 64.3124 604.706 47.4932 568.693 56.5035C549.868 62.5102 534.811 68.753 525.043 76.32C516.699 82.784 506.33 93.7152 498.771 102.891C492.983 109.917 482.326 130.626 479.571 136.903C467.954 163.377 463.273 170.536 431.404 176.64C425.256 177.817 417.258 178 408.5 178" stroke="white" stroke-width="8"/>
<path d="M605.546 177.291L600.83 176.937L598.977 176.64C568.693 170.633 571.967 128.585 577.696 111.766C581.789 94.3464 602.251 64.913 639.082 82.9335C643.993 64.3124 604.706 47.4932 568.693 56.5035C549.868 62.5102 534.811 68.753 525.043 76.32C516.699 82.784 506.33 93.7152 498.771 102.891C492.983 109.917 482.326 130.626 479.571 136.903C467.954 163.377 463.273 170.536 431.404 176.64C425.256 177.817 416.258 177.5 407.5 177.5" stroke="white" stroke-width="8"/>
<path d="M292.5 178H296.5H291.5" stroke="white" stroke-width="8"/>
<path d="M407.392 177.6L404.738 177.4L403.695 177.232C386.652 173.841 388.494 150.105 391.719 140.61C394.022 130.776 405.537 114.161 426.265 124.333C429.029 113.821 406.919 104.327 386.652 109.413C376.058 112.804 367.584 116.328 362.087 120.6C357.391 124.249 351.556 130.42 347.302 135.6C344.045 139.566 338.047 151.256 336.497 154.8C329.959 169.745 327.325 173.786 309.39 177.232C305.93 177.897 301.429 178 296.5 178" stroke="white" stroke-width="8"/>
<path d="M407.7 178H408.5H407.5" stroke="white" stroke-width="8"/>
<path d="M407.392 177.6L404.738 177.4L403.695 177.232C386.652 173.841 388.494 150.105 391.719 140.61C394.022 130.776 405.537 114.161 426.265 124.333C429.029 113.821 406.919 104.327 386.652 109.413C376.058 112.804 367.584 116.328 362.087 120.6C357.391 124.249 351.556 130.42 347.302 135.6C344.045 139.566 338.047 151.256 336.497 154.8C329.959 169.745 327.325 173.786 309.39 177.232C305.93 177.897 301.429 178 296.5 178" stroke="white" stroke-width="8"/>
<path d="M407.7 178H408.5H407.5" stroke="white" stroke-width="8"/>
<path d="M407.392 177.6L404.738 177.4L403.695 177.232C386.652 173.841 388.494 150.105 391.719 140.61C394.022 130.776 405.537 114.161 426.265 124.333C429.029 113.821 406.919 104.327 386.652 109.413C376.058 112.804 367.584 116.328 362.087 120.6C357.391 124.249 351.556 130.42 347.302 135.6C344.045 139.566 338.047 151.256 336.497 154.8C329.959 169.745 327.325 173.786 309.39 177.232C305.93 177.897 301.429 178 296.5 178" stroke="white" stroke-width="8"/>
<path d="M407.7 178H408.5H407.5" stroke="white" stroke-width="8"/>
<path d="M408.5 178L404.738 177.4L403.695 177.232C386.652 173.841 388.494 150.105 391.719 140.61C394.022 130.776 405.537 114.161 426.265 124.333C429.029 113.821 406.919 104.327 386.652 109.413C376.058 112.804 367.584 116.328 362.087 120.6C357.391 124.249 351.556 130.42 347.302 135.6C344.045 139.566 338.047 151.256 336.497 154.8C329.959 169.745 327.325 173.786 309.39 177.232C305.93 177.897 301.429 178 296.5 178" stroke="white" stroke-width="8"/>
<path d="M292.5 178L285.5 177.5L282.749 177.08C237.795 168.603 242.655 109.261 251.159 85.5249C257.234 60.9405 287.609 19.4015 342.282 44.8336C349.572 18.5537 291.254 -5.18297 237.795 7.53311C209.85 16.0104 187.5 24.8207 173 35.5C160.614 44.6225 145.221 60.0496 134 73C125.409 82.9152 109.589 112.141 105.5 121C88.2554 158.363 81.3069 168.466 34 177.08C24.8731 178.742 13 179 0 179" stroke="white" stroke-width="8"/>
<path d="M292.5 178H296.5H291.5" stroke="white" stroke-width="8"/>
<path d="M292.5 178L285.5 177.5L282.749 177.08C237.795 168.603 242.655 109.261 251.159 85.5249C257.234 60.9405 287.609 19.4015 342.282 44.8336C349.572 18.5537 291.254 -5.18297 237.795 7.53311C209.85 16.0104 187.5 24.8207 173 35.5C160.614 44.6225 145.221 60.0496 134 73C125.409 82.9152 109.589 112.141 105.5 121C88.2554 158.363 81.3069 168.466 34 177.08C24.8731 178.742 13 179 0 179" stroke="white" stroke-width="8"/>
<path d="M292.5 178H296.5H291.5" stroke="white" stroke-width="8"/>
<path d="M292.5 178L285.5 177.5L282.749 177.08C237.795 168.603 242.655 109.261 251.159 85.5249C257.234 60.9405 287.609 19.4015 342.282 44.8336C349.572 18.5537 291.254 -5.18297 237.795 7.53311C209.85 16.0104 187.5 24.8207 173 35.5C160.614 44.6225 145.221 60.0496 134 73C125.409 82.9152 109.589 112.141 105.5 121C88.2554 158.363 81.3069 168.466 34 177.08C24.8731 178.742 13 179 0 179" stroke="white" stroke-width="8"/>
<path d="M292.5 178H296.5H291.5" stroke="white" stroke-width="8"/>
<path d="M292.5 178L285.5 177.5L282.749 177.08C237.795 168.603 242.655 109.261 251.159 85.5249C257.234 60.9405 287.609 19.4015 342.282 44.8336C349.572 18.5537 291.254 -5.18297 237.795 7.53311C209.85 16.0104 187.5 24.8207 173 35.5C160.614 44.6225 145.221 60.0496 134 73C125.409 82.9152 109.589 112.141 105.5 121C88.2554 158.363 81.3069 168.466 34 177.08C24.8731 178.742 13 179 0 179" stroke="white" stroke-width="8"/>
<path d="M605.546 177.291L600.83 176.937L598.977 176.64C568.693 170.633 571.967 128.585 577.696 111.766C581.789 94.3464 602.251 64.913 639.082 82.9335C643.993 64.3124 604.706 47.4932 568.693 56.5035C549.868 62.5102 534.811 68.753 525.043 76.32C516.699 82.784 506.33 93.7152 498.771 102.891C492.983 109.917 482.326 130.626 479.571 136.903C467.954 163.377 463.273 170.536 431.404 176.64C425.256 177.817 417.258 178 408.5 178" stroke="white" stroke-width="8"/>
<path d="M605.546 177.291L600.83 176.937L598.977 176.64C568.693 170.633 571.967 128.585 577.696 111.766C581.789 94.3464 602.251 64.913 639.082 82.9335C643.993 64.3124 604.706 47.4932 568.693 56.5035C549.868 62.5102 534.811 68.753 525.043 76.32C516.699 82.784 506.33 93.7152 498.771 102.891C492.983 109.917 482.326 130.626 479.571 136.903C467.954 163.377 463.273 170.536 431.404 176.64C425.256 177.817 417.258 178 408.5 178" stroke="white" stroke-width="8"/>
<path d="M605.546 177.291L600.83 176.937L598.977 176.64C568.693 170.633 571.967 128.585 577.696 111.766C581.789 94.3464 602.251 64.913 639.082 82.9335C643.993 64.3124 604.706 47.4932 568.693 56.5035C549.868 62.5102 534.811 68.753 525.043 76.32C516.699 82.784 506.33 93.7152 498.771 102.891C492.983 109.917 482.326 130.626 479.571 136.903C467.954 163.377 463.273 170.536 431.404 176.64C425.256 177.817 417.258 178 408.5 178" stroke="white" stroke-width="8"/>
<path d="M605.546 177.291L600.83 176.937L598.977 176.64C568.693 170.633 571.967 128.585 577.696 111.766C581.789 94.3464 602.251 64.913 639.082 82.9335C643.993 64.3124 604.706 47.4932 568.693 56.5035C549.868 62.5102 534.811 68.753 525.043 76.32C516.699 82.784 506.33 93.7152 498.771 102.891C492.983 109.917 482.326 130.626 479.571 136.903C467.954 163.377 463.273 170.536 431.404 176.64C425.256 177.817 416.258 177.5 407.5 177.5" stroke="white" stroke-width="8"/>
<path d="M292.5 178H296.5H291.5" stroke="white" stroke-width="8"/>
<path d="M407.392 177.6L404.738 177.4L403.695 177.232C386.652 173.841 388.494 150.105 391.719 140.61C394.022 130.776 405.537 114.161 426.265 124.333C429.029 113.821 406.919 104.327 386.652 109.413C376.058 112.804 367.584 116.328 362.087 120.6C357.391 124.249 351.556 130.42 347.302 135.6C344.045 139.566 338.047 151.256 336.497 154.8C329.959 169.745 327.325 173.786 309.39 177.232C305.93 177.897 301.429 178 296.5 178" stroke="white" stroke-width="8"/>
<path d="M407.7 178H408.5H407.5" stroke="white" stroke-width="8"/>
<path d="M407.392 177.6L404.738 177.4L403.695 177.232C386.652 173.841 388.494 150.105 391.719 140.61C394.022 130.776 405.537 114.161 426.265 124.333C429.029 113.821 406.919 104.327 386.652 109.413C376.058 112.804 367.584 116.328 362.087 120.6C357.391 124.249 351.556 130.42 347.302 135.6C344.045 139.566 338.047 151.256 336.497 154.8C329.959 169.745 327.325 173.786 309.39 177.232C305.93 177.897 301.429 178 296.5 178" stroke="white" stroke-width="8"/>
<path d="M407.7 178H408.5H407.5" stroke="white" stroke-width="8"/>
<path d="M407.392 177.6L404.738 177.4L403.695 177.232C386.652 173.841 388.494 150.105 391.719 140.61C394.022 130.776 405.537 114.161 426.265 124.333C429.029 113.821 406.919 104.327 386.652 109.413C376.058 112.804 367.584 116.328 362.087 120.6C357.391 124.249 351.556 130.42 347.302 135.6C344.045 139.566 338.047 151.256 336.497 154.8C329.959 169.745 327.325 173.786 309.39 177.232C305.93 177.897 301.429 178 296.5 178" stroke="white" stroke-width="8"/>
<path d="M407.7 178H408.5H407.5" stroke="white" stroke-width="8"/>
<path d="M408.5 178L404.738 177.4L403.695 177.232C386.652 173.841 388.494 150.105 391.719 140.61C394.022 130.776 405.537 114.161 426.265 124.333C429.029 113.821 406.919 104.327 386.652 109.413C376.058 112.804 367.584 116.328 362.087 120.6C357.391 124.249 351.556 130.42 347.302 135.6C344.045 139.566 338.047 151.256 336.497 154.8C329.959 169.745 327.325 173.786 309.39 177.232C305.93 177.897 301.429 178 296.5 178" stroke="white" stroke-width="8"/>
</svg>
