<svg width="1740" height="493" viewBox="0 0 1740 493" fill="none" xmlns="http://www.w3.org/2000/svg">
<path d="M591.5 462H567.5V16M567.5 13.5V16M592 16H567.5" stroke="white" stroke-width="5"/>
<path d="M1703 462H1713.5H1725V16.0028M1725 13.5V16.0028M1700 16.0028H1725" stroke="white" stroke-width="5"/>
<path d="M568 461.5V471C568 472.657 569.343 474 571 474H587C588.105 474 589 473.105 589 472V461.5" stroke="white" stroke-width="3"/>
<path d="M1703 462.5V472C1703 473.657 1704.34 475 1706 475H1722C1723.1 475 1724 474.105 1724 473V462.5" stroke="white" stroke-width="3"/>
<path d="M568 15V5.5C568 3.84315 569.343 2.5 571 2.5H587C588.105 2.5 589 3.39543 589 4.5V15" stroke="white" stroke-width="3"/>
<path d="M1703 14V4.5C1703 2.84315 1704.34 1.5 1706 1.5H1722C1723.1 1.5 1724 2.39543 1724 3.5V14" stroke="white" stroke-width="3"/>
<path d="M955 68.5L955 446M1338.5 68.5V445.5" stroke="white" stroke-width="3"/>
<path d="M774 67.5H1053.5" stroke="white" stroke-width="3"/>
<path d="M775 67.5H614" stroke="white" stroke-width="3"/>
<path d="M615 67.5H602.5" stroke="white" stroke-width="3"/>
<path d="M1703 445H1575.27M738.678 445.061H1559" stroke="white" stroke-width="3"/>
<path d="M603 445.5L738.678 445.061H1559M1703 445H1575.27" stroke="white" stroke-width="3"/>
<path d="M603 445.5C595.554 445.5 589 358.017 589 254.654C589 151.292 595.036 67.5 602.481 67.5" stroke="white" stroke-width="3"/>
<path d="M589.5 33H1704.5" stroke="white" stroke-width="5"/>
<path d="M1692 445C1698.91 445 1705 357.517 1705 254.154C1705 150.792 1699.4 67 1692.48 67" stroke="white" stroke-width="3"/>
<path d="M589.844 349.324L718.5 431.609M1696.5 355.5L1557 444.721M1705 362.5L1577 444.366L1576 445.005M599.499 355.5C654.172 390.468 684.825 410.073 739.499 445.041L599.499 355.5Z" stroke="white" stroke-width="3"/>
<path d="M591 362.5L719.656 444.785" stroke="white" stroke-width="3"/>
<path d="M1696.5 355.5L1559 443.402L1556.5 445M599.5 355.5L739.5 445.041M591 362.5L719.656 444.786M1705.5 349.744L1577.5 431.61L1576.5 432.249" stroke="white" stroke-width="3"/>
<path d="M589.844 349.324L718.5 431.609M1696.5 355.5L1557 444.721M1705 362.5L1577 444.366L1576 445.005M599.499 355.5C654.172 390.468 684.825 410.073 739.499 445.041L599.499 355.5Z" stroke="white" stroke-width="3"/>
<path d="M591 362.5L719.656 444.785" stroke="white" stroke-width="3"/>
<path d="M1696.5 355.5L1559 443.402L1556.5 445M599.5 355.5L739.5 445.041M591 362.5L719.656 444.786M1705.5 349.744L1577.5 431.61L1576.5 432.249" stroke="white" stroke-width="3"/>
<path d="M96 444.435C74.2617 423.58 56.9546 406.976 33 383.995M83.0368 444.435L32.6207 396.067" stroke="white" stroke-width="3"/>
<path d="M403 445.94C424.738 425.085 442.045 408.481 466 385.5M415.963 445.94L466.379 397.573" stroke="white" stroke-width="3"/>
<path d="M1705 362.5L1577 444.366L1576 445.005" stroke="white" stroke-width="3"/>
<path d="M774 67.5H1249.5" stroke="white" stroke-width="3"/>
<path d="M775 67.5H614" stroke="white" stroke-width="3"/>
<path d="M615 67.5H602.5" stroke="white" stroke-width="3"/>
<path d="M1520 67.5H1240.5" stroke="white" stroke-width="3"/>
<mask id="path-29-inside-1_0_1" fill="white">
<rect width="1120" height="451" rx="1" transform="matrix(-1 0 0 1 1707 13.5)"/>
</mask>
<rect width="1120" height="451" rx="1" transform="matrix(-1 0 0 1 1707 13.5)" stroke="white" stroke-width="10" mask="url(#path-29-inside-1_0_1)"/>
<path d="M1692.5 67L1240.5 67.5" stroke="white" stroke-width="3"/>
<path d="M1314.5 46V66H980.5V46H1314.5Z" stroke="white" stroke-width="3"/>
<path d="M385.5 46V68H114.5V46H385.5Z" stroke="white" stroke-width="3"/>
<path d="M306.5 413V443H193.5V413H306.5Z" stroke="white" stroke-width="3"/>
<path d="M1012 249.5H1059M1067 249.5H1078" stroke="white" stroke-width="3"/>
<path d="M1616 249.5H1663M1671 249.5H1682" stroke="white" stroke-width="3"/>
<path d="M1692 249.5H1740" stroke="white" stroke-width="3"/>
<path d="M1541 249.5H1588M1596 249.5H1607" stroke="white" stroke-width="3"/>
<path d="M1389 249.5H1436M1444 249.5H1455" stroke="white" stroke-width="3"/>
<path d="M1465 249.5H1512M1520 249.5H1531" stroke="white" stroke-width="3"/>
<path d="M1314 249.5H1361M1369 249.5H1380" stroke="white" stroke-width="3"/>
<path d="M1163 249.5H1210M1218 249.5H1229" stroke="white" stroke-width="3"/>
<path d="M1239 249.5H1286M1294 249.5H1305" stroke="white" stroke-width="3"/>
<path d="M1088 249.5H1135M1143 249.5H1154" stroke="white" stroke-width="3"/>
<path d="M1012 249.5H1059M1067 249.5H1078" stroke="white" stroke-width="3"/>
<path d="M1616 249.5H1663M1671 249.5H1682" stroke="white" stroke-width="3"/>
<path d="M1692 249.5H1740" stroke="white" stroke-width="3"/>
<path d="M1541 249.5H1588M1596 249.5H1607" stroke="white" stroke-width="3"/>
<path d="M1389 249.5H1436M1444 249.5H1455" stroke="white" stroke-width="3"/>
<path d="M1465 249.5H1512M1520 249.5H1531" stroke="white" stroke-width="3"/>
<path d="M462 463H472.5H484V17.0028M484 14.5V17.0028M459 17.0028H484" stroke="white" stroke-width="5"/>
<path d="M466 463.5V470.78V473.5C466 475.157 467.343 476.5 469 476.5H481C482.105 476.5 483 475.605 483 474.5V463.5" stroke="white" stroke-width="3"/>
<path d="M466 15V5.5C466 3.84315 467.343 2.5 469 2.5H481C482.105 2.5 483 3.39543 483 4.5V15" stroke="white" stroke-width="3"/>
<path d="M463.5 34H34" stroke="white" stroke-width="5"/>
<path d="M464.5 444.5H35" stroke="white" stroke-width="5"/>
<path d="M34 463L464.999 463.499C465.552 463.499 466 463.052 466 462.499V18C466 17.4477 465.552 17 465 17L38.5 17" stroke="white" stroke-width="5"/>
<path d="M375 250.5H422M430 250.5H441" stroke="white" stroke-width="3"/>
<path d="M451 250.5H499" stroke="white" stroke-width="3"/>
<path d="M300 250.5H347M355 250.5H366" stroke="white" stroke-width="3"/>
<path d="M224 250.5H271M279 250.5H290" stroke="white" stroke-width="3"/>
<path d="M375 250.5H422M430 250.5H441" stroke="white" stroke-width="3"/>
<path d="M451 250.5H499" stroke="white" stroke-width="3"/>
<path d="M482.72 463.5H474.74H466V17.0056M466 14.5V17.0056M485 17.0056H466" stroke="white" stroke-width="5"/>
<path d="M499 250.5H451" stroke="white" stroke-width="3"/>
<path d="M499 250.5H451" stroke="white" stroke-width="3"/>
<path d="M37 463H26.5H15V17.0028M15 14.5V17.0028M40 17.0028H15" stroke="white" stroke-width="5"/>
<path d="M33 463.5V470.78V473.5C33 475.157 31.6569 476.5 30 476.5H18C16.8954 476.5 16 475.605 16 474.5V463.5" stroke="white" stroke-width="3"/>
<path d="M33 15V5.5C33 3.84315 31.6569 2.5 30 2.5H18C16.8954 2.5 16 3.39543 16 4.5V15" stroke="white" stroke-width="3"/>
<path d="M48 250.5H0" stroke="white" stroke-width="3"/>
<path d="M48 250.5H0" stroke="white" stroke-width="3"/>
<path d="M16.28 463.5H24.26H33V17.0056M33 14.5V17.0056M14 17.0056H33" stroke="white" stroke-width="5"/>
<path d="M300 250.5H347M355 250.5H366" stroke="white" stroke-width="3"/>
<path d="M224 250.5H271M279 250.5H290" stroke="white" stroke-width="3"/>
<path d="M224 250.5H271M279 250.5H290" stroke="white" stroke-width="3"/>
<path d="M348 250.5H300" stroke="white" stroke-width="3"/>
<path d="M149 250.5H196M204 250.5H215" stroke="white" stroke-width="3"/>
<path d="M73 250.5H120M128 250.5H139" stroke="white" stroke-width="3"/>
<path d="M250 303.5V350.5M250 358.5V369.5" stroke="white" stroke-width="3"/>
<path d="M250 228.5V275.5M250 283.5V294.5" stroke="white" stroke-width="3"/>
<path d="M250 152.5V199.5M250 207.5V218.5" stroke="white" stroke-width="3"/>
<path d="M250 303.5V350.5M250 358.5V369.5" stroke="white" stroke-width="3"/>
<path d="M250 228.5V275.5M250 283.5V294.5" stroke="white" stroke-width="3"/>
<path d="M250 152.5V199.5M250 207.5V218.5" stroke="white" stroke-width="3"/>
<path d="M250 152.5V199.5M250 207.5V218.5" stroke="white" stroke-width="3"/>
<path d="M250 276.5V228.5" stroke="white" stroke-width="3"/>
<path d="M250 77.5V124.5M250 132.5V143.5" stroke="white" stroke-width="3"/>
<path d="M250 1.5V48.5M250 56.5V67.5" stroke="white" stroke-width="3"/>
<path d="M250 378.5V425.5M250 433.5V444.5" stroke="white" stroke-width="3"/>
<path d="M250 303.5V350.5M250 358.5V369.5" stroke="white" stroke-width="3"/>
<path d="M250 227.5V274.5M250 282.5V293.5" stroke="white" stroke-width="3"/>
<path d="M250 378.5V425.5M250 433.5V444.5" stroke="white" stroke-width="3"/>
<path d="M250 303.5V350.5M250 358.5V369.5" stroke="white" stroke-width="3"/>
<path d="M250 227.5V274.5M250 282.5V293.5" stroke="white" stroke-width="3"/>
<path d="M250 227.5V274.5M250 282.5V293.5" stroke="white" stroke-width="3"/>
<path d="M250 453.5V486V492.5" stroke="white" stroke-width="3"/>
<path d="M250 351.5V303.5" stroke="white" stroke-width="3"/>
<path d="M250 152.5V199.5M250 207.5V218.5" stroke="white" stroke-width="3"/>
<path d="M250 76.5V123.5M250 131.5V142.5" stroke="white" stroke-width="3"/>
<path d="M1314 249.5H1361M1369 249.5H1380" stroke="white" stroke-width="3"/>
<path d="M1163 249.5H1210M1218 249.5H1229" stroke="white" stroke-width="3"/>
<path d="M1239 249.5H1286M1294 249.5H1305" stroke="white" stroke-width="3"/>
<path d="M1088 249.5H1135M1143 249.5H1154" stroke="white" stroke-width="3"/>
<path d="M562 249.5H609M617 249.5H628" stroke="white" stroke-width="3"/>
<path d="M1166 249.5H1213M1221 249.5H1232" stroke="white" stroke-width="3"/>
<path d="M1242 249.5H1290" stroke="white" stroke-width="3"/>
<path d="M1091 249.5H1138M1146 249.5H1157" stroke="white" stroke-width="3"/>
<path d="M939 249.5H986M994 249.5H1005" stroke="white" stroke-width="3"/>
<path d="M1015 249.5H1062M1070 249.5H1081" stroke="white" stroke-width="3"/>
<path d="M864 249.5H911M919 249.5H930" stroke="white" stroke-width="3"/>
<path d="M713 249.5H760M768 249.5H779" stroke="white" stroke-width="3"/>
<path d="M789 249.5H836M844 249.5H855" stroke="white" stroke-width="3"/>
<path d="M638 249.5H685M693 249.5H704" stroke="white" stroke-width="3"/>
<path d="M605 445.5H591" stroke="white" stroke-width="3"/>
<path d="M55.5 250.5H65" stroke="white" stroke-width="3"/>
<path d="M457.5 10V455H392.5V10H457.5Z" stroke="white" stroke-width="3"/>
<path d="M392 406H457.5" stroke="white" stroke-width="3"/>
<path d="M393 365.5H458.5" stroke="white" stroke-width="3"/>
<path d="M392 283H457.5" stroke="white" stroke-width="3"/>
<path d="M393 242.5H458.5" stroke="white" stroke-width="3"/>
<path d="M391 324H456.5" stroke="white" stroke-width="3"/>
<path d="M392 283.5H457.5" stroke="white" stroke-width="3"/>
<path d="M392 365H457.5" stroke="white" stroke-width="3"/>
<path d="M393 324.5H458.5" stroke="white" stroke-width="3"/>
<path d="M391 242H456.5" stroke="white" stroke-width="3"/>
<path d="M392 201.5H457.5" stroke="white" stroke-width="3"/>
<path d="M391 201H456.5" stroke="white" stroke-width="3"/>
<path d="M392 160.5H457.5" stroke="white" stroke-width="3"/>
<path d="M391 160H456.5" stroke="white" stroke-width="3"/>
<path d="M392 119.5H457.5" stroke="white" stroke-width="3"/>
<path d="M392 119H457.5" stroke="white" stroke-width="3"/>
<path d="M393 78.5H458.5" stroke="white" stroke-width="3"/>
<path d="M392 78H457.5" stroke="white" stroke-width="3"/>
<path d="M393 37.5H458.5" stroke="white" stroke-width="3"/>
<path d="M117.5 68C83.3575 84.01 46.3325 122.541 34 143.5" stroke="white" stroke-width="3"/>
<path d="M379 68C413.142 84.01 452.667 124.541 465 145.5" stroke="white" stroke-width="3"/>
<path d="M118 444.5C83.8575 428.49 46.3325 389.459 34 368.5" stroke="white" stroke-width="3"/>
<path d="M380 443.5C414.142 427.49 452.667 387.459 465 366.5" stroke="white" stroke-width="3"/>
</svg>
