<svg width="1417" height="388" viewBox="0 0 1417 388" fill="none" xmlns="http://www.w3.org/2000/svg">
<path d="M1329.1 268C1358.37 268 1382.1 211.812 1382.1 142.5C1382.1 73.1883 1362.87 18 1333.6 18" stroke="white" stroke-width="2"/>
<path d="M327.102 18H364.102H403.102H442.102H1333.6" stroke="white" stroke-width="2"/>
<path d="M506.102 18.5C506.102 8.83502 488.641 1 467.102 1C445.563 1 428.102 8.83502 428.102 18.5" stroke="white" stroke-width="2"/>
<path d="M1234.1 18.5C1234.1 8.83502 1216.64 1 1195.1 1C1173.56 1 1156.1 8.83502 1156.1 18.5" stroke="white" stroke-width="2"/>
<path opacity="0.75" d="M378.602 283C364.469 283 348.624 289.922 336.807 299.5C327.602 309 323.927 318.093 322.602 327" stroke="white" stroke-width="2"/>
<path d="M436.602 336.5C436.602 303.363 411.463 283 378.602 283C364.469 283 348.624 289.922 336.807 299.5C327.602 309 323.927 318.093 322.602 327" stroke="white" stroke-width="4"/>
<path d="M436.602 336.5C436.602 303.363 461.741 283 494.602 283C508.735 283 524.579 289.922 536.397 299.5C545.602 309 549.277 318.093 550.602 327" stroke="white" stroke-width="4"/>
<circle cx="113.102" cy="338" r="29" stroke="white" stroke-width="2"/>
<circle cx="113.102" cy="338" r="49" stroke="white" stroke-width="2"/>
<circle cx="494.102" cy="338" r="29" stroke="white" stroke-width="2"/>
<circle cx="494.102" cy="338" r="49" stroke="white" stroke-width="2"/>
<circle cx="380.102" cy="338" r="29" stroke="white" stroke-width="2"/>
<circle cx="380.102" cy="338" r="49" stroke="white" stroke-width="2"/>
<path d="M0.101696 319H1M1 319H53.1017V353H1V319Z" stroke="white" stroke-width="2"/>
<path d="M106.602 147V253.5C106.602 255.709 104.811 257.5 102.602 257.5H83.4935M106.602 147H46.6017M106.602 147H189.102M189.102 147H193.102V200.023C193.102 202.223 191.325 204.01 189.125 204.023L105.602 204.5M193.102 147H190.602H189.102" stroke="white" stroke-width="2"/>
<path d="M110.676 200.997L188.113 200.568C189.213 200.561 190.102 199.668 190.102 198.568L190.102 152C190.102 150.895 189.206 150 188.102 150H112.105C110.999 150 110.103 150.897 110.105 152.003L110.176 200.5C110.176 200.776 110.4 200.999 110.676 200.997Z" stroke="white" stroke-width="2"/>
<path d="M193.102 204V296.5C193.102 298.157 194.445 299.5 196.102 299.5H349.602M33.1017 220.5V204L39.6017 152.5C40.4873 149.253 43.4367 147 46.8026 147H48.1017M463.915 299.5H449.602M423.602 299.5H410.102" stroke="white" stroke-width="2"/>
<path d="M33.1017 220V284C33.1017 284.552 33.5494 285 34.1017 285H56.0739C56.3423 285 56.5994 284.892 56.7874 284.701L83.4176 257.577C83.4661 257.528 83.5325 257.5 83.6017 257.5" stroke="white" stroke-width="2"/>
<path d="M4.1017 319V222.5L20.0148 140.523C20.3607 138.741 21.8634 137.416 23.6747 137.295L194.109 125.901C196.958 125.71 199.084 128.482 198.161 131.184L193.102 146V151.5" stroke="white" stroke-width="2"/>
<path opacity="0.75" d="M173.102 332C173.102 298.863 146.239 278 113.102 278C87.4066 278 56.1017 300.5 53.1017 320.5" stroke="white" stroke-width="2"/>
<rect x="129.602" y="224.5" width="40" height="12" rx="2.5" stroke="white"/>
<path d="M129.602 232.5H169.602" stroke="white"/>
<path d="M129.602 228.5H169.602" stroke="white"/>
<path d="M173.102 331V355.5L315.102 354.5V300M177.602 309H208.102" stroke="white" stroke-width="2"/>
<path d="M181.102 321H212.102" stroke="white" stroke-width="2"/>
<path d="M181.102 343H212.102" stroke="white" stroke-width="2"/>
<path d="M181.102 332H212.102" stroke="white" stroke-width="2"/>
<path d="M479.442 270H394.158L385.63 272.087L377.102 274.174V282.939H411.612L431.048 309.652L433.032 316.78L434.618 318H436.602" stroke="white" stroke-width="2"/>
<path d="M393.762 270H479.045L487.573 272.087L496.102 274.174V282.939H461.592L442.155 309.652L440.172 316.78L438.585 318H436.602" stroke="white" stroke-width="2"/>
<path d="M363.102 18V268M1297.1 18V268M833.602 18V268" stroke="white" stroke-width="2"/>
<path d="M511.102 292H559.102V354H548.954V324L532.602 300H525.102M447.102 354C439.291 354 434.912 354 427.102 354M334.102 354.5H314.102M560.102 354.5H540.102" stroke="white" stroke-width="2"/>
<path d="M336.602 299.786C348.554 290.06 364.708 283 379.102 283C396.494 283 419.102 292.5 426.602 303.5" stroke="white" stroke-width="2"/>
<path d="M533.602 301.5C525.602 288.5 508.995 283 494.602 283C477.209 283 454.602 292.5 447.102 303.5" stroke="white" stroke-width="2"/>
<rect x="216.102" y="306" width="93" height="44" rx="14" stroke="white" stroke-width="2"/>
<path d="M327.102 268C297.831 268 274.102 212.812 274.102 143.5C274.102 74.1883 297.831 18 327.102 18" stroke="white" stroke-width="2"/>
<path d="M327.102 268H1329.1" stroke="white" stroke-width="2"/>
<path d="M207.102 338H195.102M192.102 338H188.102M185.102 338H173.102M163.102 338H151.102M170.102 338H166.102" stroke="white" stroke-width="2"/>
<path d="M122.102 338H126.102M129.102 338H133.102H137.102H141.102" stroke="white" stroke-width="2"/>
<path d="M97.1017 338H85.1017" stroke="white" stroke-width="2"/>
<path d="M119.102 338H107.102" stroke="white" stroke-width="2"/>
<path d="M163.102 338H151.102M141.102 338H129.102M148.102 338H144.102" stroke="white" stroke-width="2"/>
<path d="M104.102 338H100.102" stroke="white" stroke-width="2"/>
<path d="M113.102 310V322M113.102 325V329M113.102 332V344M113.102 354V366M113.102 347V351" stroke="white" stroke-width="2"/>
<circle cx="494.102" cy="338" r="29" stroke="white" stroke-width="2"/>
<path d="M503.102 338H507.102M510.102 338H514.102H518.102H522.102" stroke="white" stroke-width="2"/>
<path d="M500.102 338H488.102" stroke="white" stroke-width="2"/>
<path d="M485.102 338H481.102" stroke="white" stroke-width="2"/>
<path d="M494.102 310V322M494.102 325V329M494.102 332V344M494.102 354V366M494.102 347V351" stroke="white" stroke-width="2"/>
<circle cx="380.102" cy="338" r="29" stroke="white" stroke-width="2"/>
<path d="M389.102 338H393.102M396.102 338H400.102H404.102H408.102" stroke="white" stroke-width="2"/>
<path d="M386.102 338H374.102" stroke="white" stroke-width="2"/>
<path d="M371.102 338H367.102" stroke="white" stroke-width="2"/>
<path d="M380.102 310V322M380.102 325V329M380.102 332V344M380.102 354V366M380.102 347V351" stroke="white" stroke-width="2"/>
<path d="M317.102 338H305.102M302.102 338H298.102M295.102 338H283.102M273.102 338H261.102M280.102 338H276.102" stroke="white" stroke-width="2"/>
<path d="M320.102 338H324.102M327.102 338H331.102H335.102H339.102" stroke="white" stroke-width="2"/>
<path d="M363.102 338H351.102M341.102 338H329.102M348.102 338H344.102" stroke="white" stroke-width="2"/>
<path d="M232.102 338H236.102M239.102 338H243.102H247.102H251.102" stroke="white" stroke-width="2"/>
<path d="M273.102 338H261.102M251.102 338H239.102M258.102 338H254.102" stroke="white" stroke-width="2"/>
<path d="M477.102 338H465.102M455.102 338H443.102M462.102 338H458.102" stroke="white" stroke-width="2"/>
<path d="M185.102 338H173.102M163.102 338H151.102M170.102 338H166.102" stroke="white" stroke-width="2"/>
<path d="M229.102 338H217.102M214.102 338H210.102M207.102 338H195.102M185.102 338H173.102M192.102 338H188.102" stroke="white" stroke-width="2"/>
<path d="M163.102 338H151.102" stroke="white" stroke-width="2"/>
<path d="M432.102 338H420.102M410.102 338H398.102M417.102 338H413.102M439.602 338H435.602" stroke="white" stroke-width="2"/>
<path opacity="0.75" d="M1074.6 283C1060.47 283 1044.62 289.922 1032.81 299.5C1023.6 309 1019.93 318.093 1018.6 327" stroke="white" stroke-width="2"/>
<path d="M1132.6 336.5C1132.6 303.363 1107.46 283 1074.6 283C1060.47 283 1044.62 289.922 1032.81 299.5C1023.6 309 1019.93 318.093 1018.6 327" stroke="white" stroke-width="4"/>
<path d="M1132.6 336.5C1132.6 303.363 1157.74 283 1190.6 283C1204.73 283 1220.58 289.922 1232.4 299.5C1241.6 309 1245.28 318.093 1246.6 327" stroke="white" stroke-width="4"/>
<circle cx="1190.1" cy="338" r="29" stroke="white" stroke-width="2"/>
<circle cx="1190.1" cy="338" r="49" stroke="white" stroke-width="2"/>
<circle cx="1076.1" cy="338" r="29" stroke="white" stroke-width="2"/>
<circle cx="1076.1" cy="338" r="49" stroke="white" stroke-width="2"/>
<path d="M1175.44 270H1090.16L1081.63 272.087L1073.1 274.174V282.939H1107.61L1127.05 309.652L1129.03 316.78L1130.62 318H1132.6" stroke="white" stroke-width="2"/>
<path d="M1089.76 270H1175.05L1183.57 272.087L1192.1 274.174V282.939H1157.59L1138.16 309.652L1136.17 316.78L1134.59 318H1132.6" stroke="white" stroke-width="2"/>
<path d="M1142.1 347.624C1134.29 347.624 1132.41 347.624 1124.6 347.624M1029.1 348H962.102L962.102 301C957.102 301 991.599 301 1044.1 301M1254.6 301C1249.69 301 1238.07 301 1222.1 301M1158.1 301C1153.67 301 1149.16 301 1144.6 301" stroke="white" stroke-width="2"/>
<path d="M1222.6 301H1306.02V323.718H1318.6H1331.18V311.602H1340.89V320.689M1340.89 320.689H1350.6V353H1340.89V347.5M1340.89 320.689V347.5M1340.89 347.5H1239.1" stroke="white" stroke-width="2"/>
<circle cx="1190.1" cy="338" r="29" stroke="white" stroke-width="2"/>
<path d="M1199.1 338H1203.1M1206.1 338H1210.1H1214.1H1218.1" stroke="white" stroke-width="2"/>
<path d="M1196.1 338H1184.1" stroke="white" stroke-width="2"/>
<path d="M1181.1 338H1177.1" stroke="white" stroke-width="2"/>
<path d="M1190.1 310V322M1190.1 325V329M1190.1 332V344M1190.1 354V366M1190.1 347V351" stroke="white" stroke-width="2"/>
<circle cx="1076.1" cy="338" r="29" stroke="white" stroke-width="2"/>
<path d="M1085.1 338H1089.1M1092.1 338H1096.1H1100.1H1104.1" stroke="white" stroke-width="2"/>
<path d="M1082.1 338H1070.1" stroke="white" stroke-width="2"/>
<path d="M1067.1 338H1063.1" stroke="white" stroke-width="2"/>
<path d="M1076.1 310V322M1076.1 325V329M1076.1 332V344M1076.1 354V366M1076.1 347V351" stroke="white" stroke-width="2"/>
<path d="M1059.1 338H1047.1M1037.1 338H1025.1M1044.1 338H1040.1" stroke="white" stroke-width="2"/>
<path d="M1173.1 338H1161.1M1151.1 338H1139.1M1158.1 338H1154.1" stroke="white" stroke-width="2"/>
<path d="M1128.1 338H1116.1M1106.1 338H1094.1M1113.1 338H1109.1M1135.6 338H1131.6" stroke="white" stroke-width="2"/>
<path d="M4.1017 222.5H10.5329C14.3922 222.5 17.7013 219.745 18.4005 215.949L29.361 156.449C30.2666 151.533 26.4922 147 21.4934 147H18.5096" stroke="white" stroke-width="2"/>
<path d="M48.7316 150H101.102C102.207 150 103.102 150.895 103.102 152V199.03C103.102 199.904 102.534 200.678 101.699 200.939L87.1017 205.5" stroke="white" stroke-width="2"/>
<path d="M87.1017 205.5L43.7402 217.773C43.2082 217.924 42.658 218 42.1052 218C38.7895 218 36.1017 215.312 36.1017 211.997V203.184L42.1017 156C42.1017 152.686 44.788 150 48.1017 150H49.6017" stroke="white" stroke-width="2"/>
<rect x="93.6017" y="218.5" width="6" height="3" stroke="white"/>
<path d="M193.102 206V197M188.102 204C189.702 204 192.435 204 193.602 204" stroke="white" stroke-width="2"/>
<path d="M1293.1 143H1316.6H1340.1M1348.1 143H1359.1M1369.6 143H1393.1H1416.6" stroke="white" stroke-width="3"/>
<path d="M1218.1 143H1265.1M1273.1 143H1284.1" stroke="white" stroke-width="3"/>
<path d="M1066.1 143H1113.1M1121.1 143H1132.1" stroke="white" stroke-width="3"/>
<path d="M1142.1 143H1189.1M1197.1 143H1208.1" stroke="white" stroke-width="3"/>
<path d="M991.102 143H1038.1M1046.1 143H1057.1" stroke="white" stroke-width="3"/>
<path d="M916.102 143H963.102M971.102 143H982.102" stroke="white" stroke-width="3"/>
<path d="M239.102 143H286.102M294.102 143H305.102" stroke="white" stroke-width="3"/>
<path d="M843.102 143H890.102M898.102 143H909.102" stroke="white" stroke-width="3"/>
<path d="M919.102 143H967.102" stroke="white" stroke-width="3"/>
<path d="M768.102 143H815.102M823.102 143H834.102" stroke="white" stroke-width="3"/>
<path d="M616.102 143H663.102M671.102 143H682.102" stroke="white" stroke-width="3"/>
<path d="M692.102 143H739.102M747.102 143H758.102" stroke="white" stroke-width="3"/>
<path d="M541.102 143H588.102M596.102 143H607.102" stroke="white" stroke-width="3"/>
<path d="M390.102 143H437.102M445.102 143H456.102" stroke="white" stroke-width="3"/>
<path d="M466.102 143H513.102M521.102 143H532.102" stroke="white" stroke-width="3"/>
<path d="M315.102 143H362.102M370.102 143H381.102" stroke="white" stroke-width="3"/>
</svg>
